ISO-10303-21;
HEADER;
FILE_DESCRIPTION (( 'STEP AP203' ),
    '1' );
FILE_NAME ('5537T935_T-Slotted Framing.STEP',
    '2021-09-10T05:06:45',
    ( 'Administrator' ),
    ( 'Managed by Terraform' ),
    'SwSTEP 2.0',
    'SolidWorks 2017',
    '' );
FILE_SCHEMA (( 'CONFIG_CONTROL_DESIGN' ));
ENDSEC;

DATA;
#1 = ORIENTED_EDGE ( 'NONE', *, *, #41, .F. ) ;
#2 = LINE ( 'NONE', #263, #436 ) ;
#3 = FACE_OUTER_BOUND ( 'NONE', #81, .T. ) ;
#4 = ORIENTED_EDGE ( 'NONE', *, *, #190, .T. ) ;
#5 = LOCAL_TIME ( 0, 6, 45.00000000000000000, #205 ) ;
#6 = ORIENTED_EDGE ( 'NONE', *, *, #93, .F. ) ;
#7 = DATE_TIME_ROLE ( 'classification_date' ) ;
#8 = ORIENTED_EDGE ( 'NONE', *, *, #222, .F. ) ;
#9 = ORIENTED_EDGE ( 'NONE', *, *, #163, .T. ) ;
#10 = VERTEX_POINT ( 'NONE', #299 ) ;
#11 = PERSON_AND_ORGANIZATION_ROLE ( 'classification_officer' ) ;
#12 = LINE ( 'NONE', #203, #448 ) ;
#13 =( LENGTH_UNIT ( ) NAMED_UNIT ( * ) SI_UNIT ( .MILLI., .METRE. ) );
#14 = CIRCLE ( 'NONE', #463, 3.000000000000000900 ) ;
#15 = CARTESIAN_POINT ( 'NONE',  ( 0.0000000000000000000, 0.0000000000000000000, 9.000000000000000000 ) ) ;
#16 = ORIENTED_EDGE ( 'NONE', *, *, #140, .T. ) ;
#17 = DIRECTION ( 'NONE',  ( 0.0000000000000000000, 0.0000000000000000000, -1.000000000000000000 ) ) ;
#18 = CARTESIAN_POINT ( 'NONE',  ( 6.000000000000001800, 6.000000000000000000, 9.000000000000000000 ) ) ;
#19 = ORGANIZATION ( 'UNSPECIFIED', 'UNSPECIFIED', '' ) ;
#20 = ORIENTED_EDGE ( 'NONE', *, *, #23, .F. ) ;
#21 = DIRECTION ( 'NONE',  ( 0.0000000000000000000, 0.0000000000000000000, 1.000000000000000000 ) ) ;
#22 = DIRECTION ( 'NONE',  ( -1.000000000000000000, 0.0000000000000000000, 0.0000000000000000000 ) ) ;
#23 = EDGE_CURVE ( 'NONE', #404, #54, #91, .T. ) ;
#24 = CARTESIAN_POINT ( 'NONE',  ( 10.00000000000000900, 20.00000000000000400, 0.0000000000000000000 ) ) ;
#25 = ORIENTED_EDGE ( 'NONE', *, *, #456, .F. ) ;
#26 = DIRECTION ( 'NONE',  ( 1.000000000000000000, -3.306546357697853100E-017, -0.0000000000000000000 ) ) ;
#27 = AXIS2_PLACEMENT_3D ( 'NONE', #257, #405, #296 ) ;
#28 = DIRECTION ( 'NONE',  ( 0.0000000000000000000, 0.0000000000000000000, -1.000000000000000000 ) ) ;
#29 = VERTEX_POINT ( 'NONE', #221 ) ;
#30 = CALENDAR_DATE ( 2021, 10, 9 ) ;
#31 = ORIENTED_EDGE ( 'NONE', *, *, #285, .T. ) ;
#32 = CARTESIAN_POINT ( 'NONE',  ( 6.000000000000001800, 2.999999999999999600, -9.000000000000000000 ) ) ;
#33 = LINE ( 'NONE', #370, #470 ) ;
#34 = DIRECTION ( 'NONE',  ( -0.0000000000000000000, -1.000000000000000000, -0.0000000000000000000 ) ) ;
#35 = EDGE_CURVE ( 'NONE', #478, #138, #431, .T. ) ;
#36 = CIRCLE ( 'NONE', #346, 2.749999999999998200 ) ;
#37 = EDGE_CURVE ( 'NONE', #29, #331, #256, .T. ) ;
#38 = ORIENTED_EDGE ( 'NONE', *, *, #51, .F. ) ;
#39 = LINE ( 'NONE', #84, #398 ) ;
#40 = CYLINDRICAL_SURFACE ( 'NONE', #98, 2.750000000000000000 ) ;
#41 = EDGE_CURVE ( 'NONE', #353, #478, #349, .T. ) ;
#42 = COORDINATED_UNIVERSAL_TIME_OFFSET ( 6, 0, .BEHIND. ) ;
#43 = EDGE_CURVE ( 'NONE', #138, #409, #36, .T. ) ;
#44 = CARTESIAN_POINT ( 'NONE',  ( 0.0000000000000000000, 20.00000000000000000, 9.000000000000000000 ) ) ;
#45 = SECURITY_CLASSIFICATION_LEVEL ( 'unclassified' ) ;
#46 = ORIENTED_EDGE ( 'NONE', *, *, #41, .T. ) ;
#47 = AXIS2_PLACEMENT_3D ( 'NONE', #480, #179, #258 ) ;
#48 = APPROVAL_STATUS ( 'not_yet_approved' ) ;
#49 = APPLICATION_PROTOCOL_DEFINITION ( 'international standard', 'config_control_design', 1994, #430 ) ;
#50 = DIRECTION ( 'NONE',  ( -0.0000000000000000000, -0.0000000000000000000, -1.000000000000000000 ) ) ;
#51 = EDGE_CURVE ( 'NONE', #268, #105, #490, .T. ) ;
#52 = DIRECTION ( 'NONE',  ( 0.0000000000000000000, 0.0000000000000000000, 1.000000000000000000 ) ) ;
#53 = CYLINDRICAL_SURFACE ( 'NONE', #116, 3.000000000000000400 ) ;
#54 = VERTEX_POINT ( 'NONE', #252 ) ;
#55 = CARTESIAN_POINT ( 'NONE',  ( -2.081899558550500300E-015, 17.00000000000000000, -9.000000000000000000 ) ) ;
#56 = FACE_OUTER_BOUND ( 'NONE', #306, .T. ) ;
#57 = PRODUCT ( '5537T935_T-Slotted Framing', '5537T935_T-Slotted Framing', '', ( #393 ) ) ;
#58 = DIRECTION ( 'NONE',  ( -1.000000000000000000, 3.306546357697853100E-017, 0.0000000000000000000 ) ) ;
#59 = APPROVAL_DATE_TIME ( #78, #70 ) ;
#60 = DIRECTION ( 'NONE',  ( 0.0000000000000000000, -1.000000000000000000, 0.0000000000000000000 ) ) ;
#61 = CARTESIAN_POINT ( 'NONE',  ( 2.999999999999998700, 17.00000000000000000, 9.000000000000000000 ) ) ;
#62 = VERTEX_POINT ( 'NONE', #133 ) ;
#63 = DIRECTION ( 'NONE',  ( -1.000000000000000000, 0.0000000000000000000, 0.0000000000000000000 ) ) ;
#64 = DIRECTION ( 'NONE',  ( -0.0000000000000000000, -0.0000000000000000000, -1.000000000000000000 ) ) ;
#65 = CIRCLE ( 'NONE', #321, 2.999999999999999100 ) ;
#66 = VERTEX_POINT ( 'NONE', #469 ) ;
#67 = DIRECTION ( 'NONE',  ( -1.000000000000000000, 0.0000000000000000000, 0.0000000000000000000 ) ) ;
#68 = FACE_BOUND ( 'NONE', #115, .T. ) ;
#69 = DATE_AND_TIME ( #266, #453 ) ;
#70 = APPROVAL ( #48, 'UNSPECIFIED' ) ;
#71 = ADVANCED_FACE ( 'NONE', ( #281 ), #114, .F. ) ;
#72 = ORIENTED_EDGE ( 'NONE', *, *, #43, .F. ) ;
#73 = AXIS2_PLACEMENT_3D ( 'NONE', #415, #340, #447 ) ;
#74 = EDGE_CURVE ( 'NONE', #62, #188, #12, .T. ) ;
#75 = LINE ( 'NONE', #312, #191 ) ;
#76 = EDGE_LOOP ( 'NONE', ( #468, #215, #117, #108 ) ) ;
#77 = DATE_AND_TIME ( #183, #5 ) ;
#78 = DATE_AND_TIME ( #487, #187 ) ;
#79 = VERTEX_POINT ( 'NONE', #15 ) ;
#80 = DIRECTION ( 'NONE',  ( -1.000000000000000000, -1.182766006347823100E-016, 0.0000000000000000000 ) ) ;
#81 = EDGE_LOOP ( 'NONE', ( #388, #417, #141, #356 ) ) ;
#82 = DIRECTION ( 'NONE',  ( 1.000000000000000000, 0.0000000000000000000, 0.0000000000000000000 ) ) ;
#83 = VECTOR ( 'NONE', #64, 1000.000000000000000 ) ;
#84 = CARTESIAN_POINT ( 'NONE',  ( 17.00000000000000000, 3.000000000000000400, 9.000000000000000000 ) ) ;
#85 = CARTESIAN_POINT ( 'NONE',  ( 0.0000000000000000000, 0.0000000000000000000, 9.000000000000000000 ) ) ;
#86 = DIRECTION ( 'NONE',  ( 0.0000000000000000000, 0.0000000000000000000, 1.000000000000000000 ) ) ;
#87 = CARTESIAN_POINT ( 'NONE',  ( 20.00000000000000000, 10.00000000000000900, 0.0000000000000000000 ) ) ;
#88 = EDGE_CURVE ( 'NONE', #313, #406, #39, .T. ) ;
#89 = CARTESIAN_POINT ( 'NONE',  ( 17.00000000000000000, 0.0000000000000000000, 9.000000000000000000 ) ) ;
#90 = AXIS2_PLACEMENT_3D ( 'NONE', #87, #288, #471 ) ;
#91 = LINE ( 'NONE', #218, #474 ) ;
#92 = CLOSED_SHELL ( 'NONE', ( #71, #264, #454, #443, #294, #373, #486, #106, #423, #307, #452, #309, #421 ) ) ;
#93 = EDGE_CURVE ( 'NONE', #331, #188, #459, .T. ) ;
#94 = AXIS2_PLACEMENT_3D ( 'NONE', #251, #21, #286 ) ;
#95 = PLANE ( 'NONE',  #214 ) ;
#96 = EDGE_LOOP ( 'NONE', ( #282, #31, #72, #242 ) ) ;
#97 = PLANE ( 'NONE',  #269 ) ;
#98 = AXIS2_PLACEMENT_3D ( 'NONE', #304, #67, #182 ) ;
#99 = CARTESIAN_POINT ( 'NONE',  ( 0.0000000000000000000, 10.00000000000000900, 0.0000000000000000000 ) ) ;
#100 = DATE_AND_TIME ( #348, #132 ) ;
#101 = CYLINDRICAL_SURFACE ( 'NONE', #441, 2.749999999999998200 ) ;
#102 = ORIENTED_EDGE ( 'NONE', *, *, #300, .F. ) ;
#103 = CARTESIAN_POINT ( 'NONE',  ( 2.999999999999999100, 10.00000000000000900, 0.0000000000000000000 ) ) ;
#104 = DATE_AND_TIME ( #30, #369 ) ;
#105 = VERTEX_POINT ( 'NONE', #127 ) ;
#106 = ADVANCED_FACE ( 'NONE', ( #352 ), #53, .F. ) ;
#107 = DIRECTION ( 'NONE',  ( 1.000000000000000000, 0.0000000000000000000, 0.0000000000000000000 ) ) ;
#108 = ORIENTED_EDGE ( 'NONE', *, *, #74, .F. ) ;
#109 = DIRECTION ( 'NONE',  ( -0.0000000000000000000, -0.0000000000000000000, -1.000000000000000000 ) ) ;
#110 = ORIENTED_EDGE ( 'NONE', *, *, #156, .F. ) ;
#111 = CARTESIAN_POINT ( 'NONE',  ( 0.0000000000000000000, 20.00000000000000000, -9.000000000000000000 ) ) ;
#112 = AXIS2_PLACEMENT_3D ( 'NONE', #99, #475, #255 ) ;
#113 = ORIENTED_EDGE ( 'NONE', *, *, #375, .F. ) ;
#114 = CYLINDRICAL_SURFACE ( 'NONE', #90, 2.750000000000000000 ) ;
#115 = EDGE_LOOP ( 'NONE', ( #338, #1 ) ) ;
#116 = AXIS2_PLACEMENT_3D ( 'NONE', #18, #472, #477 ) ;
#117 = ORIENTED_EDGE ( 'NONE', *, *, #289, .F. ) ;
#118 = APPROVAL ( #239, 'UNSPECIFIED' ) ;
#119 = AXIS2_PLACEMENT_3D ( 'NONE', #231, #267, #384 ) ;
#120 = CARTESIAN_POINT ( 'NONE',  ( 17.00000000000000000, 0.0000000000000000000, 9.000000000000000000 ) ) ;
#121 = AXIS2_PLACEMENT_3D ( 'NONE', #244, #327, #82 ) ;
#122 = APPROVAL_DATE_TIME ( #100, #351 ) ;
#123 = AXIS2_PLACEMENT_3D ( 'NONE', #489, #229, #63 ) ;
#124 = PERSON_AND_ORGANIZATION_ROLE ( 'creator' ) ;
#125 = ORIENTED_EDGE ( 'NONE', *, *, #23, .T. ) ;
#126 = APPROVAL_ROLE ( '' ) ;
#127 = CARTESIAN_POINT ( 'NONE',  ( 0.0000000000000000000, 20.00000000000000000, 9.000000000000000000 ) ) ;
#128 = ORIENTED_EDGE ( 'NONE', *, *, #465, .F. ) ;
#129 = DIRECTION ( 'NONE',  ( -0.0000000000000000000, -1.000000000000000000, -0.0000000000000000000 ) ) ;
#130 = PRODUCT_DEFINITION ( 'UNKNOWN', '', #271, #136 ) ;
#131 = CARTESIAN_POINT ( 'NONE',  ( 10.00000000000000900, 2.999999999999999100, 0.0000000000000000000 ) ) ;
#132 = LOCAL_TIME ( 0, 6, 45.00000000000000000, #341 ) ;
#133 = CARTESIAN_POINT ( 'NONE',  ( 2.999999999999999100, 10.00000000000000900, 2.750000000000000000 ) ) ;
#134 = EDGE_CURVE ( 'NONE', #478, #353, #248, .T. ) ;
#135 = FACE_OUTER_BOUND ( 'NONE', #197, .T. ) ;
#136 = DESIGN_CONTEXT ( 'detailed design', #430, 'design' ) ;
#137 = CARTESIAN_POINT ( 'NONE',  ( 10.00000000000000900, 20.00000000000000400, 0.0000000000000000000 ) ) ;
#138 = VERTEX_POINT ( 'NONE', #419 ) ;
#139 = CARTESIAN_POINT ( 'NONE',  ( 10.00000000000000900, 2.999999999999999100, 2.749999999999998200 ) ) ;
#140 = EDGE_CURVE ( 'NONE', #406, #54, #180, .T. ) ;
#141 = ORIENTED_EDGE ( 'NONE', *, *, #232, .F. ) ;
#142 = CC_DESIGN_APPROVAL ( #70, ( #130 ) ) ;
#143 = DIRECTION ( 'NONE',  ( -0.0000000000000000000, -0.0000000000000000000, -1.000000000000000000 ) ) ;
#144 = CARTESIAN_POINT ( 'NONE',  ( 17.00000000000000000, 3.000000000000000400, -9.000000000000000000 ) ) ;
#145 = CIRCLE ( 'NONE', #345, 3.000000000000000900 ) ;
#146 = ORIENTED_EDGE ( 'NONE', *, *, #440, .F. ) ;
#147 = CARTESIAN_POINT ( 'NONE',  ( 3.000000000000001300, 6.000000000000000000, 9.000000000000000000 ) ) ;
#148 = CIRCLE ( 'NONE', #420, 2.750000000000000000 ) ;
#149 = DIRECTION ( 'NONE',  ( -0.0000000000000000000, -0.0000000000000000000, -1.000000000000000000 ) ) ;
#150 = CARTESIAN_POINT ( 'NONE',  ( 3.000000000000001300, 6.000000000000000000, 9.000000000000000000 ) ) ;
#151 = APPROVAL_PERSON_ORGANIZATION ( #403, #118, #200 ) ;
#152 = ORIENTED_EDGE ( 'NONE', *, *, #433, .F. ) ;
#153 = AXIS2_PLACEMENT_3D ( 'NONE', #85, #246, #17 ) ;
#154 = CIRCLE ( 'NONE', #112, 2.750000000000000000 ) ;
#155 = ORIENTED_EDGE ( 'NONE', *, *, #88, .T. ) ;
#156 = EDGE_CURVE ( 'NONE', #206, #268, #2, .T. ) ;
#157 = LINE ( 'NONE', #333, #461 ) ;
#158 = APPROVAL_PERSON_ORGANIZATION ( #249, #351, #323 ) ;
#159 = APPLICATION_PROTOCOL_DEFINITION ( 'international standard', 'config_control_design', 1994, #359 ) ;
#160 = ORIENTED_EDGE ( 'NONE', *, *, #399, .F. ) ;
#161 = UNCERTAINTY_MEASURE_WITH_UNIT (LENGTH_MEASURE( 1.000000000000000100E-005 ), #13, 'distance_accuracy_value', 'NONE');
#162 = DIRECTION ( 'NONE',  ( -1.000000000000000000, 0.0000000000000000000, 0.0000000000000000000 ) ) ;
#163 = EDGE_CURVE ( 'NONE', #66, #10, #75, .T. ) ;
#164 =( NAMED_UNIT ( * ) SI_UNIT ( $, .STERADIAN. ) SOLID_ANGLE_UNIT ( ) );
#165 = CARTESIAN_POINT ( 'NONE',  ( 3.000000000000000000, 17.00000000000000000, 9.000000000000000000 ) ) ;
#166 = LINE ( 'NONE', #61, #83 ) ;
#167 = ORIENTED_EDGE ( 'NONE', *, *, #440, .T. ) ;
#168 = CARTESIAN_POINT ( 'NONE',  ( 0.0000000000000000000, 10.00000000000000900, 0.0000000000000000000 ) ) ;
#169 = VECTOR ( 'NONE', #446, 1000.000000000000000 ) ;
#170 = DIRECTION ( 'NONE',  ( 0.0000000000000000000, 1.000000000000000000, 0.0000000000000000000 ) ) ;
#171 = COORDINATED_UNIVERSAL_TIME_OFFSET ( 6, 0, .BEHIND. ) ;
#172 = DIRECTION ( 'NONE',  ( 0.0000000000000000000, -1.000000000000000000, 0.0000000000000000000 ) ) ;
#173 = SHAPE_DEFINITION_REPRESENTATION ( #422, #233 ) ;
#174 = EDGE_LOOP ( 'NONE', ( #397, #240 ) ) ;
#175 = VERTEX_POINT ( 'NONE', #308 ) ;
#176 = DIRECTION ( 'NONE',  ( 1.000000000000000000, 0.0000000000000000000, 0.0000000000000000000 ) ) ;
#177 = CARTESIAN_POINT ( 'NONE',  ( 10.00000000000000900, 20.00000000000000400, -2.749999999999998200 ) ) ;
#178 = EDGE_CURVE ( 'NONE', #29, #62, #298, .T. ) ;
#179 = DIRECTION ( 'NONE',  ( 0.0000000000000000000, 1.000000000000000000, 0.0000000000000000000 ) ) ;
#180 = LINE ( 'NONE', #32, #412 ) ;
#181 = ORIENTED_EDGE ( 'NONE', *, *, #156, .T. ) ;
#182 = DIRECTION ( 'NONE',  ( 0.0000000000000000000, 0.0000000000000000000, 1.000000000000000000 ) ) ;
#183 = CALENDAR_DATE ( 2021, 10, 9 ) ;
#184 = EDGE_LOOP ( 'NONE', ( #4, #407, #128, #125 ) ) ;
#185 = CC_DESIGN_DATE_AND_TIME_ASSIGNMENT ( #77, #7, ( #301 ) ) ;
#186 = DIRECTION ( 'NONE',  ( -1.182766006347823100E-016, 1.000000000000000000, -0.0000000000000000000 ) ) ;
#187 = LOCAL_TIME ( 0, 6, 45.00000000000000000, #287 ) ;
#188 = VERTEX_POINT ( 'NONE', #344 ) ;
#189 = ORIENTED_EDGE ( 'NONE', *, *, #178, .F. ) ;
#190 = EDGE_CURVE ( 'NONE', #54, #235, #145, .T. ) ;
#191 = VECTOR ( 'NONE', #342, 1000.000000000000000 ) ;
#192 = AXIS2_PLACEMENT_3D ( 'NONE', #357, #196, #280 ) ;
#193 = VECTOR ( 'NONE', #259, 1000.000000000000000 ) ;
#194 = FACE_BOUND ( 'NONE', #174, .T. ) ;
#195 = ORIENTED_EDGE ( 'NONE', *, *, #178, .T. ) ;
#196 = DIRECTION ( 'NONE',  ( 0.0000000000000000000, 0.0000000000000000000, 1.000000000000000000 ) ) ;
#197 = EDGE_LOOP ( 'NONE', ( #225, #46, #261, #336 ) ) ;
#198 = PERSON_AND_ORGANIZATION_ROLE ( 'creator' ) ;
#199 = VECTOR ( 'NONE', #26, 1000.000000000000000 ) ;
#200 = APPROVAL_ROLE ( '' ) ;
#201 = VECTOR ( 'NONE', #466, 1000.000000000000000 ) ;
#202 = ORIENTED_EDGE ( 'NONE', *, *, #93, .T. ) ;
#203 = CARTESIAN_POINT ( 'NONE',  ( 20.00000000000000000, 10.00000000000000900, 2.750000000000000000 ) ) ;
#204 = ORIENTED_EDGE ( 'NONE', *, *, #289, .T. ) ;
#205 = COORDINATED_UNIVERSAL_TIME_OFFSET ( 6, 0, .BEHIND. ) ;
#206 = VERTEX_POINT ( 'NONE', #147 ) ;
#207 = CC_DESIGN_APPROVAL ( #351, ( #301 ) ) ;
#208 = DIRECTION ( 'NONE',  ( 1.000000000000000000, 0.0000000000000000000, 0.0000000000000000000 ) ) ;
#209 = PERSON ( 'UNSPECIFIED', 'UNSPECIFIED', 'UNSPECIFIED', ('UNSPECIFIED'), ('UNSPECIFIED'), ('UNSPECIFIED') ) ;
#210 = VERTEX_POINT ( 'NONE', #111 ) ;
#211 = CARTESIAN_POINT ( 'NONE',  ( 3.000000000000000000, 17.00000000000000000, -9.000000000000000000 ) ) ;
#212 = EDGE_LOOP ( 'NONE', ( #113, #189 ) ) ;
#213 = CARTESIAN_POINT ( 'NONE',  ( 0.0000000000000000000, 10.00000000000000900, -2.750000000000000000 ) ) ;
#214 = AXIS2_PLACEMENT_3D ( 'NONE', #337, #442, #58 ) ;
#215 = ORIENTED_EDGE ( 'NONE', *, *, #37, .T. ) ;
#216 = EDGE_CURVE ( 'NONE', #206, #235, #467, .T. ) ;
#217 = DIRECTION ( 'NONE',  ( -0.0000000000000000000, -0.0000000000000000000, -1.000000000000000000 ) ) ;
#218 = CARTESIAN_POINT ( 'NONE',  ( 6.000000000000000900, 2.999999999999999600, 9.000000000000000000 ) ) ;
#219 = LINE ( 'NONE', #220, #199 ) ;
#220 = CARTESIAN_POINT ( 'NONE',  ( 20.00000000000000000, -6.613092715395706500E-016, 9.000000000000000000 ) ) ;
#221 = CARTESIAN_POINT ( 'NONE',  ( 2.999999999999999100, 10.00000000000000900, -2.750000000000000000 ) ) ;
#222 = EDGE_CURVE ( 'NONE', #210, #66, #481, .T. ) ;
#223 = CC_DESIGN_PERSON_AND_ORGANIZATION_ASSIGNMENT ( #276, #198, ( #130 ) ) ;
#224 = CARTESIAN_POINT ( 'NONE',  ( 3.000000000000001300, 6.000000000000000000, -9.000000000000000000 ) ) ;
#225 = ORIENTED_EDGE ( 'NONE', *, *, #285, .F. ) ;
#226 = DIRECTION ( 'NONE',  ( 0.0000000000000000000, 0.0000000000000000000, -1.000000000000000000 ) ) ;
#227 = PERSON_AND_ORGANIZATION ( #209, #19 ) ;
#228 = EDGE_LOOP ( 'NONE', ( #457, #291, #328, #339, #181, #292, #378 ) ) ;
#229 = DIRECTION ( 'NONE',  ( -0.0000000000000000000, -0.0000000000000000000, -1.000000000000000000 ) ) ;
#230 = DIRECTION ( 'NONE',  ( -7.885106708985487800E-017, 1.000000000000000000, -0.0000000000000000000 ) ) ;
#231 = CARTESIAN_POINT ( 'NONE',  ( 2.999999999999999100, 10.00000000000000900, 0.0000000000000000000 ) ) ;
#232 = EDGE_CURVE ( 'NONE', #322, #313, #65, .T. ) ;
#233 = ADVANCED_BREP_SHAPE_REPRESENTATION ( '5537T935_T-Slotted Framing', ( #275, #192 ), #387 ) ;
#234 = ORIENTED_EDGE ( 'NONE', *, *, #222, .T. ) ;
#235 = VERTEX_POINT ( 'NONE', #224 ) ;
#236 = ORIENTED_EDGE ( 'NONE', *, *, #243, .T. ) ;
#237 = EDGE_CURVE ( 'NONE', #322, #10, #272, .T. ) ;
#238 = FACE_OUTER_BOUND ( 'NONE', #310, .T. ) ;
#239 = APPROVAL_STATUS ( 'not_yet_approved' ) ;
#240 = ORIENTED_EDGE ( 'NONE', *, *, #350, .T. ) ;
#241 = PERSON_AND_ORGANIZATION_ROLE ( 'design_supplier' ) ;
#242 = ORIENTED_EDGE ( 'NONE', *, *, #35, .F. ) ;
#243 = EDGE_CURVE ( 'NONE', #268, #175, #166, .T. ) ;
#244 = CARTESIAN_POINT ( 'NONE',  ( 6.000000000000001800, 6.000000000000000000, 9.000000000000000000 ) ) ;
#245 = CC_DESIGN_DATE_AND_TIME_ASSIGNMENT ( #69, #279, ( #130 ) ) ;
#246 = DIRECTION ( 'NONE',  ( 1.000000000000000000, 0.0000000000000000000, 0.0000000000000000000 ) ) ;
#247 = DIRECTION ( 'NONE',  ( 1.000000000000000000, 0.0000000000000000000, 0.0000000000000000000 ) ) ;
#248 = CIRCLE ( 'NONE', #385, 2.749999999999999100 ) ;
#249 = PERSON_AND_ORGANIZATION ( #209, #19 ) ;
#250 = ORIENTED_EDGE ( 'NONE', *, *, #163, .F. ) ;
#251 = CARTESIAN_POINT ( 'NONE',  ( -2.081899558550500300E-015, 17.00000000000000000, -9.000000000000000000 ) ) ;
#252 = CARTESIAN_POINT ( 'NONE',  ( 6.000000000000000900, 2.999999999999999600, -9.000000000000000000 ) ) ;
#253 = LINE ( 'NONE', #44, #201 ) ;
#254 = CARTESIAN_POINT ( 'NONE',  ( 6.000000000000001800, 2.999999999999999600, 9.000000000000000000 ) ) ;
#255 = DIRECTION ( 'NONE',  ( 0.0000000000000000000, 0.0000000000000000000, -1.000000000000000000 ) ) ;
#256 = LINE ( 'NONE', #360, #394 ) ;
#257 = CARTESIAN_POINT ( 'NONE',  ( -2.081899558550500300E-015, 17.00000000000000000, 9.000000000000000000 ) ) ;
#258 = DIRECTION ( 'NONE',  ( 0.0000000000000000000, 0.0000000000000000000, 1.000000000000000000 ) ) ;
#259 = DIRECTION ( 'NONE',  ( -1.182766006347823100E-016, 1.000000000000000000, -0.0000000000000000000 ) ) ;
#260 = CYLINDRICAL_SURFACE ( 'NONE', #391, 2.749999999999998200 ) ;
#261 = ORIENTED_EDGE ( 'NONE', *, *, #35, .T. ) ;
#262 = LINE ( 'NONE', #211, #193 ) ;
#263 = CARTESIAN_POINT ( 'NONE',  ( 3.000000000000000000, 17.00000000000000000, 9.000000000000000000 ) ) ;
#264 = ADVANCED_FACE ( 'NONE', ( #361 ), #260, .F. ) ;
#265 = DIRECTION ( 'NONE',  ( 1.000000000000000000, 0.0000000000000000000, 0.0000000000000000000 ) ) ;
#266 = CALENDAR_DATE ( 2021, 10, 9 ) ;
#267 = DIRECTION ( 'NONE',  ( 1.000000000000000000, 1.182766006347823100E-016, -0.0000000000000000000 ) ) ;
#268 = VERTEX_POINT ( 'NONE', #476 ) ;
#269 = AXIS2_PLACEMENT_3D ( 'NONE', #445, #482, #418 ) ;
#270 = EDGE_CURVE ( 'NONE', #79, #322, #219, .T. ) ;
#271 = PRODUCT_DEFINITION_FORMATION_WITH_SPECIFIED_SOURCE ( 'ANY', '', #57, .NOT_KNOWN. ) ;
#272 = LINE ( 'NONE', #293, #315 ) ;
#273 = ORIENTED_EDGE ( 'NONE', *, *, #140, .F. ) ;
#274 = FACE_OUTER_BOUND ( 'NONE', #320, .T. ) ;
#275 = MANIFOLD_SOLID_BREP ( 'Cut-Extrude2', #92 ) ;
#276 = PERSON_AND_ORGANIZATION ( #209, #19 ) ;
#277 = APPROVAL_STATUS ( 'not_yet_approved' ) ;
#278 = FACE_OUTER_BOUND ( 'NONE', #432, .T. ) ;
#279 = DATE_TIME_ROLE ( 'creation_date' ) ;
#280 = DIRECTION ( 'NONE',  ( 1.000000000000000000, 0.0000000000000000000, 0.0000000000000000000 ) ) ;
#281 = FACE_OUTER_BOUND ( 'NONE', #76, .T. ) ;
#282 = ORIENTED_EDGE ( 'NONE', *, *, #134, .T. ) ;
#283 = PLANE ( 'NONE',  #153 ) ;
#284 = CARTESIAN_POINT ( 'NONE',  ( 10.00000000000000900, 0.0000000000000000000, 0.0000000000000000000 ) ) ;
#285 = EDGE_CURVE ( 'NONE', #353, #409, #425, .T. ) ;
#286 = DIRECTION ( 'NONE',  ( 1.000000000000000000, 0.0000000000000000000, -0.0000000000000000000 ) ) ;
#287 = COORDINATED_UNIVERSAL_TIME_OFFSET ( 6, 0, .BEHIND. ) ;
#288 = DIRECTION ( 'NONE',  ( -1.000000000000000000, 0.0000000000000000000, 0.0000000000000000000 ) ) ;
#289 = EDGE_CURVE ( 'NONE', #188, #331, #154, .T. ) ;
#290 = PLANE ( 'NONE',  #27 ) ;
#291 = ORIENTED_EDGE ( 'NONE', *, *, #232, .T. ) ;
#292 = ORIENTED_EDGE ( 'NONE', *, *, #51, .T. ) ;
#293 = CARTESIAN_POINT ( 'NONE',  ( 20.00000000000000000, 0.0000000000000000000, 9.000000000000000000 ) ) ;
#294 = ADVANCED_FACE ( 'NONE', ( #278, #194 ), #95, .F. ) ;
#295 = EDGE_CURVE ( 'NONE', #313, #404, #343, .T. ) ;
#296 = DIRECTION ( 'NONE',  ( 1.000000000000000000, 0.0000000000000000000, -0.0000000000000000000 ) ) ;
#297 = ORIENTED_EDGE ( 'NONE', *, *, #456, .T. ) ;
#298 = CIRCLE ( 'NONE', #119, 2.750000000000000000 ) ;
#299 = CARTESIAN_POINT ( 'NONE',  ( 20.00000000000000000, 0.0000000000000000000, -9.000000000000000000 ) ) ;
#300 = EDGE_CURVE ( 'NONE', #235, #175, #262, .T. ) ;
#301 = SECURITY_CLASSIFICATION ( '', '', #45 ) ;
#302 = DIRECTION ( 'NONE',  ( 1.577021341797097300E-016, -1.000000000000000000, 0.0000000000000000000 ) ) ;
#303 = FACE_OUTER_BOUND ( 'NONE', #311, .T. ) ;
#304 = CARTESIAN_POINT ( 'NONE',  ( 20.00000000000000000, 10.00000000000000900, 0.0000000000000000000 ) ) ;
#305 = APPROVAL_PERSON_ORGANIZATION ( #427, #70, #126 ) ;
#306 = EDGE_LOOP ( 'NONE', ( #234, #317, #152, #297 ) ) ;
#307 = ADVANCED_FACE ( 'NONE', ( #438 ), #290, .T. ) ;
#308 = CARTESIAN_POINT ( 'NONE',  ( 2.999999999999998700, 17.00000000000000000, -9.000000000000000000 ) ) ;
#309 = ADVANCED_FACE ( 'NONE', ( #135 ), #101, .F. ) ;
#310 = EDGE_LOOP ( 'NONE', ( #16, #20, #464, #155 ) ) ;
#311 = EDGE_LOOP ( 'NONE', ( #434, #449, #110, #460 ) ) ;
#312 = CARTESIAN_POINT ( 'NONE',  ( 20.00000000000000000, -6.613092715395706500E-016, -9.000000000000000000 ) ) ;
#313 = VERTEX_POINT ( 'NONE', #374 ) ;
#314 = AXIS2_PLACEMENT_3D ( 'NONE', #165, #80, #396 ) ;
#315 = VECTOR ( 'NONE', #217, 1000.000000000000000 ) ;
#316 = FACE_BOUND ( 'NONE', #212, .T. ) ;
#317 = ORIENTED_EDGE ( 'NONE', *, *, #326, .F. ) ;
#318 = ORIENTED_EDGE ( 'NONE', *, *, #74, .T. ) ;
#319 = PERSON_AND_ORGANIZATION ( #209, #19 ) ;
#320 = EDGE_LOOP ( 'NONE', ( #250, #8, #146, #102, #428, #273, #160 ) ) ;
#321 = AXIS2_PLACEMENT_3D ( 'NONE', #89, #408, #176 ) ;
#322 = VERTEX_POINT ( 'NONE', #372 ) ;
#323 = APPROVAL_ROLE ( '' ) ;
#324 = ORIENTED_EDGE ( 'NONE', *, *, #270, .F. ) ;
#325 = VECTOR ( 'NONE', #368, 1000.000000000000000 ) ;
#326 = EDGE_CURVE ( 'NONE', #79, #66, #33, .T. ) ;
#327 = DIRECTION ( 'NONE',  ( -0.0000000000000000000, -0.0000000000000000000, -1.000000000000000000 ) ) ;
#328 = ORIENTED_EDGE ( 'NONE', *, *, #295, .T. ) ;
#329 = CC_DESIGN_PERSON_AND_ORGANIZATION_ASSIGNMENT ( #416, #11, ( #301 ) ) ;
#330 = APPROVAL_DATE_TIME ( #104, #118 ) ;
#331 = VERTEX_POINT ( 'NONE', #213 ) ;
#332 = DIRECTION ( 'NONE',  ( -7.885106708985487800E-017, 1.000000000000000000, -0.0000000000000000000 ) ) ;
#333 = CARTESIAN_POINT ( 'NONE',  ( 0.0000000000000000000, 0.0000000000000000000, 9.000000000000000000 ) ) ;
#334 = CC_DESIGN_PERSON_AND_ORGANIZATION_ASSIGNMENT ( #383, #429, ( #57 ) ) ;
#335 = DIRECTION ( 'NONE',  ( 0.0000000000000000000, 0.0000000000000000000, -1.000000000000000000 ) ) ;
#336 = ORIENTED_EDGE ( 'NONE', *, *, #350, .F. ) ;
#337 = CARTESIAN_POINT ( 'NONE',  ( 20.00000000000000000, -6.613092715395706500E-016, 9.000000000000000000 ) ) ;
#338 = ORIENTED_EDGE ( 'NONE', *, *, #134, .F. ) ;
#339 = ORIENTED_EDGE ( 'NONE', *, *, #465, .T. ) ;
#340 = DIRECTION ( 'NONE',  ( 0.0000000000000000000, 0.0000000000000000000, 1.000000000000000000 ) ) ;
#341 = COORDINATED_UNIVERSAL_TIME_OFFSET ( 6, 0, .BEHIND. ) ;
#342 = DIRECTION ( 'NONE',  ( 1.000000000000000000, -3.306546357697853100E-017, -0.0000000000000000000 ) ) ;
#343 = LINE ( 'NONE', #254, #169 ) ;
#344 = CARTESIAN_POINT ( 'NONE',  ( 0.0000000000000000000, 10.00000000000000900, 2.750000000000000000 ) ) ;
#345 = AXIS2_PLACEMENT_3D ( 'NONE', #347, #149, #107 ) ;
#346 = AXIS2_PLACEMENT_3D ( 'NONE', #284, #170, #86 ) ;
#347 = CARTESIAN_POINT ( 'NONE',  ( 6.000000000000001800, 6.000000000000000000, -9.000000000000000000 ) ) ;
#348 = CALENDAR_DATE ( 2021, 10, 9 ) ;
#349 = CIRCLE ( 'NONE', #411, 2.749999999999999100 ) ;
#350 = EDGE_CURVE ( 'NONE', #409, #138, #365, .T. ) ;
#351 = APPROVAL ( #277, 'UNSPECIFIED' ) ;
#352 = FACE_OUTER_BOUND ( 'NONE', #184, .T. ) ;
#353 = VERTEX_POINT ( 'NONE', #139 ) ;
#354 = CYLINDRICAL_SURFACE ( 'NONE', #358, 2.999999999999999100 ) ;
#355 = CARTESIAN_POINT ( 'NONE',  ( 10.00000000000000900, 2.999999999999999100, -2.749999999999998200 ) ) ;
#356 = ORIENTED_EDGE ( 'NONE', *, *, #237, .T. ) ;
#357 = CARTESIAN_POINT ( 'NONE',  ( 0.0000000000000000000, 0.0000000000000000000, 0.0000000000000000000 ) ) ;
#358 = AXIS2_PLACEMENT_3D ( 'NONE', #120, #462, #162 ) ;
#359 = APPLICATION_CONTEXT ( 'configuration controlled 3d designs of mechanical parts and assemblies' ) ;
#360 = CARTESIAN_POINT ( 'NONE',  ( 20.00000000000000000, 10.00000000000000900, -2.750000000000000000 ) ) ;
#361 = FACE_OUTER_BOUND ( 'NONE', #96, .T. ) ;
#362 = ORIENTED_EDGE ( 'NONE', *, *, #237, .F. ) ;
#363 = PLANE ( 'NONE',  #94 ) ;
#364 = CARTESIAN_POINT ( 'NONE',  ( -2.081899558550500300E-015, 17.00000000000000000, 9.000000000000000000 ) ) ;
#365 = CIRCLE ( 'NONE', #47, 2.749999999999998200 ) ;
#366 = CC_DESIGN_SECURITY_CLASSIFICATION ( #301, ( #271 ) ) ;
#367 = DIRECTION ( 'NONE',  ( -1.000000000000000000, 0.0000000000000000000, 0.0000000000000000000 ) ) ;
#368 = DIRECTION ( 'NONE',  ( 0.0000000000000000000, -1.000000000000000000, 0.0000000000000000000 ) ) ;
#369 = LOCAL_TIME ( 0, 6, 45.00000000000000000, #42 ) ;
#370 = CARTESIAN_POINT ( 'NONE',  ( 0.0000000000000000000, 0.0000000000000000000, 9.000000000000000000 ) ) ;
#371 = EDGE_LOOP ( 'NONE', ( #424, #195, #318, #6 ) ) ;
#372 = CARTESIAN_POINT ( 'NONE',  ( 20.00000000000000000, 0.0000000000000000000, 9.000000000000000000 ) ) ;
#373 = ADVANCED_FACE ( 'NONE', ( #238, #68 ), #97, .F. ) ;
#374 = CARTESIAN_POINT ( 'NONE',  ( 17.00000000000000000, 3.000000000000000400, 9.000000000000000000 ) ) ;
#375 = EDGE_CURVE ( 'NONE', #62, #29, #148, .T. ) ;
#376 = VECTOR ( 'NONE', #109, 1000.000000000000000 ) ;
#377 = DIRECTION ( 'NONE',  ( 1.000000000000000000, 1.182766006347823100E-016, -0.0000000000000000000 ) ) ;
#378 = ORIENTED_EDGE ( 'NONE', *, *, #433, .T. ) ;
#379 = DIRECTION ( 'NONE',  ( -0.0000000000000000000, -0.0000000000000000000, -1.000000000000000000 ) ) ;
#380 = CYLINDRICAL_SURFACE ( 'NONE', #123, 3.000000000000000900 ) ;
#381 = CARTESIAN_POINT ( 'NONE',  ( 6.000000000000000900, 2.999999999999999600, 9.000000000000000000 ) ) ;
#382 = CARTESIAN_POINT ( 'NONE',  ( 0.0000000000000000000, 0.0000000000000000000, -9.000000000000000000 ) ) ;
#383 = PERSON_AND_ORGANIZATION ( #209, #19 ) ;
#384 = DIRECTION ( 'NONE',  ( 1.577021341797097300E-016, -1.000000000000000000, 0.0000000000000000000 ) ) ;
#385 = AXIS2_PLACEMENT_3D ( 'NONE', #455, #230, #265 ) ;
#386 = VECTOR ( 'NONE', #437, 1000.000000000000000 ) ;
#387 =( GEOMETRIC_REPRESENTATION_CONTEXT ( 3 ) GLOBAL_UNCERTAINTY_ASSIGNED_CONTEXT ( ( #161 ) ) GLOBAL_UNIT_ASSIGNED_CONTEXT ( ( #13, #400, #164 ) ) REPRESENTATION_CONTEXT ( 'NONE', 'WORKASPACE' ) );
#388 = ORIENTED_EDGE ( 'NONE', *, *, #399, .T. ) ;
#389 = VECTOR ( 'NONE', #34, 1000.000000000000000 ) ;
#390 = CIRCLE ( 'NONE', #121, 3.000000000000000900 ) ;
#391 = AXIS2_PLACEMENT_3D ( 'NONE', #137, #172, #28 ) ;
#392 = PRODUCT_RELATED_PRODUCT_CATEGORY ( 'detail', '', ( #57 ) ) ;
#393 = MECHANICAL_CONTEXT ( 'NONE', #359, 'mechanical' ) ;
#394 = VECTOR ( 'NONE', #367, 1000.000000000000000 ) ;
#395 = PLANE ( 'NONE',  #314 ) ;
#396 = DIRECTION ( 'NONE',  ( 1.182766006347823100E-016, -1.000000000000000000, 0.0000000000000000000 ) ) ;
#397 = ORIENTED_EDGE ( 'NONE', *, *, #43, .T. ) ;
#398 = VECTOR ( 'NONE', #50, 1000.000000000000000 ) ;
#399 = EDGE_CURVE ( 'NONE', #10, #406, #401, .T. ) ;
#400 =( NAMED_UNIT ( * ) PLANE_ANGLE_UNIT ( ) SI_UNIT ( $, .RADIAN. ) );
#401 = CIRCLE ( 'NONE', #73, 2.999999999999999100 ) ;
#402 = DIRECTION ( 'NONE',  ( 1.000000000000000000, 0.0000000000000000000, 0.0000000000000000000 ) ) ;
#403 = PERSON_AND_ORGANIZATION ( #209, #19 ) ;
#404 = VERTEX_POINT ( 'NONE', #381 ) ;
#405 = DIRECTION ( 'NONE',  ( 0.0000000000000000000, 0.0000000000000000000, 1.000000000000000000 ) ) ;
#406 = VERTEX_POINT ( 'NONE', #144 ) ;
#407 = ORIENTED_EDGE ( 'NONE', *, *, #216, .F. ) ;
#408 = DIRECTION ( 'NONE',  ( 0.0000000000000000000, 0.0000000000000000000, 1.000000000000000000 ) ) ;
#409 = VERTEX_POINT ( 'NONE', #485 ) ;
#410 = CC_DESIGN_APPROVAL ( #118, ( #271 ) ) ;
#411 = AXIS2_PLACEMENT_3D ( 'NONE', #131, #332, #247 ) ;
#412 = VECTOR ( 'NONE', #450, 1000.000000000000000 ) ;
#413 = FACE_OUTER_BOUND ( 'NONE', #444, .T. ) ;
#414 = EDGE_LOOP ( 'NONE', ( #204, #202 ) ) ;
#415 = CARTESIAN_POINT ( 'NONE',  ( 17.00000000000000000, 0.0000000000000000000, -9.000000000000000000 ) ) ;
#416 = PERSON_AND_ORGANIZATION ( #209, #19 ) ;
#417 = ORIENTED_EDGE ( 'NONE', *, *, #88, .F. ) ;
#418 = DIRECTION ( 'NONE',  ( 1.000000000000000000, 7.885106708985487800E-017, 0.0000000000000000000 ) ) ;
#419 = CARTESIAN_POINT ( 'NONE',  ( 10.00000000000000900, 0.0000000000000000000, -2.749999999999998200 ) ) ;
#420 = AXIS2_PLACEMENT_3D ( 'NONE', #103, #377, #302 ) ;
#421 = ADVANCED_FACE ( 'NONE', ( #484 ), #40, .F. ) ;
#422 = PRODUCT_DEFINITION_SHAPE ( 'NONE', 'NONE',  #130 ) ;
#423 = ADVANCED_FACE ( 'NONE', ( #413 ), #380, .T. ) ;
#424 = ORIENTED_EDGE ( 'NONE', *, *, #37, .F. ) ;
#425 = LINE ( 'NONE', #473, #325 ) ;
#426 = ORIENTED_EDGE ( 'NONE', *, *, #326, .T. ) ;
#427 = PERSON_AND_ORGANIZATION ( #209, #19 ) ;
#428 = ORIENTED_EDGE ( 'NONE', *, *, #190, .F. ) ;
#429 = PERSON_AND_ORGANIZATION_ROLE ( 'design_owner' ) ;
#430 = APPLICATION_CONTEXT ( 'configuration controlled 3d designs of mechanical parts and assemblies' ) ;
#431 = LINE ( 'NONE', #177, #386 ) ;
#432 = EDGE_LOOP ( 'NONE', ( #9, #362, #324, #426 ) ) ;
#433 = EDGE_CURVE ( 'NONE', #105, #79, #157, .T. ) ;
#434 = ORIENTED_EDGE ( 'NONE', *, *, #300, .T. ) ;
#435 = DIRECTION ( 'NONE',  ( 1.000000000000000000, 0.0000000000000000000, 0.0000000000000000000 ) ) ;
#436 = VECTOR ( 'NONE', #186, 1000.000000000000000 ) ;
#437 = DIRECTION ( 'NONE',  ( 0.0000000000000000000, -1.000000000000000000, 0.0000000000000000000 ) ) ;
#438 = FACE_OUTER_BOUND ( 'NONE', #228, .T. ) ;
#439 = DIRECTION ( 'NONE',  ( 0.0000000000000000000, 0.0000000000000000000, 1.000000000000000000 ) ) ;
#440 = EDGE_CURVE ( 'NONE', #175, #210, #14, .T. ) ;
#441 = AXIS2_PLACEMENT_3D ( 'NONE', #24, #60, #335 ) ;
#442 = DIRECTION ( 'NONE',  ( 3.306546357697853100E-017, 1.000000000000000000, -0.0000000000000000000 ) ) ;
#443 = ADVANCED_FACE ( 'NONE', ( #56, #451 ), #283, .F. ) ;
#444 = EDGE_LOOP ( 'NONE', ( #167, #25, #38, #236 ) ) ;
#445 = CARTESIAN_POINT ( 'NONE',  ( 6.000000000000001800, 2.999999999999999600, 9.000000000000000000 ) ) ;
#446 = DIRECTION ( 'NONE',  ( -1.000000000000000000, -7.885106708985487800E-017, -0.0000000000000000000 ) ) ;
#447 = DIRECTION ( 'NONE',  ( 1.000000000000000000, 0.0000000000000000000, 0.0000000000000000000 ) ) ;
#448 = VECTOR ( 'NONE', #22, 1000.000000000000000 ) ;
#449 = ORIENTED_EDGE ( 'NONE', *, *, #243, .F. ) ;
#450 = DIRECTION ( 'NONE',  ( -1.000000000000000000, -7.885106708985487800E-017, -0.0000000000000000000 ) ) ;
#451 = FACE_BOUND ( 'NONE', #414, .T. ) ;
#452 = ADVANCED_FACE ( 'NONE', ( #274 ), #363, .F. ) ;
#453 = LOCAL_TIME ( 0, 6, 45.00000000000000000, #171 ) ;
#454 = ADVANCED_FACE ( 'NONE', ( #303, #316 ), #395, .F. ) ;
#455 = CARTESIAN_POINT ( 'NONE',  ( 10.00000000000000900, 2.999999999999999100, 0.0000000000000000000 ) ) ;
#456 = EDGE_CURVE ( 'NONE', #105, #210, #253, .T. ) ;
#457 = ORIENTED_EDGE ( 'NONE', *, *, #270, .T. ) ;
#458 = CC_DESIGN_PERSON_AND_ORGANIZATION_ASSIGNMENT ( #319, #124, ( #271 ) ) ;
#459 = CIRCLE ( 'NONE', #488, 2.750000000000000000 ) ;
#460 = ORIENTED_EDGE ( 'NONE', *, *, #216, .T. ) ;
#461 = VECTOR ( 'NONE', #129, 1000.000000000000000 ) ;
#462 = DIRECTION ( 'NONE',  ( -0.0000000000000000000, -0.0000000000000000000, -1.000000000000000000 ) ) ;
#463 = AXIS2_PLACEMENT_3D ( 'NONE', #55, #52, #402 ) ;
#464 = ORIENTED_EDGE ( 'NONE', *, *, #295, .F. ) ;
#465 = EDGE_CURVE ( 'NONE', #404, #206, #390, .T. ) ;
#466 = DIRECTION ( 'NONE',  ( -0.0000000000000000000, -0.0000000000000000000, -1.000000000000000000 ) ) ;
#467 = LINE ( 'NONE', #150, #376 ) ;
#468 = ORIENTED_EDGE ( 'NONE', *, *, #375, .T. ) ;
#469 = CARTESIAN_POINT ( 'NONE',  ( 0.0000000000000000000, 0.0000000000000000000, -9.000000000000000000 ) ) ;
#470 = VECTOR ( 'NONE', #143, 1000.000000000000000 ) ;
#471 = DIRECTION ( 'NONE',  ( 0.0000000000000000000, 0.0000000000000000000, 1.000000000000000000 ) ) ;
#472 = DIRECTION ( 'NONE',  ( -0.0000000000000000000, -0.0000000000000000000, -1.000000000000000000 ) ) ;
#473 = CARTESIAN_POINT ( 'NONE',  ( 10.00000000000000900, 20.00000000000000400, 2.749999999999998200 ) ) ;
#474 = VECTOR ( 'NONE', #379, 1000.000000000000000 ) ;
#475 = DIRECTION ( 'NONE',  ( 1.000000000000000000, 0.0000000000000000000, 0.0000000000000000000 ) ) ;
#476 = CARTESIAN_POINT ( 'NONE',  ( 2.999999999999998700, 17.00000000000000000, 9.000000000000000000 ) ) ;
#477 = DIRECTION ( 'NONE',  ( -1.000000000000000000, 0.0000000000000000000, 0.0000000000000000000 ) ) ;
#478 = VERTEX_POINT ( 'NONE', #355 ) ;
#479 = CC_DESIGN_PERSON_AND_ORGANIZATION_ASSIGNMENT ( #227, #241, ( #271 ) ) ;
#480 = CARTESIAN_POINT ( 'NONE',  ( 10.00000000000000900, 0.0000000000000000000, 0.0000000000000000000 ) ) ;
#481 = LINE ( 'NONE', #382, #389 ) ;
#482 = DIRECTION ( 'NONE',  ( 7.885106708985487800E-017, -1.000000000000000000, 0.0000000000000000000 ) ) ;
#483 = AXIS2_PLACEMENT_3D ( 'NONE', #364, #439, #208 ) ;
#484 = FACE_OUTER_BOUND ( 'NONE', #371, .T. ) ;
#485 = CARTESIAN_POINT ( 'NONE',  ( 10.00000000000000900, 0.0000000000000000000, 2.749999999999998200 ) ) ;
#486 = ADVANCED_FACE ( 'NONE', ( #3 ), #354, .T. ) ;
#487 = CALENDAR_DATE ( 2021, 10, 9 ) ;
#488 = AXIS2_PLACEMENT_3D ( 'NONE', #168, #435, #226 ) ;
#489 = CARTESIAN_POINT ( 'NONE',  ( -2.081899558550500300E-015, 17.00000000000000000, 9.000000000000000000 ) ) ;
#490 = CIRCLE ( 'NONE', #483, 3.000000000000000900 ) ;
ENDSEC;
END-ISO-10303-21;
