ISO-10303-21;
HEADER;
/* Generated by software containing ST-Developer
 * from STEP Tools, Inc. (www.steptools.com) 
 */

FILE_DESCRIPTION(
/* description */ (''),
/* implementation_level */ '2;1');

FILE_NAME(
/* name */ 'Sheet Metal Outer Mounting Bracket.step',
/* time_stamp */ '2024-08-16T10:58:10-04:00',
/* author */ (''),
/* organization */ (''),
/* preprocessor_version */ 'ST-DEVELOPER v20',
/* originating_system */ 'Autodesk Translation Framework v13.14.0.145',

/* authorisation */ '');

FILE_SCHEMA (('AUTOMOTIVE_DESIGN { 1 0 10303 214 3 1 1 }'));
ENDSEC;

DATA;
#10=MECHANICAL_DESIGN_GEOMETRIC_PRESENTATION_REPRESENTATION('',(#13),#916);
#11=SHAPE_REPRESENTATION_RELATIONSHIP('SRR','None',#926,#12);
#12=ADVANCED_BREP_SHAPE_REPRESENTATION('',(#14),#915);
#13=STYLED_ITEM('',(#935),#14);
#14=MANIFOLD_SOLID_BREP('Body1',#536);
#15=FACE_BOUND('',#73,.T.);
#16=FACE_BOUND('',#74,.T.);
#17=FACE_BOUND('',#78,.T.);
#18=FACE_BOUND('',#79,.T.);
#19=FACE_BOUND('',#80,.T.);
#20=FACE_BOUND('',#85,.T.);
#21=FACE_BOUND('',#86,.T.);
#22=FACE_BOUND('',#106,.T.);
#23=FACE_BOUND('',#107,.T.);
#24=FACE_BOUND('',#108,.T.);
#25=PLANE('',#553);
#26=PLANE('',#554);
#27=PLANE('',#561);
#28=PLANE('',#562);
#29=PLANE('',#571);
#30=PLANE('',#574);
#31=PLANE('',#577);
#32=PLANE('',#580);
#33=PLANE('',#594);
#34=PLANE('',#596);
#35=PLANE('',#597);
#36=PLANE('',#599);
#37=PLANE('',#600);
#38=PLANE('',#601);
#39=PLANE('',#602);
#40=PLANE('',#604);
#41=FACE_OUTER_BOUND('',#70,.T.);
#42=FACE_OUTER_BOUND('',#71,.T.);
#43=FACE_OUTER_BOUND('',#72,.T.);
#44=FACE_OUTER_BOUND('',#75,.T.);
#45=FACE_OUTER_BOUND('',#76,.T.);
#46=FACE_OUTER_BOUND('',#77,.T.);
#47=FACE_OUTER_BOUND('',#81,.T.);
#48=FACE_OUTER_BOUND('',#82,.T.);
#49=FACE_OUTER_BOUND('',#83,.T.);
#50=FACE_OUTER_BOUND('',#84,.T.);
#51=FACE_OUTER_BOUND('',#87,.T.);
#52=FACE_OUTER_BOUND('',#88,.T.);
#53=FACE_OUTER_BOUND('',#89,.T.);
#54=FACE_OUTER_BOUND('',#90,.T.);
#55=FACE_OUTER_BOUND('',#91,.T.);
#56=FACE_OUTER_BOUND('',#92,.T.);
#57=FACE_OUTER_BOUND('',#93,.T.);
#58=FACE_OUTER_BOUND('',#94,.T.);
#59=FACE_OUTER_BOUND('',#95,.T.);
#60=FACE_OUTER_BOUND('',#96,.T.);
#61=FACE_OUTER_BOUND('',#97,.T.);
#62=FACE_OUTER_BOUND('',#98,.T.);
#63=FACE_OUTER_BOUND('',#99,.T.);
#64=FACE_OUTER_BOUND('',#100,.T.);
#65=FACE_OUTER_BOUND('',#101,.T.);
#66=FACE_OUTER_BOUND('',#102,.T.);
#67=FACE_OUTER_BOUND('',#103,.T.);
#68=FACE_OUTER_BOUND('',#104,.T.);
#69=FACE_OUTER_BOUND('',#105,.T.);
#70=EDGE_LOOP('',(#348,#349,#350,#351));
#71=EDGE_LOOP('',(#352,#353,#354,#355));
#72=EDGE_LOOP('',(#356,#357,#358,#359,#360,#361));
#73=EDGE_LOOP('',(#362));
#74=EDGE_LOOP('',(#363));
#75=EDGE_LOOP('',(#364,#365,#366,#367));
#76=EDGE_LOOP('',(#368,#369,#370,#371));
#77=EDGE_LOOP('',(#372,#373,#374,#375,#376,#377,#378,#379,#380,#381,#382,
#383));
#78=EDGE_LOOP('',(#384));
#79=EDGE_LOOP('',(#385));
#80=EDGE_LOOP('',(#386));
#81=EDGE_LOOP('',(#387,#388,#389,#390));
#82=EDGE_LOOP('',(#391,#392,#393,#394));
#83=EDGE_LOOP('',(#395,#396,#397,#398));
#84=EDGE_LOOP('',(#399,#400,#401,#402,#403,#404));
#85=EDGE_LOOP('',(#405));
#86=EDGE_LOOP('',(#406));
#87=EDGE_LOOP('',(#407,#408,#409,#410));
#88=EDGE_LOOP('',(#411,#412,#413,#414));
#89=EDGE_LOOP('',(#415,#416,#417,#418));
#90=EDGE_LOOP('',(#419,#420,#421,#422));
#91=EDGE_LOOP('',(#423,#424,#425,#426));
#92=EDGE_LOOP('',(#427,#428,#429,#430));
#93=EDGE_LOOP('',(#431,#432,#433,#434));
#94=EDGE_LOOP('',(#435,#436,#437,#438));
#95=EDGE_LOOP('',(#439,#440,#441,#442));
#96=EDGE_LOOP('',(#443,#444,#445,#446));
#97=EDGE_LOOP('',(#447,#448,#449,#450));
#98=EDGE_LOOP('',(#451,#452,#453,#454));
#99=EDGE_LOOP('',(#455,#456,#457,#458));
#100=EDGE_LOOP('',(#459,#460,#461,#462));
#101=EDGE_LOOP('',(#463,#464,#465,#466));
#102=EDGE_LOOP('',(#467,#468,#469,#470));
#103=EDGE_LOOP('',(#471,#472,#473,#474));
#104=EDGE_LOOP('',(#475,#476,#477,#478));
#105=EDGE_LOOP('',(#479,#480,#481,#482,#483,#484,#485,#486,#487,#488,#489,
#490));
#106=EDGE_LOOP('',(#491));
#107=EDGE_LOOP('',(#492));
#108=EDGE_LOOP('',(#493));
#109=LINE('',#770,#156);
#110=LINE('',#773,#157);
#111=LINE('',#776,#158);
#112=LINE('',#778,#159);
#113=LINE('',#779,#160);
#114=LINE('',#782,#161);
#115=LINE('',#784,#162);
#116=LINE('',#786,#163);
#117=LINE('',#797,#164);
#118=LINE('',#800,#165);
#119=LINE('',#803,#166);
#120=LINE('',#805,#167);
#121=LINE('',#806,#168);
#122=LINE('',#809,#169);
#123=LINE('',#811,#170);
#124=LINE('',#813,#171);
#125=LINE('',#815,#172);
#126=LINE('',#817,#173);
#127=LINE('',#821,#174);
#128=LINE('',#825,#175);
#129=LINE('',#835,#176);
#130=LINE('',#839,#177);
#131=LINE('',#840,#178);
#132=LINE('',#844,#179);
#133=LINE('',#847,#180);
#134=LINE('',#849,#181);
#135=LINE('',#850,#182);
#136=LINE('',#856,#183);
#137=LINE('',#859,#184);
#138=LINE('',#862,#185);
#139=LINE('',#865,#186);
#140=LINE('',#866,#187);
#141=LINE('',#870,#188);
#142=LINE('',#872,#189);
#143=LINE('',#875,#190);
#144=LINE('',#879,#191);
#145=LINE('',#883,#192);
#146=LINE('',#889,#193);
#147=LINE('',#892,#194);
#148=LINE('',#894,#195);
#149=LINE('',#897,#196);
#150=LINE('',#898,#197);
#151=LINE('',#900,#198);
#152=LINE('',#903,#199);
#153=LINE('',#906,#200);
#154=LINE('',#907,#201);
#155=LINE('',#909,#202);
#156=VECTOR('',#611,0.393700787401575);
#157=VECTOR('',#614,0.393700787401575);
#158=VECTOR('',#617,0.393700787401575);
#159=VECTOR('',#618,0.393700787401575);
#160=VECTOR('',#619,0.393700787401575);
#161=VECTOR('',#622,0.393700787401575);
#162=VECTOR('',#623,0.393700787401575);
#163=VECTOR('',#624,0.393700787401575);
#164=VECTOR('',#635,0.393700787401575);
#165=VECTOR('',#638,0.393700787401575);
#166=VECTOR('',#641,0.393700787401575);
#167=VECTOR('',#642,0.393700787401575);
#168=VECTOR('',#643,0.393700787401575);
#169=VECTOR('',#646,0.393700787401575);
#170=VECTOR('',#647,0.393700787401575);
#171=VECTOR('',#648,0.393700787401575);
#172=VECTOR('',#649,0.393700787401575);
#173=VECTOR('',#650,0.393700787401575);
#174=VECTOR('',#653,0.393700787401575);
#175=VECTOR('',#656,0.393700787401575);
#176=VECTOR('',#667,0.393700787401575);
#177=VECTOR('',#672,0.393700787401575);
#178=VECTOR('',#673,0.393700787401575);
#179=VECTOR('',#678,0.393700787401575);
#180=VECTOR('',#681,0.393700787401575);
#181=VECTOR('',#682,0.393700787401575);
#182=VECTOR('',#683,0.393700787401575);
#183=VECTOR('',#690,0.393700787401575);
#184=VECTOR('',#693,0.393700787401575);
#185=VECTOR('',#696,0.393700787401575);
#186=VECTOR('',#699,0.393700787401575);
#187=VECTOR('',#700,0.393700787401575);
#188=VECTOR('',#707,0.1);
#189=VECTOR('',#710,0.1);
#190=VECTOR('',#713,0.1);
#191=VECTOR('',#718,0.1);
#192=VECTOR('',#723,0.1);
#193=VECTOR('',#730,0.393700787401575);
#194=VECTOR('',#735,0.393700787401575);
#195=VECTOR('',#738,0.393700787401575);
#196=VECTOR('',#741,0.393700787401575);
#197=VECTOR('',#742,0.393700787401575);
#198=VECTOR('',#745,0.393700787401575);
#199=VECTOR('',#750,0.393700787401575);
#200=VECTOR('',#753,0.393700787401575);
#201=VECTOR('',#754,0.393700787401575);
#202=VECTOR('',#757,0.393700787401575);
#203=CIRCLE('',#551,0.15);
#204=CIRCLE('',#552,0.15);
#205=CIRCLE('',#555,0.15);
#206=CIRCLE('',#556,0.1);
#207=CIRCLE('',#557,0.1);
#208=CIRCLE('',#559,0.15);
#209=CIRCLE('',#560,0.15);
#210=CIRCLE('',#563,0.15);
#211=CIRCLE('',#564,0.15);
#212=CIRCLE('',#565,0.15);
#213=CIRCLE('',#566,0.1);
#214=CIRCLE('',#567,0.1);
#215=CIRCLE('',#568,0.1);
#216=CIRCLE('',#570,0.15);
#217=CIRCLE('',#573,0.15);
#218=CIRCLE('',#575,0.1);
#219=CIRCLE('',#576,0.1);
#220=CIRCLE('',#579,0.15);
#221=CIRCLE('',#582,0.15);
#222=CIRCLE('',#586,0.1);
#223=CIRCLE('',#588,0.1);
#224=CIRCLE('',#590,0.1);
#225=CIRCLE('',#592,0.25);
#226=CIRCLE('',#593,0.25);
#227=CIRCLE('',#595,0.125);
#228=CIRCLE('',#598,0.125);
#229=VERTEX_POINT('',#766);
#230=VERTEX_POINT('',#767);
#231=VERTEX_POINT('',#769);
#232=VERTEX_POINT('',#771);
#233=VERTEX_POINT('',#775);
#234=VERTEX_POINT('',#777);
#235=VERTEX_POINT('',#781);
#236=VERTEX_POINT('',#783);
#237=VERTEX_POINT('',#785);
#238=VERTEX_POINT('',#788);
#239=VERTEX_POINT('',#790);
#240=VERTEX_POINT('',#793);
#241=VERTEX_POINT('',#794);
#242=VERTEX_POINT('',#796);
#243=VERTEX_POINT('',#798);
#244=VERTEX_POINT('',#802);
#245=VERTEX_POINT('',#804);
#246=VERTEX_POINT('',#808);
#247=VERTEX_POINT('',#810);
#248=VERTEX_POINT('',#812);
#249=VERTEX_POINT('',#814);
#250=VERTEX_POINT('',#816);
#251=VERTEX_POINT('',#818);
#252=VERTEX_POINT('',#820);
#253=VERTEX_POINT('',#822);
#254=VERTEX_POINT('',#824);
#255=VERTEX_POINT('',#827);
#256=VERTEX_POINT('',#829);
#257=VERTEX_POINT('',#831);
#258=VERTEX_POINT('',#834);
#259=VERTEX_POINT('',#838);
#260=VERTEX_POINT('',#842);
#261=VERTEX_POINT('',#846);
#262=VERTEX_POINT('',#848);
#263=VERTEX_POINT('',#851);
#264=VERTEX_POINT('',#853);
#265=VERTEX_POINT('',#858);
#266=VERTEX_POINT('',#860);
#267=VERTEX_POINT('',#864);
#268=VERTEX_POINT('',#874);
#269=VERTEX_POINT('',#878);
#270=VERTEX_POINT('',#882);
#271=VERTEX_POINT('',#886);
#272=VERTEX_POINT('',#888);
#273=VERTEX_POINT('',#896);
#274=VERTEX_POINT('',#905);
#275=EDGE_CURVE('',#229,#230,#203,.T.);
#276=EDGE_CURVE('',#230,#231,#109,.T.);
#277=EDGE_CURVE('',#231,#232,#204,.T.);
#278=EDGE_CURVE('',#232,#229,#110,.T.);
#279=EDGE_CURVE('',#232,#233,#111,.T.);
#280=EDGE_CURVE('',#234,#233,#112,.T.);
#281=EDGE_CURVE('',#229,#234,#113,.T.);
#282=EDGE_CURVE('',#235,#231,#114,.T.);
#283=EDGE_CURVE('',#235,#236,#115,.T.);
#284=EDGE_CURVE('',#237,#236,#116,.T.);
#285=EDGE_CURVE('',#233,#237,#205,.T.);
#286=EDGE_CURVE('',#238,#238,#206,.T.);
#287=EDGE_CURVE('',#239,#239,#207,.T.);
#288=EDGE_CURVE('',#240,#241,#208,.T.);
#289=EDGE_CURVE('',#241,#242,#117,.T.);
#290=EDGE_CURVE('',#242,#243,#209,.T.);
#291=EDGE_CURVE('',#243,#240,#118,.T.);
#292=EDGE_CURVE('',#244,#241,#119,.T.);
#293=EDGE_CURVE('',#245,#244,#120,.T.);
#294=EDGE_CURVE('',#242,#245,#121,.T.);
#295=EDGE_CURVE('',#240,#246,#122,.T.);
#296=EDGE_CURVE('',#246,#247,#123,.T.);
#297=EDGE_CURVE('',#248,#247,#124,.T.);
#298=EDGE_CURVE('',#248,#249,#125,.T.);
#299=EDGE_CURVE('',#249,#250,#126,.T.);
#300=EDGE_CURVE('',#251,#250,#210,.T.);
#301=EDGE_CURVE('',#251,#252,#127,.T.);
#302=EDGE_CURVE('',#253,#252,#211,.T.);
#303=EDGE_CURVE('',#253,#254,#128,.T.);
#304=EDGE_CURVE('',#244,#254,#212,.T.);
#305=EDGE_CURVE('',#255,#255,#213,.T.);
#306=EDGE_CURVE('',#256,#256,#214,.T.);
#307=EDGE_CURVE('',#257,#257,#215,.T.);
#308=EDGE_CURVE('',#254,#258,#129,.T.);
#309=EDGE_CURVE('',#258,#245,#216,.T.);
#310=EDGE_CURVE('',#259,#253,#130,.T.);
#311=EDGE_CURVE('',#258,#259,#131,.T.);
#312=EDGE_CURVE('',#260,#234,#217,.T.);
#313=EDGE_CURVE('',#237,#260,#132,.T.);
#314=EDGE_CURVE('',#260,#261,#133,.T.);
#315=EDGE_CURVE('',#261,#262,#134,.T.);
#316=EDGE_CURVE('',#262,#230,#135,.T.);
#317=EDGE_CURVE('',#263,#263,#218,.T.);
#318=EDGE_CURVE('',#264,#264,#219,.T.);
#319=EDGE_CURVE('',#236,#261,#136,.T.);
#320=EDGE_CURVE('',#250,#265,#137,.T.);
#321=EDGE_CURVE('',#265,#266,#220,.T.);
#322=EDGE_CURVE('',#266,#251,#138,.T.);
#323=EDGE_CURVE('',#267,#266,#139,.T.);
#324=EDGE_CURVE('',#252,#267,#140,.T.);
#325=EDGE_CURVE('',#267,#259,#221,.T.);
#326=EDGE_CURVE('',#264,#239,#141,.T.);
#327=EDGE_CURVE('',#263,#238,#142,.T.);
#328=EDGE_CURVE('',#255,#268,#143,.T.);
#329=EDGE_CURVE('',#268,#268,#222,.T.);
#330=EDGE_CURVE('',#256,#269,#144,.T.);
#331=EDGE_CURVE('',#269,#269,#223,.T.);
#332=EDGE_CURVE('',#257,#270,#145,.T.);
#333=EDGE_CURVE('',#270,#270,#224,.T.);
#334=EDGE_CURVE('',#271,#235,#225,.T.);
#335=EDGE_CURVE('',#271,#272,#146,.T.);
#336=EDGE_CURVE('',#236,#272,#226,.T.);
#337=EDGE_CURVE('',#262,#235,#147,.T.);
#338=EDGE_CURVE('',#247,#262,#227,.T.);
#339=EDGE_CURVE('',#247,#271,#148,.T.);
#340=EDGE_CURVE('',#273,#246,#149,.T.);
#341=EDGE_CURVE('',#273,#271,#150,.T.);
#342=EDGE_CURVE('',#272,#248,#151,.T.);
#343=EDGE_CURVE('',#261,#248,#228,.T.);
#344=EDGE_CURVE('',#273,#243,#152,.T.);
#345=EDGE_CURVE('',#274,#249,#153,.T.);
#346=EDGE_CURVE('',#265,#274,#154,.T.);
#347=EDGE_CURVE('',#272,#274,#155,.T.);
#348=ORIENTED_EDGE('',*,*,#275,.T.);
#349=ORIENTED_EDGE('',*,*,#276,.T.);
#350=ORIENTED_EDGE('',*,*,#277,.T.);
#351=ORIENTED_EDGE('',*,*,#278,.T.);
#352=ORIENTED_EDGE('',*,*,#278,.F.);
#353=ORIENTED_EDGE('',*,*,#279,.T.);
#354=ORIENTED_EDGE('',*,*,#280,.F.);
#355=ORIENTED_EDGE('',*,*,#281,.F.);
#356=ORIENTED_EDGE('',*,*,#277,.F.);
#357=ORIENTED_EDGE('',*,*,#282,.F.);
#358=ORIENTED_EDGE('',*,*,#283,.T.);
#359=ORIENTED_EDGE('',*,*,#284,.F.);
#360=ORIENTED_EDGE('',*,*,#285,.F.);
#361=ORIENTED_EDGE('',*,*,#279,.F.);
#362=ORIENTED_EDGE('',*,*,#286,.T.);
#363=ORIENTED_EDGE('',*,*,#287,.T.);
#364=ORIENTED_EDGE('',*,*,#288,.T.);
#365=ORIENTED_EDGE('',*,*,#289,.T.);
#366=ORIENTED_EDGE('',*,*,#290,.T.);
#367=ORIENTED_EDGE('',*,*,#291,.T.);
#368=ORIENTED_EDGE('',*,*,#289,.F.);
#369=ORIENTED_EDGE('',*,*,#292,.F.);
#370=ORIENTED_EDGE('',*,*,#293,.F.);
#371=ORIENTED_EDGE('',*,*,#294,.F.);
#372=ORIENTED_EDGE('',*,*,#288,.F.);
#373=ORIENTED_EDGE('',*,*,#295,.T.);
#374=ORIENTED_EDGE('',*,*,#296,.T.);
#375=ORIENTED_EDGE('',*,*,#297,.F.);
#376=ORIENTED_EDGE('',*,*,#298,.T.);
#377=ORIENTED_EDGE('',*,*,#299,.T.);
#378=ORIENTED_EDGE('',*,*,#300,.F.);
#379=ORIENTED_EDGE('',*,*,#301,.T.);
#380=ORIENTED_EDGE('',*,*,#302,.F.);
#381=ORIENTED_EDGE('',*,*,#303,.T.);
#382=ORIENTED_EDGE('',*,*,#304,.F.);
#383=ORIENTED_EDGE('',*,*,#292,.T.);
#384=ORIENTED_EDGE('',*,*,#305,.T.);
#385=ORIENTED_EDGE('',*,*,#306,.T.);
#386=ORIENTED_EDGE('',*,*,#307,.T.);
#387=ORIENTED_EDGE('',*,*,#304,.T.);
#388=ORIENTED_EDGE('',*,*,#308,.T.);
#389=ORIENTED_EDGE('',*,*,#309,.T.);
#390=ORIENTED_EDGE('',*,*,#293,.T.);
#391=ORIENTED_EDGE('',*,*,#308,.F.);
#392=ORIENTED_EDGE('',*,*,#303,.F.);
#393=ORIENTED_EDGE('',*,*,#310,.F.);
#394=ORIENTED_EDGE('',*,*,#311,.F.);
#395=ORIENTED_EDGE('',*,*,#312,.T.);
#396=ORIENTED_EDGE('',*,*,#280,.T.);
#397=ORIENTED_EDGE('',*,*,#285,.T.);
#398=ORIENTED_EDGE('',*,*,#313,.T.);
#399=ORIENTED_EDGE('',*,*,#275,.F.);
#400=ORIENTED_EDGE('',*,*,#281,.T.);
#401=ORIENTED_EDGE('',*,*,#312,.F.);
#402=ORIENTED_EDGE('',*,*,#314,.T.);
#403=ORIENTED_EDGE('',*,*,#315,.T.);
#404=ORIENTED_EDGE('',*,*,#316,.T.);
#405=ORIENTED_EDGE('',*,*,#317,.T.);
#406=ORIENTED_EDGE('',*,*,#318,.T.);
#407=ORIENTED_EDGE('',*,*,#313,.F.);
#408=ORIENTED_EDGE('',*,*,#284,.T.);
#409=ORIENTED_EDGE('',*,*,#319,.T.);
#410=ORIENTED_EDGE('',*,*,#314,.F.);
#411=ORIENTED_EDGE('',*,*,#300,.T.);
#412=ORIENTED_EDGE('',*,*,#320,.T.);
#413=ORIENTED_EDGE('',*,*,#321,.T.);
#414=ORIENTED_EDGE('',*,*,#322,.T.);
#415=ORIENTED_EDGE('',*,*,#322,.F.);
#416=ORIENTED_EDGE('',*,*,#323,.F.);
#417=ORIENTED_EDGE('',*,*,#324,.F.);
#418=ORIENTED_EDGE('',*,*,#301,.F.);
#419=ORIENTED_EDGE('',*,*,#302,.T.);
#420=ORIENTED_EDGE('',*,*,#324,.T.);
#421=ORIENTED_EDGE('',*,*,#325,.T.);
#422=ORIENTED_EDGE('',*,*,#310,.T.);
#423=ORIENTED_EDGE('',*,*,#318,.F.);
#424=ORIENTED_EDGE('',*,*,#326,.T.);
#425=ORIENTED_EDGE('',*,*,#287,.F.);
#426=ORIENTED_EDGE('',*,*,#326,.F.);
#427=ORIENTED_EDGE('',*,*,#317,.F.);
#428=ORIENTED_EDGE('',*,*,#327,.T.);
#429=ORIENTED_EDGE('',*,*,#286,.F.);
#430=ORIENTED_EDGE('',*,*,#327,.F.);
#431=ORIENTED_EDGE('',*,*,#305,.F.);
#432=ORIENTED_EDGE('',*,*,#328,.T.);
#433=ORIENTED_EDGE('',*,*,#329,.F.);
#434=ORIENTED_EDGE('',*,*,#328,.F.);
#435=ORIENTED_EDGE('',*,*,#306,.F.);
#436=ORIENTED_EDGE('',*,*,#330,.T.);
#437=ORIENTED_EDGE('',*,*,#331,.F.);
#438=ORIENTED_EDGE('',*,*,#330,.F.);
#439=ORIENTED_EDGE('',*,*,#307,.F.);
#440=ORIENTED_EDGE('',*,*,#332,.T.);
#441=ORIENTED_EDGE('',*,*,#333,.F.);
#442=ORIENTED_EDGE('',*,*,#332,.F.);
#443=ORIENTED_EDGE('',*,*,#283,.F.);
#444=ORIENTED_EDGE('',*,*,#334,.F.);
#445=ORIENTED_EDGE('',*,*,#335,.T.);
#446=ORIENTED_EDGE('',*,*,#336,.F.);
#447=ORIENTED_EDGE('',*,*,#337,.F.);
#448=ORIENTED_EDGE('',*,*,#338,.F.);
#449=ORIENTED_EDGE('',*,*,#339,.T.);
#450=ORIENTED_EDGE('',*,*,#334,.T.);
#451=ORIENTED_EDGE('',*,*,#339,.F.);
#452=ORIENTED_EDGE('',*,*,#296,.F.);
#453=ORIENTED_EDGE('',*,*,#340,.F.);
#454=ORIENTED_EDGE('',*,*,#341,.T.);
#455=ORIENTED_EDGE('',*,*,#319,.F.);
#456=ORIENTED_EDGE('',*,*,#336,.T.);
#457=ORIENTED_EDGE('',*,*,#342,.T.);
#458=ORIENTED_EDGE('',*,*,#343,.F.);
#459=ORIENTED_EDGE('',*,*,#291,.F.);
#460=ORIENTED_EDGE('',*,*,#344,.F.);
#461=ORIENTED_EDGE('',*,*,#340,.T.);
#462=ORIENTED_EDGE('',*,*,#295,.F.);
#463=ORIENTED_EDGE('',*,*,#320,.F.);
#464=ORIENTED_EDGE('',*,*,#299,.F.);
#465=ORIENTED_EDGE('',*,*,#345,.F.);
#466=ORIENTED_EDGE('',*,*,#346,.F.);
#467=ORIENTED_EDGE('',*,*,#342,.F.);
#468=ORIENTED_EDGE('',*,*,#347,.T.);
#469=ORIENTED_EDGE('',*,*,#345,.T.);
#470=ORIENTED_EDGE('',*,*,#298,.F.);
#471=ORIENTED_EDGE('',*,*,#276,.F.);
#472=ORIENTED_EDGE('',*,*,#316,.F.);
#473=ORIENTED_EDGE('',*,*,#337,.T.);
#474=ORIENTED_EDGE('',*,*,#282,.T.);
#475=ORIENTED_EDGE('',*,*,#315,.F.);
#476=ORIENTED_EDGE('',*,*,#343,.T.);
#477=ORIENTED_EDGE('',*,*,#297,.T.);
#478=ORIENTED_EDGE('',*,*,#338,.T.);
#479=ORIENTED_EDGE('',*,*,#290,.F.);
#480=ORIENTED_EDGE('',*,*,#294,.T.);
#481=ORIENTED_EDGE('',*,*,#309,.F.);
#482=ORIENTED_EDGE('',*,*,#311,.T.);
#483=ORIENTED_EDGE('',*,*,#325,.F.);
#484=ORIENTED_EDGE('',*,*,#323,.T.);
#485=ORIENTED_EDGE('',*,*,#321,.F.);
#486=ORIENTED_EDGE('',*,*,#346,.T.);
#487=ORIENTED_EDGE('',*,*,#347,.F.);
#488=ORIENTED_EDGE('',*,*,#335,.F.);
#489=ORIENTED_EDGE('',*,*,#341,.F.);
#490=ORIENTED_EDGE('',*,*,#344,.T.);
#491=ORIENTED_EDGE('',*,*,#329,.T.);
#492=ORIENTED_EDGE('',*,*,#331,.T.);
#493=ORIENTED_EDGE('',*,*,#333,.T.);
#494=CYLINDRICAL_SURFACE('',#550,0.15);
#495=CYLINDRICAL_SURFACE('',#558,0.15);
#496=CYLINDRICAL_SURFACE('',#569,0.15);
#497=CYLINDRICAL_SURFACE('',#572,0.15);
#498=CYLINDRICAL_SURFACE('',#578,0.15);
#499=CYLINDRICAL_SURFACE('',#581,0.15);
#500=CYLINDRICAL_SURFACE('',#583,0.1);
#501=CYLINDRICAL_SURFACE('',#584,0.1);
#502=CYLINDRICAL_SURFACE('',#585,0.1);
#503=CYLINDRICAL_SURFACE('',#587,0.1);
#504=CYLINDRICAL_SURFACE('',#589,0.1);
#505=CYLINDRICAL_SURFACE('',#591,0.25);
#506=CYLINDRICAL_SURFACE('',#603,0.125);
#507=ADVANCED_FACE('',(#41),#494,.T.);
#508=ADVANCED_FACE('',(#42),#25,.T.);
#509=ADVANCED_FACE('',(#43,#15,#16),#26,.F.);
#510=ADVANCED_FACE('',(#44),#495,.T.);
#511=ADVANCED_FACE('',(#45),#27,.T.);
#512=ADVANCED_FACE('',(#46,#17,#18,#19),#28,.T.);
#513=ADVANCED_FACE('',(#47),#496,.T.);
#514=ADVANCED_FACE('',(#48),#29,.T.);
#515=ADVANCED_FACE('',(#49),#497,.T.);
#516=ADVANCED_FACE('',(#50,#20,#21),#30,.T.);
#517=ADVANCED_FACE('',(#51),#31,.T.);
#518=ADVANCED_FACE('',(#52),#498,.T.);
#519=ADVANCED_FACE('',(#53),#32,.T.);
#520=ADVANCED_FACE('',(#54),#499,.T.);
#521=ADVANCED_FACE('',(#55),#500,.F.);
#522=ADVANCED_FACE('',(#56),#501,.F.);
#523=ADVANCED_FACE('',(#57),#502,.F.);
#524=ADVANCED_FACE('',(#58),#503,.F.);
#525=ADVANCED_FACE('',(#59),#504,.F.);
#526=ADVANCED_FACE('',(#60),#505,.T.);
#527=ADVANCED_FACE('',(#61),#33,.T.);
#528=ADVANCED_FACE('',(#62),#34,.T.);
#529=ADVANCED_FACE('',(#63),#35,.T.);
#530=ADVANCED_FACE('',(#64),#36,.T.);
#531=ADVANCED_FACE('',(#65),#37,.T.);
#532=ADVANCED_FACE('',(#66),#38,.T.);
#533=ADVANCED_FACE('',(#67),#39,.T.);
#534=ADVANCED_FACE('',(#68),#506,.F.);
#535=ADVANCED_FACE('',(#69,#22,#23,#24),#40,.F.);
#536=CLOSED_SHELL('',(#507,#508,#509,#510,#511,#512,#513,#514,#515,#516,
#517,#518,#519,#520,#521,#522,#523,#524,#525,#526,#527,#528,#529,#530,#531,
#532,#533,#534,#535));
#537=DERIVED_UNIT_ELEMENT(#539,1.);
#538=DERIVED_UNIT_ELEMENT(#920,-3.);
#539=(
MASS_UNIT()
NAMED_UNIT(*)
SI_UNIT(.KILO.,.GRAM.)
);
#540=DERIVED_UNIT((#537,#538));
#541=MEASURE_REPRESENTATION_ITEM('density measure',
POSITIVE_RATIO_MEASURE(7850.),#540);
#542=PROPERTY_DEFINITION_REPRESENTATION(#547,#544);
#543=PROPERTY_DEFINITION_REPRESENTATION(#548,#545);
#544=REPRESENTATION('material name',(#546),#915);
#545=REPRESENTATION('density',(#541),#915);
#546=DESCRIPTIVE_REPRESENTATION_ITEM('Steel','Steel');
#547=PROPERTY_DEFINITION('material property','material name',#928);
#548=PROPERTY_DEFINITION('material property','density of part',#928);
#549=AXIS2_PLACEMENT_3D('',#764,#605,#606);
#550=AXIS2_PLACEMENT_3D('',#765,#607,#608);
#551=AXIS2_PLACEMENT_3D('',#768,#609,#610);
#552=AXIS2_PLACEMENT_3D('',#772,#612,#613);
#553=AXIS2_PLACEMENT_3D('',#774,#615,#616);
#554=AXIS2_PLACEMENT_3D('',#780,#620,#621);
#555=AXIS2_PLACEMENT_3D('',#787,#625,#626);
#556=AXIS2_PLACEMENT_3D('',#789,#627,#628);
#557=AXIS2_PLACEMENT_3D('',#791,#629,#630);
#558=AXIS2_PLACEMENT_3D('',#792,#631,#632);
#559=AXIS2_PLACEMENT_3D('',#795,#633,#634);
#560=AXIS2_PLACEMENT_3D('',#799,#636,#637);
#561=AXIS2_PLACEMENT_3D('',#801,#639,#640);
#562=AXIS2_PLACEMENT_3D('',#807,#644,#645);
#563=AXIS2_PLACEMENT_3D('',#819,#651,#652);
#564=AXIS2_PLACEMENT_3D('',#823,#654,#655);
#565=AXIS2_PLACEMENT_3D('',#826,#657,#658);
#566=AXIS2_PLACEMENT_3D('',#828,#659,#660);
#567=AXIS2_PLACEMENT_3D('',#830,#661,#662);
#568=AXIS2_PLACEMENT_3D('',#832,#663,#664);
#569=AXIS2_PLACEMENT_3D('',#833,#665,#666);
#570=AXIS2_PLACEMENT_3D('',#836,#668,#669);
#571=AXIS2_PLACEMENT_3D('',#837,#670,#671);
#572=AXIS2_PLACEMENT_3D('',#841,#674,#675);
#573=AXIS2_PLACEMENT_3D('',#843,#676,#677);
#574=AXIS2_PLACEMENT_3D('',#845,#679,#680);
#575=AXIS2_PLACEMENT_3D('',#852,#684,#685);
#576=AXIS2_PLACEMENT_3D('',#854,#686,#687);
#577=AXIS2_PLACEMENT_3D('',#855,#688,#689);
#578=AXIS2_PLACEMENT_3D('',#857,#691,#692);
#579=AXIS2_PLACEMENT_3D('',#861,#694,#695);
#580=AXIS2_PLACEMENT_3D('',#863,#697,#698);
#581=AXIS2_PLACEMENT_3D('',#867,#701,#702);
#582=AXIS2_PLACEMENT_3D('',#868,#703,#704);
#583=AXIS2_PLACEMENT_3D('',#869,#705,#706);
#584=AXIS2_PLACEMENT_3D('',#871,#708,#709);
#585=AXIS2_PLACEMENT_3D('',#873,#711,#712);
#586=AXIS2_PLACEMENT_3D('',#876,#714,#715);
#587=AXIS2_PLACEMENT_3D('',#877,#716,#717);
#588=AXIS2_PLACEMENT_3D('',#880,#719,#720);
#589=AXIS2_PLACEMENT_3D('',#881,#721,#722);
#590=AXIS2_PLACEMENT_3D('',#884,#724,#725);
#591=AXIS2_PLACEMENT_3D('',#885,#726,#727);
#592=AXIS2_PLACEMENT_3D('',#887,#728,#729);
#593=AXIS2_PLACEMENT_3D('',#890,#731,#732);
#594=AXIS2_PLACEMENT_3D('',#891,#733,#734);
#595=AXIS2_PLACEMENT_3D('',#893,#736,#737);
#596=AXIS2_PLACEMENT_3D('',#895,#739,#740);
#597=AXIS2_PLACEMENT_3D('',#899,#743,#744);
#598=AXIS2_PLACEMENT_3D('',#901,#746,#747);
#599=AXIS2_PLACEMENT_3D('',#902,#748,#749);
#600=AXIS2_PLACEMENT_3D('',#904,#751,#752);
#601=AXIS2_PLACEMENT_3D('',#908,#755,#756);
#602=AXIS2_PLACEMENT_3D('',#910,#758,#759);
#603=AXIS2_PLACEMENT_3D('',#911,#760,#761);
#604=AXIS2_PLACEMENT_3D('',#912,#762,#763);
#605=DIRECTION('axis',(0.,0.,1.));
#606=DIRECTION('refdir',(1.,0.,0.));
#607=DIRECTION('center_axis',(0.,-0.707106781186547,0.707106781186548));
#608=DIRECTION('ref_axis',(0.707106781186548,0.5,0.499999999999999));
#609=DIRECTION('center_axis',(0.,0.707106781186547,-0.707106781186548));
#610=DIRECTION('ref_axis',(0.707106781186548,0.5,0.499999999999999));
#611=DIRECTION('',(0.,0.707106781186547,-0.707106781186548));
#612=DIRECTION('center_axis',(0.,-0.707106781186547,0.707106781186548));
#613=DIRECTION('ref_axis',(0.707106781186548,0.5,0.499999999999999));
#614=DIRECTION('',(0.,-0.707106781186547,0.707106781186548));
#615=DIRECTION('center_axis',(0.,0.707106781186548,0.707106781186547));
#616=DIRECTION('ref_axis',(-1.,0.,0.));
#617=DIRECTION('',(-1.,0.,0.));
#618=DIRECTION('',(0.,0.707106781186547,-0.707106781186548));
#619=DIRECTION('',(-1.,0.,0.));
#620=DIRECTION('center_axis',(0.,-0.707106781186547,0.707106781186548));
#621=DIRECTION('ref_axis',(1.,0.,0.));
#622=DIRECTION('',(0.,0.707106781186548,0.707106781186547));
#623=DIRECTION('',(-1.,0.,0.));
#624=DIRECTION('',(0.,-0.707106781186548,-0.707106781186547));
#625=DIRECTION('center_axis',(0.,-0.707106781186547,0.707106781186548));
#626=DIRECTION('ref_axis',(-0.707106781186547,0.5,0.5));
#627=DIRECTION('center_axis',(0.,-0.707106781186547,0.707106781186548));
#628=DIRECTION('ref_axis',(1.,0.,0.));
#629=DIRECTION('center_axis',(0.,-0.707106781186547,0.707106781186548));
#630=DIRECTION('ref_axis',(1.,0.,0.));
#631=DIRECTION('center_axis',(0.,0.,1.));
#632=DIRECTION('ref_axis',(0.707106781186547,0.707106781186547,0.));
#633=DIRECTION('center_axis',(0.,0.,-1.));
#634=DIRECTION('ref_axis',(0.707106781186547,0.707106781186547,0.));
#635=DIRECTION('',(0.,0.,-1.));
#636=DIRECTION('center_axis',(0.,0.,1.));
#637=DIRECTION('ref_axis',(0.707106781186547,0.707106781186547,0.));
#638=DIRECTION('',(0.,0.,1.));
#639=DIRECTION('center_axis',(1.,0.,0.));
#640=DIRECTION('ref_axis',(0.,1.,0.));
#641=DIRECTION('',(0.,1.,0.));
#642=DIRECTION('',(0.,0.,1.));
#643=DIRECTION('',(0.,-1.,0.));
#644=DIRECTION('center_axis',(0.,0.,1.));
#645=DIRECTION('ref_axis',(1.,0.,0.));
#646=DIRECTION('',(-1.,0.,0.));
#647=DIRECTION('',(0.,1.,0.));
#648=DIRECTION('',(1.,0.,0.));
#649=DIRECTION('',(0.,-1.,0.));
#650=DIRECTION('',(-1.,0.,0.));
#651=DIRECTION('center_axis',(0.,0.,-1.));
#652=DIRECTION('ref_axis',(-0.707106781186547,0.707106781186547,0.));
#653=DIRECTION('',(0.,-1.,0.));
#654=DIRECTION('center_axis',(0.,0.,-1.));
#655=DIRECTION('ref_axis',(-0.707106781186548,-0.707106781186547,0.));
#656=DIRECTION('',(1.,0.,0.));
#657=DIRECTION('center_axis',(0.,0.,-1.));
#658=DIRECTION('ref_axis',(0.707106781186548,-0.707106781186547,0.));
#659=DIRECTION('center_axis',(0.,0.,-1.));
#660=DIRECTION('ref_axis',(-1.,0.,0.));
#661=DIRECTION('center_axis',(0.,0.,-1.));
#662=DIRECTION('ref_axis',(-1.,0.,0.));
#663=DIRECTION('center_axis',(0.,0.,-1.));
#664=DIRECTION('ref_axis',(-1.,0.,0.));
#665=DIRECTION('center_axis',(0.,0.,1.));
#666=DIRECTION('ref_axis',(0.707106781186548,-0.707106781186547,0.));
#667=DIRECTION('',(0.,0.,-1.));
#668=DIRECTION('center_axis',(0.,0.,1.));
#669=DIRECTION('ref_axis',(0.707106781186548,-0.707106781186547,0.));
#670=DIRECTION('center_axis',(0.,-1.,0.));
#671=DIRECTION('ref_axis',(1.,0.,0.));
#672=DIRECTION('',(0.,0.,1.));
#673=DIRECTION('',(-1.,0.,0.));
#674=DIRECTION('center_axis',(0.,-0.707106781186547,0.707106781186548));
#675=DIRECTION('ref_axis',(-0.707106781186547,0.5,0.5));
#676=DIRECTION('center_axis',(0.,0.707106781186547,-0.707106781186548));
#677=DIRECTION('ref_axis',(-0.707106781186547,0.5,0.5));
#678=DIRECTION('',(0.,-0.707106781186547,0.707106781186548));
#679=DIRECTION('center_axis',(0.,-0.707106781186547,0.707106781186548));
#680=DIRECTION('ref_axis',(1.,0.,0.));
#681=DIRECTION('',(0.,-0.707106781186548,-0.707106781186547));
#682=DIRECTION('',(1.,0.,0.));
#683=DIRECTION('',(0.,0.707106781186548,0.707106781186547));
#684=DIRECTION('center_axis',(0.,0.707106781186547,-0.707106781186548));
#685=DIRECTION('ref_axis',(1.,0.,0.));
#686=DIRECTION('center_axis',(0.,0.707106781186547,-0.707106781186548));
#687=DIRECTION('ref_axis',(1.,0.,0.));
#688=DIRECTION('center_axis',(-1.,0.,0.));
#689=DIRECTION('ref_axis',(0.,-0.707106781186548,-0.707106781186547));
#690=DIRECTION('',(0.,-0.707106781186547,0.707106781186548));
#691=DIRECTION('center_axis',(0.,0.,1.));
#692=DIRECTION('ref_axis',(-0.707106781186547,0.707106781186547,0.));
#693=DIRECTION('',(0.,0.,-1.));
#694=DIRECTION('center_axis',(0.,0.,1.));
#695=DIRECTION('ref_axis',(-0.707106781186547,0.707106781186547,0.));
#696=DIRECTION('',(0.,0.,1.));
#697=DIRECTION('center_axis',(-1.,0.,0.));
#698=DIRECTION('ref_axis',(0.,-1.,0.));
#699=DIRECTION('',(0.,1.,0.));
#700=DIRECTION('',(0.,0.,-1.));
#701=DIRECTION('center_axis',(0.,0.,1.));
#702=DIRECTION('ref_axis',(-0.707106781186548,-0.707106781186547,0.));
#703=DIRECTION('center_axis',(0.,0.,1.));
#704=DIRECTION('ref_axis',(-0.707106781186548,-0.707106781186547,0.));
#705=DIRECTION('center_axis',(0.,0.707106781186547,-0.707106781186549));
#706=DIRECTION('ref_axis',(1.,0.,0.));
#707=DIRECTION('',(0.,0.707106781186547,-0.707106781186548));
#708=DIRECTION('center_axis',(0.,0.707106781186547,-0.707106781186548));
#709=DIRECTION('ref_axis',(1.,0.,0.));
#710=DIRECTION('',(0.,0.707106781186547,-0.707106781186548));
#711=DIRECTION('center_axis',(0.,0.,-1.));
#712=DIRECTION('ref_axis',(-1.,0.,0.));
#713=DIRECTION('',(0.,0.,-1.));
#714=DIRECTION('center_axis',(0.,0.,1.));
#715=DIRECTION('ref_axis',(-1.,0.,0.));
#716=DIRECTION('center_axis',(0.,0.,-1.));
#717=DIRECTION('ref_axis',(-1.,0.,0.));
#718=DIRECTION('',(0.,0.,-1.));
#719=DIRECTION('center_axis',(0.,0.,1.));
#720=DIRECTION('ref_axis',(-1.,0.,0.));
#721=DIRECTION('center_axis',(0.,0.,-1.));
#722=DIRECTION('ref_axis',(-1.,0.,0.));
#723=DIRECTION('',(0.,0.,-1.));
#724=DIRECTION('center_axis',(0.,0.,1.));
#725=DIRECTION('ref_axis',(-1.,0.,0.));
#726=DIRECTION('center_axis',(1.,0.,0.));
#727=DIRECTION('ref_axis',(0.,0.,-1.));
#728=DIRECTION('center_axis',(1.,0.,0.));
#729=DIRECTION('ref_axis',(0.,0.,-1.));
#730=DIRECTION('',(-1.,0.,0.));
#731=DIRECTION('center_axis',(-1.,0.,0.));
#732=DIRECTION('ref_axis',(0.,0.707106781186547,-0.707106781186548));
#733=DIRECTION('center_axis',(1.,0.,0.));
#734=DIRECTION('ref_axis',(0.,0.,-1.));
#735=DIRECTION('',(0.,0.707106781186547,-0.707106781186548));
#736=DIRECTION('center_axis',(1.,0.,0.));
#737=DIRECTION('ref_axis',(0.,0.,-1.));
#738=DIRECTION('',(0.,0.,-1.));
#739=DIRECTION('center_axis',(1.,0.,0.));
#740=DIRECTION('ref_axis',(0.,1.,0.));
#741=DIRECTION('',(0.,0.,1.));
#742=DIRECTION('',(0.,1.,0.));
#743=DIRECTION('center_axis',(-1.,0.,0.));
#744=DIRECTION('ref_axis',(0.,0.,1.));
#745=DIRECTION('',(0.,0.,1.));
#746=DIRECTION('center_axis',(-1.,0.,0.));
#747=DIRECTION('ref_axis',(0.,0.707106781186546,-0.707106781186549));
#748=DIRECTION('center_axis',(0.,1.,0.));
#749=DIRECTION('ref_axis',(-1.,0.,0.));
#750=DIRECTION('',(1.,0.,0.));
#751=DIRECTION('center_axis',(0.,1.,0.));
#752=DIRECTION('ref_axis',(-1.,0.,0.));
#753=DIRECTION('',(0.,0.,1.));
#754=DIRECTION('',(1.,0.,0.));
#755=DIRECTION('center_axis',(-1.,0.,0.));
#756=DIRECTION('ref_axis',(0.,-1.,0.));
#757=DIRECTION('',(0.,-1.,0.));
#758=DIRECTION('center_axis',(1.,0.,0.));
#759=DIRECTION('ref_axis',(0.,0.707106781186548,0.707106781186547));
#760=DIRECTION('center_axis',(1.,0.,0.));
#761=DIRECTION('ref_axis',(0.,0.,-1.));
#762=DIRECTION('center_axis',(0.,0.,1.));
#763=DIRECTION('ref_axis',(1.,0.,0.));
#764=CARTESIAN_POINT('',(0.,0.,0.));
#765=CARTESIAN_POINT('Origin',(0.550000022340008,3.34195415479359,0.921700764200315));
#766=CARTESIAN_POINT('',(0.550000022340008,3.35963182432325,1.11615512902662));
#767=CARTESIAN_POINT('',(0.700000022340009,3.25356580714527,1.01008911184863));
#768=CARTESIAN_POINT('Origin',(0.550000022340008,3.25356580714527,1.01008911184863));
#769=CARTESIAN_POINT('',(0.700000022340009,3.34195415479359,0.921700764200316));
#770=CARTESIAN_POINT('',(0.700000022340009,3.34195415479359,0.921700764200315));
#771=CARTESIAN_POINT('',(0.550000022340008,3.44802017197157,1.0277667813783));
#772=CARTESIAN_POINT('Origin',(0.550000022340008,3.34195415479359,0.921700764200315));
#773=CARTESIAN_POINT('',(0.550000022340008,3.44802017197157,1.0277667813783));
#774=CARTESIAN_POINT('Origin',(0.700000022340009,3.44802017197157,1.0277667813783));
#775=CARTESIAN_POINT('',(-0.549999977659991,3.44802017197157,1.0277667813783));
#776=CARTESIAN_POINT('',(0.700000022340009,3.44802017197157,1.0277667813783));
#777=CARTESIAN_POINT('',(-0.549999977659991,3.35963182432325,1.11615512902662));
#778=CARTESIAN_POINT('',(-0.549999977659991,3.44802017197157,1.0277667813783));
#779=CARTESIAN_POINT('',(0.700000022340009,3.35963182432325,1.11615512902662));
#780=CARTESIAN_POINT('Origin',(0.,2.10168886059238,-0.318564530000888));
#781=CARTESIAN_POINT('',(0.700000022340009,2.49347669529664,0.0732233047033631));
#782=CARTESIAN_POINT('',(0.700000022340009,1.74530707446791,-0.674946316125364));
#783=CARTESIAN_POINT('',(-0.699999977659991,2.49347669529664,0.0732233047033631));
#784=CARTESIAN_POINT('',(0.,2.49347669529664,0.0732233047033631));
#785=CARTESIAN_POINT('',(-0.699999977659991,3.34195415479359,0.921700764200315));
#786=CARTESIAN_POINT('',(-0.699999977659991,3.44802017197157,1.0277667813783));
#787=CARTESIAN_POINT('Origin',(-0.549999977659991,3.34195415479359,0.921700764200315));
#788=CARTESIAN_POINT('',(-0.1,2.76576159811027,0.345508207516996));
#789=CARTESIAN_POINT('Origin',(0.,2.76576159811027,0.345508207516996));
#790=CARTESIAN_POINT('',(-0.1,3.1900256668222,0.769772276228923));
#791=CARTESIAN_POINT('Origin',(0.,3.1900256668222,0.769772276228923));
#792=CARTESIAN_POINT('Origin',(1.85,1.25,0.));
#793=CARTESIAN_POINT('',(1.85,1.4,0.125));
#794=CARTESIAN_POINT('',(2.,1.25,0.125));
#795=CARTESIAN_POINT('Origin',(1.85,1.25,0.125));
#796=CARTESIAN_POINT('',(2.,1.25,0.));
#797=CARTESIAN_POINT('',(2.,1.25,0.));
#798=CARTESIAN_POINT('',(1.85,1.4,0.));
#799=CARTESIAN_POINT('Origin',(1.85,1.25,0.));
#800=CARTESIAN_POINT('',(1.85,1.4,0.));
#801=CARTESIAN_POINT('Origin',(2.,0.,0.));
#802=CARTESIAN_POINT('',(2.,0.15,0.125));
#803=CARTESIAN_POINT('',(2.,1.4,0.125));
#804=CARTESIAN_POINT('',(2.,0.15,0.));
#805=CARTESIAN_POINT('',(2.,0.15,0.));
#806=CARTESIAN_POINT('',(2.,1.4,0.));
#807=CARTESIAN_POINT('Origin',(0.,1.904,0.125));
#808=CARTESIAN_POINT('',(0.700000022340009,1.40000004468002,0.125));
#809=CARTESIAN_POINT('',(-2.,1.4,0.125));
#810=CARTESIAN_POINT('',(0.700000022340009,2.3167,0.125));
#811=CARTESIAN_POINT('',(0.700000022340009,1.40000004468002,0.125));
#812=CARTESIAN_POINT('',(-0.699999977659991,2.3167,0.125));
#813=CARTESIAN_POINT('',(0.,2.3167,0.125));
#814=CARTESIAN_POINT('',(-0.699999977659991,1.4,0.125));
#815=CARTESIAN_POINT('',(-0.699999977659991,3.808,0.125));
#816=CARTESIAN_POINT('',(-1.85,1.4,0.125));
#817=CARTESIAN_POINT('',(-2.,1.4,0.125));
#818=CARTESIAN_POINT('',(-2.,1.25,0.125));
#819=CARTESIAN_POINT('Origin',(-1.85,1.25,0.125));
#820=CARTESIAN_POINT('',(-2.,0.15,0.125));
#821=CARTESIAN_POINT('',(-2.,0.,0.125));
#822=CARTESIAN_POINT('',(-1.85,0.,0.125));
#823=CARTESIAN_POINT('Origin',(-1.85,0.15,0.125));
#824=CARTESIAN_POINT('',(1.85,0.,0.125));
#825=CARTESIAN_POINT('',(2.,0.,0.125));
#826=CARTESIAN_POINT('Origin',(1.85,0.15,0.125));
#827=CARTESIAN_POINT('',(0.1,0.700000022340009,0.125));
#828=CARTESIAN_POINT('Origin',(0.,0.700000022340009,0.125));
#829=CARTESIAN_POINT('',(1.4,0.700000022340009,0.125));
#830=CARTESIAN_POINT('Origin',(1.3,0.700000022340009,0.125));
#831=CARTESIAN_POINT('',(-1.2,0.700000022340009,0.125));
#832=CARTESIAN_POINT('Origin',(-1.3,0.700000022340009,0.125));
#833=CARTESIAN_POINT('Origin',(1.85,0.15,0.));
#834=CARTESIAN_POINT('',(1.85,0.,0.));
#835=CARTESIAN_POINT('',(1.85,0.,0.));
#836=CARTESIAN_POINT('Origin',(1.85,0.15,0.));
#837=CARTESIAN_POINT('Origin',(-2.,0.,0.));
#838=CARTESIAN_POINT('',(-1.85,0.,0.));
#839=CARTESIAN_POINT('',(-1.85,0.,0.));
#840=CARTESIAN_POINT('',(2.,0.,0.));
#841=CARTESIAN_POINT('Origin',(-0.549999977659991,3.34195415479359,0.921700764200315));
#842=CARTESIAN_POINT('',(-0.699999977659991,3.25356580714527,1.01008911184863));
#843=CARTESIAN_POINT('Origin',(-0.549999977659991,3.25356580714527,1.01008911184863));
#844=CARTESIAN_POINT('',(-0.699999977659991,3.34195415479359,0.921700764200315));
#845=CARTESIAN_POINT('Origin',(0.,2.01330051294407,-0.230176182352569));
#846=CARTESIAN_POINT('',(-0.699999977659991,2.40508834764832,0.161611652351682));
#847=CARTESIAN_POINT('',(-0.699999977659991,3.35963182432325,1.11615512902662));
#848=CARTESIAN_POINT('',(0.700000022340009,2.40508834764832,0.161611652351682));
#849=CARTESIAN_POINT('',(0.,2.40508834764832,0.161611652351682));
#850=CARTESIAN_POINT('',(0.700000022340009,1.65691872681959,-0.586557968477046));
#851=CARTESIAN_POINT('',(-0.1,2.67737325046195,0.433896555165314));
#852=CARTESIAN_POINT('Origin',(0.,2.67737325046195,0.433896555165314));
#853=CARTESIAN_POINT('',(-0.1,3.10163731917388,0.858160623877241));
#854=CARTESIAN_POINT('Origin',(0.,3.10163731917388,0.858160623877241));
#855=CARTESIAN_POINT('Origin',(-0.699999977659991,3.44802017197157,1.0277667813783));
#856=CARTESIAN_POINT('',(-0.699999977659991,2.49347669529664,0.0732233047033631));
#857=CARTESIAN_POINT('Origin',(-1.85,1.25,0.));
#858=CARTESIAN_POINT('',(-1.85,1.4,0.));
#859=CARTESIAN_POINT('',(-1.85,1.4,0.));
#860=CARTESIAN_POINT('',(-2.,1.25,0.));
#861=CARTESIAN_POINT('Origin',(-1.85,1.25,0.));
#862=CARTESIAN_POINT('',(-2.,1.25,0.));
#863=CARTESIAN_POINT('Origin',(-2.,1.4,0.));
#864=CARTESIAN_POINT('',(-2.,0.15,0.));
#865=CARTESIAN_POINT('',(-2.,0.,0.));
#866=CARTESIAN_POINT('',(-2.,0.15,0.));
#867=CARTESIAN_POINT('Origin',(-1.85,0.15,0.));
#868=CARTESIAN_POINT('Origin',(-1.85,0.15,0.));
#869=CARTESIAN_POINT('Origin',(0.,3.10163731917388,0.858160623877241));
#870=CARTESIAN_POINT('',(-0.1,3.10163731917388,0.858160623877241));
#871=CARTESIAN_POINT('Origin',(0.,2.67737325046195,0.433896555165314));
#872=CARTESIAN_POINT('',(-0.1,2.67737325046195,0.433896555165314));
#873=CARTESIAN_POINT('Origin',(0.,0.700000022340009,0.125));
#874=CARTESIAN_POINT('',(0.1,0.700000022340009,0.));
#875=CARTESIAN_POINT('',(0.1,0.700000022340009,0.125));
#876=CARTESIAN_POINT('Origin',(0.,0.700000022340009,0.));
#877=CARTESIAN_POINT('Origin',(1.3,0.700000022340009,0.125));
#878=CARTESIAN_POINT('',(1.4,0.700000022340009,0.));
#879=CARTESIAN_POINT('',(1.4,0.700000022340009,0.125));
#880=CARTESIAN_POINT('Origin',(1.3,0.700000022340009,0.));
#881=CARTESIAN_POINT('Origin',(-1.3,0.700000022340009,0.125));
#882=CARTESIAN_POINT('',(-1.2,0.700000022340009,0.));
#883=CARTESIAN_POINT('',(-1.2,0.700000022340009,0.125));
#884=CARTESIAN_POINT('Origin',(-1.3,0.700000022340009,0.));
#885=CARTESIAN_POINT('Origin',(0.250000007978574,2.3167,0.25));
#886=CARTESIAN_POINT('',(0.700000022340009,2.3167,0.));
#887=CARTESIAN_POINT('Origin',(0.700000022340009,2.3167,0.25));
#888=CARTESIAN_POINT('',(-0.699999977659991,2.3167,0.));
#889=CARTESIAN_POINT('',(0.,2.3167,0.));
#890=CARTESIAN_POINT('Origin',(-0.699999977659991,2.3167,0.25));
#891=CARTESIAN_POINT('Origin',(0.700000022340009,2.40508834764832,0.161611652351681));
#892=CARTESIAN_POINT('',(0.700000022340009,2.49347669529664,0.0732233047033631));
#893=CARTESIAN_POINT('Origin',(0.700000022340009,2.3167,0.25));
#894=CARTESIAN_POINT('',(0.700000022340009,2.3167,0.));
#895=CARTESIAN_POINT('Origin',(0.700000022340009,1.40000004468002,0.));
#896=CARTESIAN_POINT('',(0.700000022340009,1.40000004468002,0.));
#897=CARTESIAN_POINT('',(0.700000022340009,1.40000004468002,0.));
#898=CARTESIAN_POINT('',(0.700000022340009,1.40000004468002,0.));
#899=CARTESIAN_POINT('Origin',(-0.699999977659991,2.49347669529664,0.0732233047033629));
#900=CARTESIAN_POINT('',(-0.699999977659991,2.3167,0.));
#901=CARTESIAN_POINT('Origin',(-0.699999977659991,2.3167,0.25));
#902=CARTESIAN_POINT('Origin',(2.,1.4,0.));
#903=CARTESIAN_POINT('',(-2.,1.4,0.));
#904=CARTESIAN_POINT('Origin',(-0.699999977659991,1.4,0.));
#905=CARTESIAN_POINT('',(-0.699999977659991,1.4,0.));
#906=CARTESIAN_POINT('',(-0.699999977659991,1.4,0.));
#907=CARTESIAN_POINT('',(-2.,1.4,0.));
#908=CARTESIAN_POINT('Origin',(-0.699999977659991,3.808,0.));
#909=CARTESIAN_POINT('',(-0.699999977659991,3.808,0.));
#910=CARTESIAN_POINT('Origin',(0.700000022340009,1.74530707446791,-0.674946316125364));
#911=CARTESIAN_POINT('Origin',(0.250000007978574,2.3167,0.25));
#912=CARTESIAN_POINT('Origin',(0.,1.904,0.));
#913=UNCERTAINTY_MEASURE_WITH_UNIT(LENGTH_MEASURE(0.000393700787401575),
#918,'DISTANCE_ACCURACY_VALUE',
'Maximum model space distance between geometric entities at asserted c
onnectivities');
#914=UNCERTAINTY_MEASURE_WITH_UNIT(LENGTH_MEASURE(0.000393700787401575),
#918,'DISTANCE_ACCURACY_VALUE',
'Maximum model space distance between geometric entities at asserted c
onnectivities');
#915=(
GEOMETRIC_REPRESENTATION_CONTEXT(3)
GLOBAL_UNCERTAINTY_ASSIGNED_CONTEXT((#913))
GLOBAL_UNIT_ASSIGNED_CONTEXT((#918,#922,#923))
REPRESENTATION_CONTEXT('','3D')
);
#916=(
GEOMETRIC_REPRESENTATION_CONTEXT(3)
GLOBAL_UNCERTAINTY_ASSIGNED_CONTEXT((#914))
GLOBAL_UNIT_ASSIGNED_CONTEXT((#918,#922,#923))
REPRESENTATION_CONTEXT('','3D')
);
#917=DIMENSIONAL_EXPONENTS(1.,0.,0.,0.,0.,0.,0.);
#918=(
CONVERSION_BASED_UNIT('inch',#921)
LENGTH_UNIT()
NAMED_UNIT(#917)
);
#919=(
LENGTH_UNIT()
NAMED_UNIT(*)
SI_UNIT(.MILLI.,.METRE.)
);
#920=(
LENGTH_UNIT()
NAMED_UNIT(*)
SI_UNIT($,.METRE.)
);
#921=LENGTH_MEASURE_WITH_UNIT(LENGTH_MEASURE(25.4),#919);
#922=(
NAMED_UNIT(*)
PLANE_ANGLE_UNIT()
SI_UNIT($,.RADIAN.)
);
#923=(
NAMED_UNIT(*)
SI_UNIT($,.STERADIAN.)
SOLID_ANGLE_UNIT()
);
#924=SHAPE_DEFINITION_REPRESENTATION(#925,#926);
#925=PRODUCT_DEFINITION_SHAPE('',$,#928);
#926=SHAPE_REPRESENTATION('',(#549),#915);
#927=PRODUCT_DEFINITION_CONTEXT('part definition',#932,'design');
#928=PRODUCT_DEFINITION('Sheet Metal Outer Mounting Bracket',
'Sheet Metal Outer Mounting Bracket v1',#929,#927);
#929=PRODUCT_DEFINITION_FORMATION('',$,#934);
#930=PRODUCT_RELATED_PRODUCT_CATEGORY(
'Sheet Metal Outer Mounting Bracket v1',
'Sheet Metal Outer Mounting Bracket v1',(#934));
#931=APPLICATION_PROTOCOL_DEFINITION('international standard',
'automotive_design',2009,#932);
#932=APPLICATION_CONTEXT(
'Core Data for Automotive Mechanical Design Process');
#933=PRODUCT_CONTEXT('part definition',#932,'mechanical');
#934=PRODUCT('Sheet Metal Outer Mounting Bracket',
'Sheet Metal Outer Mounting Bracket v1',$,(#933));
#935=PRESENTATION_STYLE_ASSIGNMENT((#936));
#936=SURFACE_STYLE_USAGE(.BOTH.,#937);
#937=SURFACE_SIDE_STYLE('',(#938));
#938=SURFACE_STYLE_FILL_AREA(#939);
#939=FILL_AREA_STYLE('Steel - Satin',(#940));
#940=FILL_AREA_STYLE_COLOUR('Steel - Satin',#941);
#941=COLOUR_RGB('Steel - Satin',0.627450980392157,0.627450980392157,0.627450980392157);
ENDSEC;
END-ISO-10303-21;
