ISO-10303-21;
HEADER;
FILE_DESCRIPTION (( 'STEP AP214' ),
    '1' );
FILE_NAME ('Tippman12ozBottle.STEP',
    '2024-05-30T22:14:40',
    ( '' ),
    ( '' ),
    'SwSTEP 2.0',
    'SolidWorks 2023',
    '' );
FILE_SCHEMA (( 'AUTOMOTIVE_DESIGN' ));
ENDSEC;

DATA;
#1 = AXIS2_PLACEMENT_3D ( 'NONE', #215, #142, #362 ) ;
#2 = DIRECTION ( 'NONE',  ( -1.224646799147353207E-16, 1.000000000000000000, 0.0000000000000000000 ) ) ;
#3 = DIRECTION ( 'NONE',  ( -1.224646799147353207E-16, 1.000000000000000000, -0.0000000000000000000 ) ) ;
#4 = ORIENTED_EDGE ( 'NONE', *, *, #393, .T. ) ;
#5 = ORIENTED_EDGE ( 'NONE', *, *, #376, .T. ) ;
#6 = ADVANCED_FACE ( 'NONE', ( #390 ), #76, .F. ) ;
#7 = AXIS2_PLACEMENT_3D ( 'NONE', #245, #107, #180 ) ;
#8 = AXIS2_PLACEMENT_3D ( 'NONE', #104, #69, #300 ) ;
#9 = ORIENTED_EDGE ( 'NONE', *, *, #445, .T. ) ;
#10 = DIRECTION ( 'NONE',  ( -1.000000000000000000, 0.0000000000000000000, 0.0000000000000000000 ) ) ;
#11 = CIRCLE ( 'NONE', #361, 1.262499999999999067 ) ;
#12 = VERTEX_POINT ( 'NONE', #460 ) ;
#13 = DIRECTION ( 'NONE',  ( 0.0000000000000000000, -0.0000000000000000000, -1.000000000000000000 ) ) ;
#14 = DIRECTION ( 'NONE',  ( 1.000000000000000000, 0.0000000000000000000, 0.0000000000000000000 ) ) ;
#15 = EDGE_CURVE ( 'NONE', #406, #52, #258, .T. ) ;
#16 = ORIENTED_EDGE ( 'NONE', *, *, #470, .F. ) ;
#17 = ORIENTED_EDGE ( 'NONE', *, *, #177, .T. ) ;
#18 = DIRECTION ( 'NONE',  ( 1.000000000000000000, 0.0000000000000000000, 0.0000000000000000000 ) ) ;
#19 = ORIENTED_EDGE ( 'NONE', *, *, #243, .T. ) ;
#20 = DIRECTION ( 'NONE',  ( 1.224646799147353207E-16, -1.000000000000000000, 0.0000000000000000000 ) ) ;
#21 =( LENGTH_UNIT ( ) NAMED_UNIT ( * ) SI_UNIT ( $, .METRE. ) );
#22 = CARTESIAN_POINT ( 'NONE',  ( 1.148106374200643592E-15, 0.0000000000000000000, 0.0000000000000000000 ) ) ;
#23 = EDGE_CURVE ( 'NONE', #163, #47, #199, .T. ) ;
#24 = FACE_OUTER_BOUND ( 'NONE', #348, .T. ) ;
#25 = FACE_OUTER_BOUND ( 'NONE', #255, .T. ) ;
#26 = CIRCLE ( 'NONE', #432, 0.4799999999999999267 ) ;
#27 = DIRECTION ( 'NONE',  ( 1.000000000000000000, 0.0000000000000000000, 0.0000000000000000000 ) ) ;
#28 = DIRECTION ( 'NONE',  ( -1.000000000000000000, -1.228339227931852090E-16, 0.0000000000000000000 ) ) ;
#29 = FILL_AREA_STYLE ('',( #59 ) ) ;
#30 = EDGE_CURVE ( 'NONE', #43, #161, #295, .T. ) ;
#31 = LINE ( 'NONE', #203, #228 ) ;
#32 = DIRECTION ( 'NONE',  ( 0.0000000000000000000, 0.0000000000000000000, -1.000000000000000000 ) ) ;
#33 = DIRECTION ( 'NONE',  ( -1.000000000000000000, -1.217159997177147918E-16, 0.0000000000000000000 ) ) ;
#34 = AXIS2_PLACEMENT_3D ( 'NONE', #277, #58, #241 ) ;
#35 = DIRECTION ( 'NONE',  ( 1.000000000000000000, 0.0000000000000000000, -1.224646799147353454E-16 ) ) ;
#36 = CARTESIAN_POINT ( 'NONE',  ( 1.135859906209170235E-15, 0.09999999999999947820, 0.0000000000000000000 ) ) ;
#37 = CIRCLE ( 'NONE', #296, 0.9099999999999989209 ) ;
#38 = DIRECTION ( 'NONE',  ( -1.000000000000000000, -1.224646799147353207E-16, 0.0000000000000000000 ) ) ;
#39 = CARTESIAN_POINT ( 'NONE',  ( 0.0000000000000000000, 7.700000000000000178, 0.0000000000000000000 ) ) ;
#40 = ADVANCED_FACE ( 'NONE', ( #25 ), #423, .F. ) ;
#41 = CARTESIAN_POINT ( 'NONE',  ( 4.462805006637561049E-17, 9.010584316249817149, 0.0000000000000000000 ) ) ;
#42 = AXIS2_PLACEMENT_3D ( 'NONE', #183, #325, #146 ) ;
#43 = VERTEX_POINT ( 'NONE', #466 ) ;
#44 = CARTESIAN_POINT ( 'NONE',  ( 1.143820110403628074E-15, 0.03499999999999994782, 0.0000000000000000000 ) ) ;
#45 = CARTESIAN_POINT ( 'NONE',  ( 1.135859906209170235E-15, 0.09999999999999947820, 0.0000000000000000000 ) ) ;
#46 = CIRCLE ( 'NONE', #85, 0.6302066115702480431 ) ;
#47 = VERTEX_POINT ( 'NONE', #281 ) ;
#48 = EDGE_CURVE ( 'NONE', #411, #392, #37, .T. ) ;
#49 = CARTESIAN_POINT ( 'NONE',  ( 1.148106374200643592E-15, -1.365923996832131609E-16, 0.0000000000000000000 ) ) ;
#50 = AXIS2_PLACEMENT_3D ( 'NONE', #359, #200, #132 ) ;
#51 = EDGE_LOOP ( 'NONE', ( #260, #375, #19, #16 ) ) ;
#52 = VERTEX_POINT ( 'NONE', #136 ) ;
#53 = FACE_OUTER_BOUND ( 'NONE', #338, .T. ) ;
#54 = AXIS2_PLACEMENT_3D ( 'NONE', #291, #13, #122 ) ;
#55 = EDGE_LOOP ( 'NONE', ( #185, #469, #121, #297 ) ) ;
#56 = SURFACE_STYLE_FILL_AREA ( #29 ) ;
#57 = ORIENTED_EDGE ( 'NONE', *, *, #470, .T. ) ;
#58 = DIRECTION ( 'NONE',  ( 1.224646799147353207E-16, -1.000000000000000000, 0.0000000000000000000 ) ) ;
#59 = FILL_AREA_STYLE_COLOUR ( '', #135 ) ;
#60 = DIRECTION ( 'NONE',  ( 1.000000000000000000, 1.224646799147353454E-16, 0.0000000000000000000 ) ) ;
#61 = AXIS2_PLACEMENT_3D ( 'NONE', #39, #397, #212 ) ;
#62 = ADVANCED_FACE ( 'NONE', ( #395 ), #242, .T. ) ;
#63 = DIRECTION ( 'NONE',  ( -1.000000000000000000, 0.0000000000000000000, 0.0000000000000000000 ) ) ;
#64 = CARTESIAN_POINT ( 'NONE',  ( 1.135859906209170235E-15, 0.09999999999999947820, 0.0000000000000000000 ) ) ;
#65 =( NAMED_UNIT ( * ) PLANE_ANGLE_UNIT ( ) SI_UNIT ( $, .RADIAN. ) );
#66 = LINE ( 'NONE', #77, #134 ) ;
#67 = DIRECTION ( 'NONE',  ( -1.224646799147353207E-16, 1.000000000000000000, -0.0000000000000000000 ) ) ;
#68 = CIRCLE ( 'NONE', #330, 1.162499999999999201 ) ;
#69 = DIRECTION ( 'NONE',  ( 1.224646799147353207E-16, 1.499759782661857608E-32, -1.000000000000000000 ) ) ;
#70 = EDGE_CURVE ( 'NONE', #355, #408, #87, .T. ) ;
#71 = AXIS2_PLACEMENT_3D ( 'NONE', #100, #453, #272 ) ;
#72 = CARTESIAN_POINT ( 'NONE',  ( -0.9099999999999978106, -1.112120917325098589E-16, 1.114428587224090183E-16 ) ) ;
#73 = EDGE_CURVE ( 'NONE', #408, #43, #170, .T. ) ;
#74 = CIRCLE ( 'NONE', #447, 1.262499999999999956 ) ;
#75 = ORIENTED_EDGE ( 'NONE', *, *, #30, .T. ) ;
#76 = TOROIDAL_SURFACE ( 'NONE', #404, 0.7550000000000000044, 0.2500000000000000000 ) ;
#77 = CARTESIAN_POINT ( 'NONE',  ( -1.262499999999999067, 9.375000000000000000, 0.0000000000000000000 ) ) ;
#78 = ORIENTED_EDGE ( 'NONE', *, *, #204, .T. ) ;
#79 = CARTESIAN_POINT ( 'NONE',  ( -0.6302066115702481541, 8.793958809431664747, -1.158948546792268305E-16 ) ) ;
#80 = ORIENTED_EDGE ( 'NONE', *, *, #463, .F. ) ;
#81 = EDGE_LOOP ( 'NONE', ( #17, #148, #414, #305 ) ) ;
#82 = VERTEX_POINT ( 'NONE', #282 ) ;
#83 = ADVANCED_FACE ( 'NONE', ( #346 ), #278, .T. ) ;
#84 = SURFACE_STYLE_USAGE ( .BOTH. , #413 ) ;
#85 = AXIS2_PLACEMENT_3D ( 'NONE', #225, #216, #372 ) ;
#86 = ORIENTED_EDGE ( 'NONE', *, *, #376, .F. ) ;
#87 = CIRCLE ( 'NONE', #273, 1.162499999999999201 ) ;
#88 = DIRECTION ( 'NONE',  ( -1.224646799147353207E-16, -1.499759782661857608E-32, 1.000000000000000000 ) ) ;
#89 = CYLINDRICAL_SURFACE ( 'NONE', #226, 1.262499999999999067 ) ;
#90 = LENGTH_MEASURE_WITH_UNIT ( LENGTH_MEASURE( 0.02539999999999999897 ), #21 );
#91 = CARTESIAN_POINT ( 'NONE',  ( 3.786893451221190733E-33, 9.375000000000000000, 0.0000000000000000000 ) ) ;
#92 = EDGE_CURVE ( 'NONE', #406, #293, #31, .T. ) ;
#93 = APPLICATION_CONTEXT ( 'automotive_design' ) ;
#94 = DIRECTION ( 'NONE',  ( 0.0000000000000000000, 0.0000000000000000000, 1.000000000000000000 ) ) ;
#95 = DIRECTION ( 'NONE',  ( 1.224646799147353207E-16, -1.000000000000000000, 0.0000000000000000000 ) ) ;
#96 = CIRCLE ( 'NONE', #249, 0.1000000000000000194 ) ;
#97 = CARTESIAN_POINT ( 'NONE',  ( -0.5049999999999998934, 9.349999999999999645, 0.0000000000000000000 ) ) ;
#98 = CARTESIAN_POINT ( 'NONE',  ( 3.061616997868366994E-18, 9.349999999999999645, 0.0000000000000000000 ) ) ;
#99 = FACE_OUTER_BOUND ( 'NONE', #193, .T. ) ;
#100 = CARTESIAN_POINT ( 'NONE',  ( 0.9100000000000000311, -2.158439983497208946E-17, 0.0000000000000000000 ) ) ;
#101 = ADVANCED_FACE ( 'NONE', ( #99, #211 ), #431, .F. ) ;
#102 = DIRECTION ( 'NONE',  ( -1.000000000000000000, -1.224646799147353207E-16, 0.0000000000000000000 ) ) ;
#103 = PRESENTATION_LAYER_ASSIGNMENT (  '', '', ( #340 ) ) ;
#104 = CARTESIAN_POINT ( 'NONE',  ( 0.0000000000000000000, 7.700000000000000178, 0.0000000000000000000 ) ) ;
#105 = ORIENTED_EDGE ( 'NONE', *, *, #23, .F. ) ;
#106 = CIRCLE ( 'NONE', #280, 1.262499999999999734 ) ;
#107 = DIRECTION ( 'NONE',  ( 0.0000000000000000000, 0.0000000000000000000, 1.000000000000000000 ) ) ;
#108 = ORIENTED_EDGE ( 'NONE', *, *, #279, .T. ) ;
#109 = ADVANCED_FACE ( 'NONE', ( #309 ), #236, .T. ) ;
#110 = EDGE_LOOP ( 'NONE', ( #368, #374, #141, #198 ) ) ;
#111 = TOROIDAL_SURFACE ( 'NONE', #159, 0.4799999999999999267, 0.02500000000000000139 ) ;
#112 = CARTESIAN_POINT ( 'NONE',  ( 0.7550000000000000044, 9.010584316249817149, 0.0000000000000000000 ) ) ;
#113 = ORIENTED_EDGE ( 'NONE', *, *, #48, .F. ) ;
#114 =( NAMED_UNIT ( * ) PLANE_ANGLE_UNIT ( ) SI_UNIT ( $, .RADIAN. ) );
#115 = EDGE_CURVE ( 'NONE', #161, #43, #11, .T. ) ;
#116 = EDGE_LOOP ( 'NONE', ( #150, #86, #448, #313 ) ) ;
#117 = CARTESIAN_POINT ( 'NONE',  ( -0.4799999999999999267, 9.375000000000000000, 6.031385485800712900E-17 ) ) ;
#118 = AXIS2_PLACEMENT_3D ( 'NONE', #399, #357, #145 ) ;
#119 = ORIENTED_EDGE ( 'NONE', *, *, #349, .F. ) ;
#120 = ORIENTED_EDGE ( 'NONE', *, *, #177, .F. ) ;
#121 = ORIENTED_EDGE ( 'NONE', *, *, #429, .T. ) ;
#122 = DIRECTION ( 'NONE',  ( -1.000000000000000000, 0.0000000000000000000, 0.0000000000000000000 ) ) ;
#123 = DIRECTION ( 'NONE',  ( -1.224646799147353207E-16, 1.000000000000000000, -0.0000000000000000000 ) ) ;
#124 = CIRCLE ( 'NONE', #42, 0.2500000000000000000 ) ;
#125 = DIRECTION ( 'NONE',  ( -1.000000000000000000, -1.224646799147353207E-16, 0.0000000000000000000 ) ) ;
#126 = DIRECTION ( 'NONE',  ( -1.000000000000000000, 0.0000000000000000000, 0.0000000000000000000 ) ) ;
#127 = AXIS2_PLACEMENT_3D ( 'NONE', #162, #425, #419 ) ;
#128 = EDGE_CURVE ( 'NONE', #392, #411, #154, .T. ) ;
#129 = CARTESIAN_POINT ( 'NONE',  ( 0.0000000000000000000, 9.375000000000000000, 0.0000000000000000000 ) ) ;
#130 = CARTESIAN_POINT ( 'NONE',  ( 0.0000000000000000000, 9.375000000000000000, 0.0000000000000000000 ) ) ;
#131 = CARTESIAN_POINT ( 'NONE',  ( 4.462805006637559817E-17, 9.010584316249817149, 0.0000000000000000000 ) ) ;
#132 = DIRECTION ( 'NONE',  ( -1.000000000000000000, -1.224646799147353207E-16, 0.0000000000000000000 ) ) ;
#133 = DIRECTION ( 'NONE',  ( -1.224646799147353207E-16, 1.000000000000000000, -0.0000000000000000000 ) ) ;
#134 = VECTOR ( 'NONE', #287, 39.37007874015748143 ) ;
#135 = COLOUR_RGB ( '',0.7921568627450980005, 0.8196078431372548767, 0.9333333333333333481 ) ;
#136 = CARTESIAN_POINT ( 'NONE',  ( -0.5049999999999998934, 9.010584316249817149, 0.0000000000000000000 ) ) ;
#137 = EDGE_CURVE ( 'NONE', #230, #339, #252, .T. ) ;
#138 = FACE_OUTER_BOUND ( 'NONE', #377, .T. ) ;
#139 = CARTESIAN_POINT ( 'NONE',  ( 0.5050000000000001155, 9.010584316249817149, 6.184466335694134793E-17 ) ) ;
#140 = UNCERTAINTY_MEASURE_WITH_UNIT (LENGTH_MEASURE( 1.000000000000000082E-05 ), #174, 'distance_accuracy_value', 'NONE');
#141 = ORIENTED_EDGE ( 'NONE', *, *, #243, .F. ) ;
#142 = DIRECTION ( 'NONE',  ( -1.224646799147353207E-16, 1.000000000000000000, -0.0000000000000000000 ) ) ;
#143 = LINE ( 'NONE', #155, #167 ) ;
#144 = ORIENTED_EDGE ( 'NONE', *, *, #343, .T. ) ;
#145 = DIRECTION ( 'NONE',  ( 1.000000000000000000, 0.0000000000000000000, -1.224646799147351728E-16 ) ) ;
#146 = DIRECTION ( 'NONE',  ( 1.000000000000000000, 0.0000000000000000000, -1.224646799147352961E-16 ) ) ;
#147 = ADVANCED_FACE ( 'NONE', ( #271 ), #373, .F. ) ;
#148 = ORIENTED_EDGE ( 'NONE', *, *, #337, .T. ) ;
#149 = VERTEX_POINT ( 'NONE', #97 ) ;
#150 = ORIENTED_EDGE ( 'NONE', *, *, #420, .F. ) ;
#151 = AXIS2_PLACEMENT_3D ( 'NONE', #45, #3, #102 ) ;
#152 = ORIENTED_EDGE ( 'NONE', *, *, #70, .T. ) ;
#153 = AXIS2_PLACEMENT_3D ( 'NONE', #239, #382, #28 ) ;
#154 = CIRCLE ( 'NONE', #50, 0.9099999999999989209 ) ;
#155 = CARTESIAN_POINT ( 'NONE',  ( 1.262499999999999067, 9.375000000000000000, 1.546116583923532281E-16 ) ) ;
#156 = ORIENTED_EDGE ( 'NONE', *, *, #262, .T. ) ;
#157 = CARTESIAN_POINT ( 'NONE',  ( 0.5049999999999998934, 9.349999999999999645, 6.184466335694133561E-17 ) ) ;
#158 = ORIENTED_EDGE ( 'NONE', *, *, #312, .T. ) ;
#159 = AXIS2_PLACEMENT_3D ( 'NONE', #98, #254, #391 ) ;
#160 = ADVANCED_FACE ( 'NONE', ( #381 ), #191, .F. ) ;
#161 = VERTEX_POINT ( 'NONE', #207 ) ;
#162 = CARTESIAN_POINT ( 'NONE',  ( 1.156066578395101432E-15, -0.06500000000000005773, 0.0000000000000000000 ) ) ;
#163 = VERTEX_POINT ( 'NONE', #244 ) ;
#164 = DIRECTION ( 'NONE',  ( 1.224646799147353207E-16, -1.000000000000000000, 0.0000000000000000000 ) ) ;
#165 = DIRECTION ( 'NONE',  ( -1.000000000000000000, 0.0000000000000000000, 0.0000000000000000000 ) ) ;
#166 = DIRECTION ( 'NONE',  ( -1.000000000000000000, 0.0000000000000000000, 0.0000000000000000000 ) ) ;
#167 = VECTOR ( 'NONE', #251, 39.37007874015748143 ) ;
#168 = DIRECTION ( 'NONE',  ( 1.000000000000000000, 1.224646799147353207E-16, 0.0000000000000000000 ) ) ;
#169 = CARTESIAN_POINT ( 'NONE',  ( 4.462805006637559817E-17, 9.010584316249817149, 0.0000000000000000000 ) ) ;
#170 = CIRCLE ( 'NONE', #398, 0.1000000000000000194 ) ;
#171 = DIRECTION ( 'NONE',  ( 0.0000000000000000000, 0.0000000000000000000, -1.000000000000000000 ) ) ;
#172 = CARTESIAN_POINT ( 'NONE',  ( 0.0000000000000000000, 9.375000000000000000, 0.0000000000000000000 ) ) ;
#173 = CARTESIAN_POINT ( 'NONE',  ( 0.0000000000000000000, 7.700000000000000178, 0.0000000000000000000 ) ) ;
#174 =( CONVERSION_BASED_UNIT ( 'INCH', #284 ) LENGTH_UNIT ( ) NAMED_UNIT ( #387 ) );
#175 = DIRECTION ( 'NONE',  ( -1.224646799147353207E-16, 1.000000000000000000, -0.0000000000000000000 ) ) ;
#176 = AXIS2_PLACEMENT_3D ( 'NONE', #202, #456, #197 ) ;
#177 = EDGE_CURVE ( 'NONE', #82, #265, #106, .T. ) ;
#178 =( NAMED_UNIT ( * ) SI_UNIT ( $, .STERADIAN. ) SOLID_ANGLE_UNIT ( ) );
#179 = DIRECTION ( 'NONE',  ( -1.224646799147353207E-16, 1.000000000000000000, -0.0000000000000000000 ) ) ;
#180 = DIRECTION ( 'NONE',  ( 1.000000000000000000, 0.0000000000000000000, 0.0000000000000000000 ) ) ;
#181 = CARTESIAN_POINT ( 'NONE',  ( 3.061616997868359676E-18, 9.349999999999999645, 0.0000000000000000000 ) ) ;
#182 = ADVANCED_FACE ( 'NONE', ( #24 ), #89, .T. ) ;
#183 = CARTESIAN_POINT ( 'NONE',  ( -0.7550000000000000044, 9.010584316249817149, 9.246083333562515962E-17 ) ) ;
#184 = VECTOR ( 'NONE', #317, 39.37007874015748143 ) ;
#185 = ORIENTED_EDGE ( 'NONE', *, *, #73, .F. ) ;
#186 = ORIENTED_EDGE ( 'NONE', *, *, #393, .F. ) ;
#187 = PRODUCT_DEFINITION_FORMATION_WITH_SPECIFIED_SOURCE ( 'ANY', '', #451, .NOT_KNOWN. ) ;
#188 = DIRECTION ( 'NONE',  ( -1.000000000000000000, 0.0000000000000000000, 0.0000000000000000000 ) ) ;
#189 = CIRCLE ( 'NONE', #454, 0.5049999999999998934 ) ;
#190 = ORIENTED_EDGE ( 'NONE', *, *, #15, .T. ) ;
#191 = TOROIDAL_SURFACE ( 'NONE', #310, 0.7550000000000000044, 0.2500000000000000000 ) ;
#192 = DIRECTION ( 'NONE',  ( -1.000000000000000000, -1.224646799147353207E-16, 0.0000000000000000000 ) ) ;
#193 = EDGE_LOOP ( 'NONE', ( #152, #4 ) ) ;
#194 = EDGE_CURVE ( 'NONE', #328, #12, #232, .T. ) ;
#195 = ORIENTED_EDGE ( 'NONE', *, *, #128, .T. ) ;
#196 = AXIS2_PLACEMENT_3D ( 'NONE', #112, #332, #188 ) ;
#197 = DIRECTION ( 'NONE',  ( 1.000000000000000000, 1.224646799147353207E-16, 0.0000000000000000000 ) ) ;
#198 = ORIENTED_EDGE ( 'NONE', *, *, #279, .F. ) ;
#199 = CIRCLE ( 'NONE', #153, 0.8340065792321456062 ) ;
#200 = DIRECTION ( 'NONE',  ( -1.224646799147353207E-16, 1.000000000000000000, -0.0000000000000000000 ) ) ;
#201 = CARTESIAN_POINT ( 'NONE',  ( 1.148106374200643592E-15, -1.365923996832131609E-16, 0.0000000000000000000 ) ) ;
#202 = CARTESIAN_POINT ( 'NONE',  ( 3.061616997868366994E-18, 9.349999999999999645, 0.0000000000000000000 ) ) ;
#203 = CARTESIAN_POINT ( 'NONE',  ( 0.5049999999999998934, 9.375000000000000000, 6.184466335694133561E-17 ) ) ;
#204 = EDGE_CURVE ( 'NONE', #47, #163, #307, .T. ) ;
#205 = AXIS2_PLACEMENT_3D ( 'NONE', #323, #32, #10 ) ;
#206 = DIRECTION ( 'NONE',  ( 1.000000000000000000, 0.0000000000000000000, 1.224646799147351728E-16 ) ) ;
#207 = CARTESIAN_POINT ( 'NONE',  ( -1.262499999999998179, 0.09999999999999932554, 0.0000000000000000000 ) ) ;
#208 = DIRECTION ( 'NONE',  ( -1.000000000000000000, -1.224646799147353207E-16, 0.0000000000000000000 ) ) ;
#209 = ADVANCED_FACE ( 'NONE', ( #416 ), #378, .F. ) ;
#210 = APPLICATION_PROTOCOL_DEFINITION ( 'draft international standard', 'automotive_design', 1998, #93 ) ;
#211 = FACE_BOUND ( 'NONE', #327, .T. ) ;
#212 = DIRECTION ( 'NONE',  ( 1.000000000000000000, 0.0000000000000000000, 0.0000000000000000000 ) ) ;
#213 = DIRECTION ( 'NONE',  ( -1.000000000000000000, -1.217159997177147918E-16, 0.0000000000000000000 ) ) ;
#214 = AXIS2_PLACEMENT_3D ( 'NONE', #342, #164, #18 ) ;
#215 = CARTESIAN_POINT ( 'NONE',  ( 0.0000000000000000000, 9.375000000000000000, 0.0000000000000000000 ) ) ;
#216 = DIRECTION ( 'NONE',  ( 1.224646799147353454E-16, -1.000000000000000000, 0.0000000000000000000 ) ) ;
#217 = AXIS2_PLACEMENT_3D ( 'NONE', #36, #179, #321 ) ;
#218 = ADVANCED_FACE ( 'NONE', ( #53 ), #237, .T. ) ;
#219 = SHAPE_DEFINITION_REPRESENTATION ( #256, #412 ) ;
#220 = CARTESIAN_POINT ( 'NONE',  ( 2.051283388571816887E-16, 7.700000000000000178, 0.0000000000000000000 ) ) ;
#221 = AXIS2_PLACEMENT_3D ( 'NONE', #384, #345, #449 ) ;
#222 = ORIENTED_EDGE ( 'NONE', *, *, #343, .F. ) ;
#223 = DIRECTION ( 'NONE',  ( -1.000000000000000000, 0.0000000000000000000, 0.0000000000000000000 ) ) ;
#224 = ORIENTED_EDGE ( 'NONE', *, *, #137, .T. ) ;
#225 = CARTESIAN_POINT ( 'NONE',  ( -1.339713154369537735E-16, 8.793958809431664747, 0.0000000000000000000 ) ) ;
#226 = AXIS2_PLACEMENT_3D ( 'NONE', #130, #311, #166 ) ;
#227 = EDGE_LOOP ( 'NONE', ( #315, #78 ) ) ;
#228 = VECTOR ( 'NONE', #133, 39.37007874015748143 ) ;
#229 = ADVANCED_FACE ( 'NONE', ( #267 ), #415, .T. ) ;
#230 = VERTEX_POINT ( 'NONE', #351 ) ;
#231 = EDGE_LOOP ( 'NONE', ( #329, #105, #9, #113 ) ) ;
#232 = CIRCLE ( 'NONE', #221, 0.6302066115702480431 ) ;
#233 = DIRECTION ( 'NONE',  ( 1.224646799147353454E-16, -1.000000000000000000, 0.0000000000000000000 ) ) ;
#234 = ORIENTED_EDGE ( 'NONE', *, *, #360, .T. ) ;
#235 = AXIS2_PLACEMENT_3D ( 'NONE', #417, #421, #318 ) ;
#236 = TOROIDAL_SURFACE ( 'NONE', #217, 1.162499999999999201, 0.1000000000000000056 ) ;
#237 = CYLINDRICAL_SURFACE ( 'NONE', #424, 1.262499999999999067 ) ;
#238 = PRODUCT_DEFINITION ( 'UNKNOWN', '', #187, #288 ) ;
#239 = CARTESIAN_POINT ( 'NONE',  ( 1.143820110403627680E-15, 0.03499999999999994782, 0.0000000000000000000 ) ) ;
#240 = CARTESIAN_POINT ( 'NONE',  ( 0.4799999999999999267, 9.349999999999999645, 0.0000000000000000000 ) ) ;
#241 = DIRECTION ( 'NONE',  ( -1.000000000000000000, -1.228339227931852090E-16, 0.0000000000000000000 ) ) ;
#242 = SPHERICAL_SURFACE ( 'NONE', #458, 1.262499999999999956 ) ;
#243 = EDGE_CURVE ( 'NONE', #293, #149, #388, .T. ) ;
#244 = CARTESIAN_POINT ( 'NONE',  ( 0.8340065792321467164, 0.03500000000000005190, 0.0000000000000000000 ) ) ;
#245 = CARTESIAN_POINT ( 'NONE',  ( 0.0000000000000000000, 0.0000000000000000000, 0.0000000000000000000 ) ) ;
#246 = DIRECTION ( 'NONE',  ( 1.224646799147353454E-16, -1.000000000000000000, 0.0000000000000000000 ) ) ;
#247 = ORIENTED_EDGE ( 'NONE', *, *, #48, .T. ) ;
#248 = SPHERICAL_SURFACE ( 'NONE', #61, 1.262499999999999956 ) ;
#249 = AXIS2_PLACEMENT_3D ( 'NONE', #324, #358, #35 ) ;
#250 = PRODUCT_CONTEXT ( 'NONE', #93, 'mechanical' ) ;
#251 = DIRECTION ( 'NONE',  ( -1.224646799147353207E-16, 1.000000000000000000, -0.0000000000000000000 ) ) ;
#252 = CIRCLE ( 'NONE', #334, 0.4799999999999999267 ) ;
#253 = ORIENTED_EDGE ( 'NONE', *, *, #128, .F. ) ;
#254 = DIRECTION ( 'NONE',  ( 1.224646799147353207E-16, -1.000000000000000000, 0.0000000000000000000 ) ) ;
#255 = EDGE_LOOP ( 'NONE', ( #224, #450 ) ) ;
#256 = PRODUCT_DEFINITION_SHAPE ( 'NONE', 'NONE',  #238 ) ;
#257 = CIRCLE ( 'NONE', #196, 0.2500000000000000000 ) ;
#258 = CIRCLE ( 'NONE', #235, 0.5049999999999998934 ) ;
#259 = DIRECTION ( 'NONE',  ( -1.224646799147353207E-16, 1.000000000000000000, -0.0000000000000000000 ) ) ;
#260 = ORIENTED_EDGE ( 'NONE', *, *, #366, .T. ) ;
#261 = CARTESIAN_POINT ( 'NONE',  ( -1.162499999999998090, -2.789575900840928594E-16, 0.0000000000000000000 ) ) ;
#262 = EDGE_CURVE ( 'NONE', #82, #12, #74, .T. ) ;
#263 = ORIENTED_EDGE ( 'NONE', *, *, #73, .T. ) ;
#264 = AXIS2_PLACEMENT_3D ( 'NONE', #44, #2, #38 ) ;
#265 = VERTEX_POINT ( 'NONE', #274 ) ;
#266 = ORIENTED_EDGE ( 'NONE', *, *, #194, .F. ) ;
#267 = FACE_OUTER_BOUND ( 'NONE', #110, .T. ) ;
#268 = EDGE_LOOP ( 'NONE', ( #446, #400, #156, #5 ) ) ;
#269 = CIRCLE ( 'NONE', #350, 0.5049999999999998934 ) ;
#270 = PRODUCT_RELATED_PRODUCT_CATEGORY ( 'part', '', ( #451 ) ) ;
#271 = FACE_OUTER_BOUND ( 'NONE', #231, .T. ) ;
#272 = DIRECTION ( 'NONE',  ( -1.000000000000000000, -1.224646799147353207E-16, 0.0000000000000000000 ) ) ;
#273 = AXIS2_PLACEMENT_3D ( 'NONE', #201, #95, #125 ) ;
#274 = CARTESIAN_POINT ( 'NONE',  ( -1.262499999999999512, 7.700000000000000178, 0.0000000000000000000 ) ) ;
#275 = EDGE_LOOP ( 'NONE', ( #299, #190, #57, #144 ) ) ;
#276 = DIMENSIONAL_EXPONENTS ( 1.000000000000000000, 0.0000000000000000000, 0.0000000000000000000, 0.0000000000000000000, 0.0000000000000000000, 0.0000000000000000000, 0.0000000000000000000 ) ;
#277 = CARTESIAN_POINT ( 'NONE',  ( 1.143820110403627680E-15, 0.03499999999999994782, 0.0000000000000000000 ) ) ;
#278 = CYLINDRICAL_SURFACE ( 'NONE', #436, 0.5049999999999998934 ) ;
#279 = EDGE_CURVE ( 'NONE', #230, #293, #409, .T. ) ;
#280 = AXIS2_PLACEMENT_3D ( 'NONE', #459, #308, #126 ) ;
#281 = CARTESIAN_POINT ( 'NONE',  ( -0.8340065792321444960, 0.03499999999999985068, 1.067896037474285261E-16 ) ) ;
#282 = CARTESIAN_POINT ( 'NONE',  ( 1.262499999999999956, 7.700000000000000178, 1.546116583923532527E-16 ) ) ;
#283 = MANIFOLD_SOLID_BREP ( 'Fillet3', #428 ) ;
#284 = LENGTH_MEASURE_WITH_UNIT ( LENGTH_MEASURE( 0.02539999999999999897 ), #290 );
#285 = CARTESIAN_POINT ( 'NONE',  ( 1.162500000000000311, 5.772790717666552961E-18, 1.484884243966164756E-16 ) ) ;
#286 = EDGE_CURVE ( 'NONE', #265, #82, #294, .T. ) ;
#287 = DIRECTION ( 'NONE',  ( -1.224646799147353207E-16, 1.000000000000000000, -0.0000000000000000000 ) ) ;
#288 = PRODUCT_DEFINITION_CONTEXT ( 'detailed design', #405, 'design' ) ;
#289 = CIRCLE ( 'NONE', #54, 0.1000000000000000194 ) ;
#290 =( LENGTH_UNIT ( ) NAMED_UNIT ( * ) SI_UNIT ( $, .METRE. ) );
#291 = CARTESIAN_POINT ( 'NONE',  ( -1.162499999999998090, 0.09999999999999933942, 0.0000000000000000000 ) ) ;
#292 = ORIENTED_EDGE ( 'NONE', *, *, #137, .F. ) ;
#293 = VERTEX_POINT ( 'NONE', #157 ) ;
#294 = CIRCLE ( 'NONE', #302, 1.262499999999999734 ) ;
#295 = CIRCLE ( 'NONE', #418, 1.262499999999999067 ) ;
#296 = AXIS2_PLACEMENT_3D ( 'NONE', #22, #175, #208 ) ;
#297 = ORIENTED_EDGE ( 'NONE', *, *, #30, .F. ) ;
#298 = ADVANCED_FACE ( 'NONE', ( #364 ), #396, .T. ) ;
#299 = ORIENTED_EDGE ( 'NONE', *, *, #92, .F. ) ;
#300 = DIRECTION ( 'NONE',  ( -1.000000000000000000, 0.0000000000000000000, -1.224646799147353207E-16 ) ) ;
#301 = ORIENTED_EDGE ( 'NONE', *, *, #15, .F. ) ;
#302 = AXIS2_PLACEMENT_3D ( 'NONE', #220, #433, #223 ) ;
#303 = EDGE_LOOP ( 'NONE', ( #266, #367, #301, #119 ) ) ;
#304 = DIRECTION ( 'NONE',  ( -1.000000000000000000, 0.0000000000000000000, 0.0000000000000000000 ) ) ;
#305 = ORIENTED_EDGE ( 'NONE', *, *, #262, .F. ) ;
#306 = DIRECTION ( 'NONE',  ( 0.0000000000000000000, 0.0000000000000000000, -1.000000000000000000 ) ) ;
#307 = CIRCLE ( 'NONE', #34, 0.8340065792321456062 ) ;
#308 = DIRECTION ( 'NONE',  ( -1.224646799147353207E-16, 1.000000000000000000, -0.0000000000000000000 ) ) ;
#309 = FACE_OUTER_BOUND ( 'NONE', #435, .T. ) ;
#310 = AXIS2_PLACEMENT_3D ( 'NONE', #169, #233, #347 ) ;
#311 = DIRECTION ( 'NONE',  ( -1.224646799147353207E-16, 1.000000000000000000, -0.0000000000000000000 ) ) ;
#312 = EDGE_CURVE ( 'NONE', #161, #265, #66, .T. ) ;
#313 = ORIENTED_EDGE ( 'NONE', *, *, #366, .F. ) ;
#314 = DIRECTION ( 'NONE',  ( -1.224646799147353207E-16, 1.000000000000000000, -0.0000000000000000000 ) ) ;
#315 = ORIENTED_EDGE ( 'NONE', *, *, #23, .T. ) ;
#316 = CIRCLE ( 'NONE', #205, 0.1000000000000000194 ) ;
#317 = DIRECTION ( 'NONE',  ( -1.224646799147353207E-16, 1.000000000000000000, -0.0000000000000000000 ) ) ;
#318 = DIRECTION ( 'NONE',  ( 1.000000000000000000, 0.0000000000000000000, 0.0000000000000000000 ) ) ;
#319 = LINE ( 'NONE', #426, #184 ) ;
#320 = DIRECTION ( 'NONE',  ( 1.000000000000000000, 0.0000000000000000000, 0.0000000000000000000 ) ) ;
#321 = DIRECTION ( 'NONE',  ( -1.000000000000000000, -1.224646799147353207E-16, 0.0000000000000000000 ) ) ;
#322 = ADVANCED_FACE ( 'NONE', ( #363 ), #248, .T. ) ;
#323 = CARTESIAN_POINT ( 'NONE',  ( 0.8340065792321467164, -0.06499999999999996059, 0.0000000000000000000 ) ) ;
#324 = CARTESIAN_POINT ( 'NONE',  ( -0.8340065792321444960, -0.06500000000000015488, 1.021363487724480584E-16 ) ) ;
#325 = DIRECTION ( 'NONE',  ( 1.224646799147352961E-16, 1.499759782661857608E-32, 1.000000000000000000 ) ) ;
#326 = CIRCLE ( 'NONE', #118, 0.02500000000000000486 ) ;
#327 = EDGE_LOOP ( 'NONE', ( #195, #247 ) ) ;
#328 = VERTEX_POINT ( 'NONE', #79 ) ;
#329 = ORIENTED_EDGE ( 'NONE', *, *, #360, .F. ) ;
#330 = AXIS2_PLACEMENT_3D ( 'NONE', #49, #394, #192 ) ;
#331 =( NAMED_UNIT ( * ) SI_UNIT ( $, .STERADIAN. ) SOLID_ANGLE_UNIT ( ) );
#332 = DIRECTION ( 'NONE',  ( 0.0000000000000000000, 0.0000000000000000000, -1.000000000000000000 ) ) ;
#333 = AXIS2_PLACEMENT_3D ( 'NONE', #91, #386, #168 ) ;
#334 = AXIS2_PLACEMENT_3D ( 'NONE', #172, #123, #27 ) ;
#335 = ORIENTED_EDGE ( 'NONE', *, *, #286, .F. ) ;
#336 = CARTESIAN_POINT ( 'NONE',  ( 0.9100000000000000311, 1.154806042226102609E-16, 0.0000000000000000000 ) ) ;
#337 = EDGE_CURVE ( 'NONE', #265, #328, #403, .T. ) ;
#338 = EDGE_LOOP ( 'NONE', ( #441, #75, #158, #120 ) ) ;
#339 = VERTEX_POINT ( 'NONE', #117 ) ;
#340 = STYLED_ITEM ( 'NONE', ( #389 ), #283 ) ;
#341 = AXIS2_PLACEMENT_3D ( 'NONE', #240, #306, #63 ) ;
#342 = CARTESIAN_POINT ( 'NONE',  ( 3.061616997868359676E-18, 9.349999999999999645, 0.0000000000000000000 ) ) ;
#343 = EDGE_CURVE ( 'NONE', #149, #293, #189, .T. ) ;
#344 = ORIENTED_EDGE ( 'NONE', *, *, #383, .T. ) ;
#345 = DIRECTION ( 'NONE',  ( 1.224646799147353454E-16, -1.000000000000000000, 0.0000000000000000000 ) ) ;
#346 = FACE_OUTER_BOUND ( 'NONE', #51, .T. ) ;
#347 = DIRECTION ( 'NONE',  ( 1.000000000000000000, 1.224646799147353454E-16, 0.0000000000000000000 ) ) ;
#348 = EDGE_LOOP ( 'NONE', ( #438, #344, #335, #471 ) ) ;
#349 = EDGE_CURVE ( 'NONE', #12, #406, #257, .T. ) ;
#350 = AXIS2_PLACEMENT_3D ( 'NONE', #41, #442, #407 ) ;
#351 = CARTESIAN_POINT ( 'NONE',  ( 0.4799999999999999267, 9.375000000000000000, 0.0000000000000000000 ) ) ;
#352 = CARTESIAN_POINT ( 'NONE',  ( 1.135859906209170235E-15, 0.09999999999999947820, 0.0000000000000000000 ) ) ;
#353 = CARTESIAN_POINT ( 'NONE',  ( 0.0000000000000000000, 7.700000000000000178, 0.0000000000000000000 ) ) ;
#354 = DIRECTION ( 'NONE',  ( -1.224646799147353207E-16, 1.000000000000000000, -0.0000000000000000000 ) ) ;
#355 = VERTEX_POINT ( 'NONE', #261 ) ;
#356 =( GEOMETRIC_REPRESENTATION_CONTEXT ( 3 ) GLOBAL_UNCERTAINTY_ASSIGNED_CONTEXT ( ( #140 ) ) GLOBAL_UNIT_ASSIGNED_CONTEXT ( ( #174, #65, #331 ) ) REPRESENTATION_CONTEXT ( 'NONE', 'WORKASPACE' ) );
#357 = DIRECTION ( 'NONE',  ( 1.224646799147353207E-16, 1.499759782661857608E-32, 1.000000000000000000 ) ) ;
#358 = DIRECTION ( 'NONE',  ( 1.224646799147353207E-16, 1.499759782661857608E-32, 1.000000000000000000 ) ) ;
#359 = CARTESIAN_POINT ( 'NONE',  ( 1.148106374200643592E-15, 0.0000000000000000000, 0.0000000000000000000 ) ) ;
#360 = EDGE_CURVE ( 'NONE', #47, #411, #96, .T. ) ;
#361 = AXIS2_PLACEMENT_3D ( 'NONE', #352, #67, #213 ) ;
#362 = DIRECTION ( 'NONE',  ( -1.000000000000000000, 0.0000000000000000000, 0.0000000000000000000 ) ) ;
#363 = FACE_OUTER_BOUND ( 'NONE', #268, .T. ) ;
#364 = FACE_OUTER_BOUND ( 'NONE', #55, .T. ) ;
#365 = EDGE_LOOP ( 'NONE', ( #443, #234, #253, #370 ) ) ;
#366 = EDGE_CURVE ( 'NONE', #52, #406, #269, .T. ) ;
#367 = ORIENTED_EDGE ( 'NONE', *, *, #420, .T. ) ;
#368 = ORIENTED_EDGE ( 'NONE', *, *, #401, .F. ) ;
#369 = PLANE ( 'NONE',  #264 ) ;
#370 = ORIENTED_EDGE ( 'NONE', *, *, #445, .F. ) ;
#371 = AXIS2_PLACEMENT_3D ( 'NONE', #422, #20, #461 ) ;
#372 = DIRECTION ( 'NONE',  ( 1.000000000000000000, 0.0000000000000000000, 0.0000000000000000000 ) ) ;
#373 = TOROIDAL_SURFACE ( 'NONE', #127, 0.8340065792321456062, 0.1000000000000000056 ) ;
#374 = ORIENTED_EDGE ( 'NONE', *, *, #463, .T. ) ;
#375 = ORIENTED_EDGE ( 'NONE', *, *, #92, .T. ) ;
#376 = EDGE_CURVE ( 'NONE', #12, #328, #46, .T. ) ;
#377 = EDGE_LOOP ( 'NONE', ( #80, #292, #108, #222 ) ) ;
#378 = TOROIDAL_SURFACE ( 'NONE', #371, 0.8340065792321456062, 0.1000000000000000056 ) ;
#379 = DIRECTION ( 'NONE',  ( 1.000000000000000000, 0.0000000000000000000, 0.0000000000000000000 ) ) ;
#380 = ORIENTED_EDGE ( 'NONE', *, *, #429, .F. ) ;
#381 = FACE_OUTER_BOUND ( 'NONE', #303, .T. ) ;
#382 = DIRECTION ( 'NONE',  ( 1.224646799147353207E-16, -1.000000000000000000, 0.0000000000000000000 ) ) ;
#383 = EDGE_CURVE ( 'NONE', #43, #82, #143, .T. ) ;
#384 = CARTESIAN_POINT ( 'NONE',  ( -1.339713154369537735E-16, 8.793958809431664747, 0.0000000000000000000 ) ) ;
#385 =( CONVERSION_BASED_UNIT ( 'INCH', #90 ) LENGTH_UNIT ( ) NAMED_UNIT ( #276 ) );
#386 = DIRECTION ( 'NONE',  ( 1.224646799147353207E-16, -1.000000000000000000, 0.0000000000000000000 ) ) ;
#387 = DIMENSIONAL_EXPONENTS ( 1.000000000000000000, 0.0000000000000000000, 0.0000000000000000000, 0.0000000000000000000, 0.0000000000000000000, 0.0000000000000000000, 0.0000000000000000000 ) ;
#388 = CIRCLE ( 'NONE', #214, 0.5049999999999998934 ) ;
#389 = PRESENTATION_STYLE_ASSIGNMENT (( #84 ) ) ;
#390 = FACE_OUTER_BOUND ( 'NONE', #116, .T. ) ;
#391 = DIRECTION ( 'NONE',  ( 1.000000000000000000, 1.224646799147353207E-16, 0.0000000000000000000 ) ) ;
#392 = VERTEX_POINT ( 'NONE', #336 ) ;
#393 = EDGE_CURVE ( 'NONE', #408, #355, #68, .T. ) ;
#394 = DIRECTION ( 'NONE',  ( 1.224646799147353207E-16, -1.000000000000000000, 0.0000000000000000000 ) ) ;
#395 = FACE_OUTER_BOUND ( 'NONE', #81, .T. ) ;
#396 = TOROIDAL_SURFACE ( 'NONE', #151, 1.162499999999999201, 0.1000000000000000056 ) ;
#397 = DIRECTION ( 'NONE',  ( 0.0000000000000000000, 0.0000000000000000000, -1.000000000000000000 ) ) ;
#398 = AXIS2_PLACEMENT_3D ( 'NONE', #427, #88, #206 ) ;
#399 = CARTESIAN_POINT ( 'NONE',  ( -0.4799999999999999267, 9.349999999999999645, 5.878304635907294704E-17 ) ) ;
#400 = ORIENTED_EDGE ( 'NONE', *, *, #286, .T. ) ;
#401 = EDGE_CURVE ( 'NONE', #339, #230, #26, .T. ) ;
#402 = CYLINDRICAL_SURFACE ( 'NONE', #1, 0.5049999999999998934 ) ;
#403 = CIRCLE ( 'NONE', #8, 1.262499999999999956 ) ;
#404 = AXIS2_PLACEMENT_3D ( 'NONE', #131, #246, #60 ) ;
#405 = APPLICATION_CONTEXT ( 'automotive_design' ) ;
#406 = VERTEX_POINT ( 'NONE', #139 ) ;
#407 = DIRECTION ( 'NONE',  ( 1.000000000000000000, 0.0000000000000000000, 0.0000000000000000000 ) ) ;
#408 = VERTEX_POINT ( 'NONE', #285 ) ;
#409 = CIRCLE ( 'NONE', #341, 0.02500000000000000486 ) ;
#410 = ORIENTED_EDGE ( 'NONE', *, *, #115, .F. ) ;
#411 = VERTEX_POINT ( 'NONE', #72 ) ;
#412 = ADVANCED_BREP_SHAPE_REPRESENTATION ( 'Tippman12ozBottle', ( #283, #7 ), #356 ) ;
#413 = SURFACE_SIDE_STYLE ('',( #56 ) ) ;
#414 = ORIENTED_EDGE ( 'NONE', *, *, #194, .T. ) ;
#415 = TOROIDAL_SURFACE ( 'NONE', #176, 0.4799999999999999267, 0.02500000000000000139 ) ;
#416 = FACE_OUTER_BOUND ( 'NONE', #365, .T. ) ;
#417 = CARTESIAN_POINT ( 'NONE',  ( 4.462805006637561049E-17, 9.010584316249817149, 0.0000000000000000000 ) ) ;
#418 = AXIS2_PLACEMENT_3D ( 'NONE', #64, #354, #33 ) ;
#419 = DIRECTION ( 'NONE',  ( 1.000000000000000000, 1.224646799147353207E-16, 0.0000000000000000000 ) ) ;
#420 = EDGE_CURVE ( 'NONE', #328, #52, #124, .T. ) ;
#421 = DIRECTION ( 'NONE',  ( -1.224646799147353454E-16, 1.000000000000000000, -0.0000000000000000000 ) ) ;
#422 = CARTESIAN_POINT ( 'NONE',  ( 1.156066578395101432E-15, -0.06500000000000005773, 0.0000000000000000000 ) ) ;
#423 = PLANE ( 'NONE',  #333 ) ;
#424 = AXIS2_PLACEMENT_3D ( 'NONE', #452, #314, #304 ) ;
#425 = DIRECTION ( 'NONE',  ( 1.224646799147353207E-16, -1.000000000000000000, 0.0000000000000000000 ) ) ;
#426 = CARTESIAN_POINT ( 'NONE',  ( -0.5049999999999998934, 9.375000000000000000, 0.0000000000000000000 ) ) ;
#427 = CARTESIAN_POINT ( 'NONE',  ( 1.162500000000000311, 0.09999999999999961697, 1.423651904008797231E-16 ) ) ;
#428 = CLOSED_SHELL ( 'NONE', ( #160, #229, #109, #209, #83, #62, #182, #455, #101, #218, #322, #434, #40, #147, #298, #440, #6 ) ) ;
#429 = EDGE_CURVE ( 'NONE', #355, #161, #289, .T. ) ;
#430 = FACE_OUTER_BOUND ( 'NONE', #227, .T. ) ;
#431 = PLANE ( 'NONE',  #71 ) ;
#432 = AXIS2_PLACEMENT_3D ( 'NONE', #468, #259, #14 ) ;
#433 = DIRECTION ( 'NONE',  ( -1.224646799147353207E-16, 1.000000000000000000, -0.0000000000000000000 ) ) ;
#434 = ADVANCED_FACE ( 'NONE', ( #444 ), #402, .T. ) ;
#435 = EDGE_LOOP ( 'NONE', ( #186, #263, #410, #380 ) ) ;
#436 = AXIS2_PLACEMENT_3D ( 'NONE', #129, #462, #165 ) ;
#437 = DIRECTION ( 'NONE',  ( 1.224646799147353207E-16, -1.000000000000000000, 0.0000000000000000000 ) ) ;
#438 = ORIENTED_EDGE ( 'NONE', *, *, #115, .T. ) ;
#439 = MECHANICAL_DESIGN_GEOMETRIC_PRESENTATION_REPRESENTATION (  '', ( #340 ), #464 ) ;
#440 = ADVANCED_FACE ( 'NONE', ( #138 ), #111, .T. ) ;
#441 = ORIENTED_EDGE ( 'NONE', *, *, #383, .F. ) ;
#442 = DIRECTION ( 'NONE',  ( -1.224646799147353454E-16, 1.000000000000000000, -0.0000000000000000000 ) ) ;
#443 = ORIENTED_EDGE ( 'NONE', *, *, #204, .F. ) ;
#444 = FACE_OUTER_BOUND ( 'NONE', #275, .T. ) ;
#445 = EDGE_CURVE ( 'NONE', #163, #392, #316, .T. ) ;
#446 = ORIENTED_EDGE ( 'NONE', *, *, #337, .F. ) ;
#447 = AXIS2_PLACEMENT_3D ( 'NONE', #353, #94, #379 ) ;
#448 = ORIENTED_EDGE ( 'NONE', *, *, #349, .T. ) ;
#449 = DIRECTION ( 'NONE',  ( 1.000000000000000000, 0.0000000000000000000, 0.0000000000000000000 ) ) ;
#450 = ORIENTED_EDGE ( 'NONE', *, *, #401, .T. ) ;
#451 = PRODUCT ( 'Tippman12ozBottle', 'Tippman12ozBottle', '', ( #250 ) ) ;
#452 = CARTESIAN_POINT ( 'NONE',  ( 0.0000000000000000000, 9.375000000000000000, 0.0000000000000000000 ) ) ;
#453 = DIRECTION ( 'NONE',  ( -1.224646799147353207E-16, 1.000000000000000000, 0.0000000000000000000 ) ) ;
#454 = AXIS2_PLACEMENT_3D ( 'NONE', #181, #437, #320 ) ;
#455 = ADVANCED_FACE ( 'NONE', ( #430 ), #369, .F. ) ;
#456 = DIRECTION ( 'NONE',  ( 1.224646799147353207E-16, -1.000000000000000000, 0.0000000000000000000 ) ) ;
#457 = DIRECTION ( 'NONE',  ( 1.000000000000000000, 0.0000000000000000000, 0.0000000000000000000 ) ) ;
#458 = AXIS2_PLACEMENT_3D ( 'NONE', #173, #171, #457 ) ;
#459 = CARTESIAN_POINT ( 'NONE',  ( 2.051283388571816887E-16, 7.700000000000000178, 0.0000000000000000000 ) ) ;
#460 = CARTESIAN_POINT ( 'NONE',  ( 0.6302066115702478211, 8.793958809431664747, 0.0000000000000000000 ) ) ;
#461 = DIRECTION ( 'NONE',  ( 1.000000000000000000, 1.224646799147353207E-16, 0.0000000000000000000 ) ) ;
#462 = DIRECTION ( 'NONE',  ( -1.224646799147353207E-16, 1.000000000000000000, -0.0000000000000000000 ) ) ;
#463 = EDGE_CURVE ( 'NONE', #339, #149, #326, .T. ) ;
#464 =( GEOMETRIC_REPRESENTATION_CONTEXT ( 3 ) GLOBAL_UNCERTAINTY_ASSIGNED_CONTEXT ( ( #465 ) ) GLOBAL_UNIT_ASSIGNED_CONTEXT ( ( #385, #114, #178 ) ) REPRESENTATION_CONTEXT ( 'NONE', 'WORKASPACE' ) );
#465 = UNCERTAINTY_MEASURE_WITH_UNIT (LENGTH_MEASURE( 1.000000000000000082E-05 ), #385, 'distance_accuracy_value', 'NONE');
#466 = CARTESIAN_POINT ( 'NONE',  ( 1.262500000000000178, 0.09999999999999963085, 1.546116583923532527E-16 ) ) ;
#467 = APPLICATION_PROTOCOL_DEFINITION ( 'draft international standard', 'automotive_design', 1998, #405 ) ;
#468 = CARTESIAN_POINT ( 'NONE',  ( 0.0000000000000000000, 9.375000000000000000, 0.0000000000000000000 ) ) ;
#469 = ORIENTED_EDGE ( 'NONE', *, *, #70, .F. ) ;
#470 = EDGE_CURVE ( 'NONE', #52, #149, #319, .T. ) ;
#471 = ORIENTED_EDGE ( 'NONE', *, *, #312, .F. ) ;
ENDSEC;
END-ISO-10303-21;
