ISO-10303-21;
HEADER;
/* Generated by software containing ST-Developer
 * from STEP Tools, Inc. (www.steptools.com) 
 */

FILE_DESCRIPTION(
/* description */ (''),
/* implementation_level */ '2;1');

FILE_NAME(
/* name */ 'Sheet Metal Inner Mounting Bracket.step',
/* time_stamp */ '2024-08-21T09:40:57-04:00',
/* author */ (''),
/* organization */ (''),
/* preprocessor_version */ 'ST-DEVELOPER v20',
/* originating_system */ 'Autodesk Translation Framework v13.14.0.145',

/* authorisation */ '');

FILE_SCHEMA (('AUTOMOTIVE_DESIGN { 1 0 10303 214 3 1 1 }'));
ENDSEC;

DATA;
#10=MECHANICAL_DESIGN_GEOMETRIC_PRESENTATION_REPRESENTATION('',(#13),#850);
#11=SHAPE_REPRESENTATION_RELATIONSHIP('SRR','None',#860,#12);
#12=ADVANCED_BREP_SHAPE_REPRESENTATION('',(#14),#849);
#13=STYLED_ITEM('',(#869),#14);
#14=MANIFOLD_SOLID_BREP('Body1',#494);
#15=FACE_BOUND('',#68,.T.);
#16=FACE_BOUND('',#69,.T.);
#17=FACE_BOUND('',#70,.T.);
#18=FACE_BOUND('',#75,.T.);
#19=FACE_BOUND('',#76,.T.);
#20=FACE_BOUND('',#92,.T.);
#21=FACE_BOUND('',#93,.T.);
#22=FACE_BOUND('',#100,.T.);
#23=FACE_BOUND('',#101,.T.);
#24=FACE_BOUND('',#102,.T.);
#25=PLANE('',#511);
#26=PLANE('',#518);
#27=PLANE('',#524);
#28=PLANE('',#528);
#29=PLANE('',#533);
#30=PLANE('',#536);
#31=PLANE('',#547);
#32=PLANE('',#551);
#33=PLANE('',#553);
#34=PLANE('',#554);
#35=PLANE('',#555);
#36=PLANE('',#556);
#37=PLANE('',#558);
#38=PLANE('',#560);
#39=FACE_OUTER_BOUND('',#66,.T.);
#40=FACE_OUTER_BOUND('',#67,.T.);
#41=FACE_OUTER_BOUND('',#71,.T.);
#42=FACE_OUTER_BOUND('',#72,.T.);
#43=FACE_OUTER_BOUND('',#73,.T.);
#44=FACE_OUTER_BOUND('',#74,.T.);
#45=FACE_OUTER_BOUND('',#77,.T.);
#46=FACE_OUTER_BOUND('',#78,.T.);
#47=FACE_OUTER_BOUND('',#79,.T.);
#48=FACE_OUTER_BOUND('',#80,.T.);
#49=FACE_OUTER_BOUND('',#81,.T.);
#50=FACE_OUTER_BOUND('',#82,.T.);
#51=FACE_OUTER_BOUND('',#83,.T.);
#52=FACE_OUTER_BOUND('',#84,.T.);
#53=FACE_OUTER_BOUND('',#85,.T.);
#54=FACE_OUTER_BOUND('',#86,.T.);
#55=FACE_OUTER_BOUND('',#87,.T.);
#56=FACE_OUTER_BOUND('',#88,.T.);
#57=FACE_OUTER_BOUND('',#89,.T.);
#58=FACE_OUTER_BOUND('',#90,.T.);
#59=FACE_OUTER_BOUND('',#91,.T.);
#60=FACE_OUTER_BOUND('',#94,.T.);
#61=FACE_OUTER_BOUND('',#95,.T.);
#62=FACE_OUTER_BOUND('',#96,.T.);
#63=FACE_OUTER_BOUND('',#97,.T.);
#64=FACE_OUTER_BOUND('',#98,.T.);
#65=FACE_OUTER_BOUND('',#99,.T.);
#66=EDGE_LOOP('',(#320,#321,#322,#323));
#67=EDGE_LOOP('',(#324,#325,#326,#327,#328,#329,#330,#331,#332,#333));
#68=EDGE_LOOP('',(#334));
#69=EDGE_LOOP('',(#335));
#70=EDGE_LOOP('',(#336));
#71=EDGE_LOOP('',(#337,#338,#339,#340));
#72=EDGE_LOOP('',(#341,#342,#343,#344));
#73=EDGE_LOOP('',(#345,#346,#347,#348));
#74=EDGE_LOOP('',(#349,#350,#351,#352,#353,#354));
#75=EDGE_LOOP('',(#355));
#76=EDGE_LOOP('',(#356));
#77=EDGE_LOOP('',(#357,#358,#359,#360));
#78=EDGE_LOOP('',(#361,#362,#363,#364));
#79=EDGE_LOOP('',(#365,#366,#367,#368));
#80=EDGE_LOOP('',(#369,#370,#371,#372));
#81=EDGE_LOOP('',(#373,#374,#375,#376));
#82=EDGE_LOOP('',(#377,#378,#379,#380));
#83=EDGE_LOOP('',(#381,#382,#383,#384));
#84=EDGE_LOOP('',(#385,#386,#387,#388));
#85=EDGE_LOOP('',(#389,#390,#391,#392));
#86=EDGE_LOOP('',(#393,#394,#395,#396));
#87=EDGE_LOOP('',(#397,#398,#399,#400));
#88=EDGE_LOOP('',(#401,#402,#403,#404));
#89=EDGE_LOOP('',(#405,#406,#407,#408));
#90=EDGE_LOOP('',(#409,#410,#411,#412));
#91=EDGE_LOOP('',(#413,#414,#415,#416,#417,#418));
#92=EDGE_LOOP('',(#419));
#93=EDGE_LOOP('',(#420));
#94=EDGE_LOOP('',(#421,#422,#423,#424));
#95=EDGE_LOOP('',(#425,#426,#427,#428));
#96=EDGE_LOOP('',(#429,#430,#431,#432));
#97=EDGE_LOOP('',(#433,#434,#435,#436));
#98=EDGE_LOOP('',(#437,#438,#439,#440));
#99=EDGE_LOOP('',(#441,#442,#443,#444,#445,#446,#447,#448,#449,#450));
#100=EDGE_LOOP('',(#451));
#101=EDGE_LOOP('',(#452));
#102=EDGE_LOOP('',(#453));
#103=LINE('',#716,#144);
#104=LINE('',#719,#145);
#105=LINE('',#722,#146);
#106=LINE('',#726,#147);
#107=LINE('',#730,#148);
#108=LINE('',#734,#149);
#109=LINE('',#736,#150);
#110=LINE('',#737,#151);
#111=LINE('',#746,#152);
#112=LINE('',#747,#153);
#113=LINE('',#751,#154);
#114=LINE('',#757,#155);
#115=LINE('',#760,#156);
#116=LINE('',#763,#157);
#117=LINE('',#767,#158);
#118=LINE('',#769,#159);
#119=LINE('',#770,#160);
#120=LINE('',#777,#161);
#121=LINE('',#778,#162);
#122=LINE('',#782,#163);
#123=LINE('',#785,#164);
#124=LINE('',#788,#165);
#125=LINE('',#791,#166);
#126=LINE('',#792,#167);
#127=LINE('',#795,#168);
#128=LINE('',#798,#169);
#129=LINE('',#802,#170);
#130=LINE('',#806,#171);
#131=LINE('',#809,#172);
#132=LINE('',#813,#173);
#133=LINE('',#817,#174);
#134=LINE('',#821,#175);
#135=LINE('',#822,#176);
#136=LINE('',#827,#177);
#137=LINE('',#831,#178);
#138=LINE('',#833,#179);
#139=LINE('',#835,#180);
#140=LINE('',#836,#181);
#141=LINE('',#838,#182);
#142=LINE('',#840,#183);
#143=LINE('',#841,#184);
#144=VECTOR('',#567,0.393700787401575);
#145=VECTOR('',#570,0.393700787401575);
#146=VECTOR('',#573,0.393700787401575);
#147=VECTOR('',#576,0.393700787401575);
#148=VECTOR('',#579,0.393700787401575);
#149=VECTOR('',#582,0.393700787401575);
#150=VECTOR('',#583,0.393700787401575);
#151=VECTOR('',#584,0.393700787401575);
#152=VECTOR('',#593,0.393700787401575);
#153=VECTOR('',#594,0.393700787401575);
#154=VECTOR('',#599,0.393700787401575);
#155=VECTOR('',#604,0.393700787401575);
#156=VECTOR('',#607,0.393700787401575);
#157=VECTOR('',#610,0.393700787401575);
#158=VECTOR('',#613,0.393700787401575);
#159=VECTOR('',#614,0.393700787401575);
#160=VECTOR('',#615,0.393700787401575);
#161=VECTOR('',#622,0.393700787401575);
#162=VECTOR('',#623,0.393700787401575);
#163=VECTOR('',#628,0.393700787401575);
#164=VECTOR('',#631,0.393700787401575);
#165=VECTOR('',#634,0.393700787401575);
#166=VECTOR('',#637,0.393700787401575);
#167=VECTOR('',#638,0.393700787401575);
#168=VECTOR('',#641,0.393700787401575);
#169=VECTOR('',#646,0.393700787401575);
#170=VECTOR('',#651,0.1275);
#171=VECTOR('',#656,0.1275);
#172=VECTOR('',#659,0.1275);
#173=VECTOR('',#664,0.1275);
#174=VECTOR('',#669,0.1275);
#175=VECTOR('',#674,0.393700787401575);
#176=VECTOR('',#675,0.393700787401575);
#177=VECTOR('',#680,0.393700787401575);
#178=VECTOR('',#685,0.393700787401575);
#179=VECTOR('',#688,0.393700787401575);
#180=VECTOR('',#691,0.393700787401575);
#181=VECTOR('',#692,0.393700787401575);
#182=VECTOR('',#695,0.393700787401575);
#183=VECTOR('',#698,0.393700787401575);
#184=VECTOR('',#699,0.393700787401575);
#185=CIRCLE('',#509,0.15);
#186=CIRCLE('',#510,0.15);
#187=CIRCLE('',#512,0.15);
#188=CIRCLE('',#513,0.15);
#189=CIRCLE('',#514,0.15);
#190=CIRCLE('',#515,0.1275);
#191=CIRCLE('',#516,0.1275);
#192=CIRCLE('',#517,0.1275);
#193=CIRCLE('',#520,0.15);
#194=CIRCLE('',#522,0.15);
#195=CIRCLE('',#523,0.15);
#196=CIRCLE('',#525,0.15);
#197=CIRCLE('',#526,0.1275);
#198=CIRCLE('',#527,0.1275);
#199=CIRCLE('',#530,0.15);
#200=CIRCLE('',#532,0.15);
#201=CIRCLE('',#535,0.15);
#202=CIRCLE('',#538,0.1275);
#203=CIRCLE('',#540,0.1275);
#204=CIRCLE('',#542,0.1275);
#205=CIRCLE('',#544,0.1275);
#206=CIRCLE('',#546,0.1275);
#207=CIRCLE('',#549,0.25);
#208=CIRCLE('',#550,0.25);
#209=CIRCLE('',#552,0.125);
#210=CIRCLE('',#557,0.125);
#211=VERTEX_POINT('',#712);
#212=VERTEX_POINT('',#713);
#213=VERTEX_POINT('',#715);
#214=VERTEX_POINT('',#717);
#215=VERTEX_POINT('',#721);
#216=VERTEX_POINT('',#723);
#217=VERTEX_POINT('',#725);
#218=VERTEX_POINT('',#727);
#219=VERTEX_POINT('',#729);
#220=VERTEX_POINT('',#731);
#221=VERTEX_POINT('',#733);
#222=VERTEX_POINT('',#735);
#223=VERTEX_POINT('',#738);
#224=VERTEX_POINT('',#740);
#225=VERTEX_POINT('',#742);
#226=VERTEX_POINT('',#745);
#227=VERTEX_POINT('',#749);
#228=VERTEX_POINT('',#753);
#229=VERTEX_POINT('',#754);
#230=VERTEX_POINT('',#756);
#231=VERTEX_POINT('',#758);
#232=VERTEX_POINT('',#762);
#233=VERTEX_POINT('',#764);
#234=VERTEX_POINT('',#766);
#235=VERTEX_POINT('',#768);
#236=VERTEX_POINT('',#771);
#237=VERTEX_POINT('',#773);
#238=VERTEX_POINT('',#776);
#239=VERTEX_POINT('',#780);
#240=VERTEX_POINT('',#784);
#241=VERTEX_POINT('',#786);
#242=VERTEX_POINT('',#790);
#243=VERTEX_POINT('',#794);
#244=VERTEX_POINT('',#800);
#245=VERTEX_POINT('',#804);
#246=VERTEX_POINT('',#808);
#247=VERTEX_POINT('',#812);
#248=VERTEX_POINT('',#816);
#249=VERTEX_POINT('',#820);
#250=VERTEX_POINT('',#824);
#251=VERTEX_POINT('',#826);
#252=VERTEX_POINT('',#830);
#253=EDGE_CURVE('',#211,#212,#185,.T.);
#254=EDGE_CURVE('',#212,#213,#103,.T.);
#255=EDGE_CURVE('',#213,#214,#186,.T.);
#256=EDGE_CURVE('',#214,#211,#104,.T.);
#257=EDGE_CURVE('',#211,#215,#105,.T.);
#258=EDGE_CURVE('',#216,#215,#187,.T.);
#259=EDGE_CURVE('',#216,#217,#106,.T.);
#260=EDGE_CURVE('',#218,#217,#188,.T.);
#261=EDGE_CURVE('',#218,#219,#107,.T.);
#262=EDGE_CURVE('',#220,#219,#189,.T.);
#263=EDGE_CURVE('',#220,#221,#108,.T.);
#264=EDGE_CURVE('',#222,#221,#109,.T.);
#265=EDGE_CURVE('',#222,#212,#110,.T.);
#266=EDGE_CURVE('',#223,#223,#190,.T.);
#267=EDGE_CURVE('',#224,#224,#191,.T.);
#268=EDGE_CURVE('',#225,#225,#192,.T.);
#269=EDGE_CURVE('',#226,#214,#111,.T.);
#270=EDGE_CURVE('',#215,#226,#112,.T.);
#271=EDGE_CURVE('',#226,#227,#193,.T.);
#272=EDGE_CURVE('',#227,#216,#113,.T.);
#273=EDGE_CURVE('',#228,#229,#194,.T.);
#274=EDGE_CURVE('',#229,#230,#114,.T.);
#275=EDGE_CURVE('',#230,#231,#195,.T.);
#276=EDGE_CURVE('',#231,#228,#115,.T.);
#277=EDGE_CURVE('',#232,#230,#116,.T.);
#278=EDGE_CURVE('',#233,#232,#196,.T.);
#279=EDGE_CURVE('',#234,#233,#117,.T.);
#280=EDGE_CURVE('',#234,#235,#118,.T.);
#281=EDGE_CURVE('',#231,#235,#119,.T.);
#282=EDGE_CURVE('',#236,#236,#197,.T.);
#283=EDGE_CURVE('',#237,#237,#198,.T.);
#284=EDGE_CURVE('',#238,#229,#120,.T.);
#285=EDGE_CURVE('',#232,#238,#121,.T.);
#286=EDGE_CURVE('',#238,#239,#199,.T.);
#287=EDGE_CURVE('',#239,#233,#122,.T.);
#288=EDGE_CURVE('',#219,#240,#123,.T.);
#289=EDGE_CURVE('',#240,#241,#200,.T.);
#290=EDGE_CURVE('',#241,#220,#124,.T.);
#291=EDGE_CURVE('',#242,#218,#125,.T.);
#292=EDGE_CURVE('',#240,#242,#126,.T.);
#293=EDGE_CURVE('',#217,#243,#127,.T.);
#294=EDGE_CURVE('',#243,#242,#201,.T.);
#295=EDGE_CURVE('',#243,#227,#128,.T.);
#296=EDGE_CURVE('',#244,#244,#202,.T.);
#297=EDGE_CURVE('',#244,#236,#129,.T.);
#298=EDGE_CURVE('',#245,#245,#203,.T.);
#299=EDGE_CURVE('',#245,#237,#130,.T.);
#300=EDGE_CURVE('',#223,#246,#131,.T.);
#301=EDGE_CURVE('',#246,#246,#204,.T.);
#302=EDGE_CURVE('',#224,#247,#132,.T.);
#303=EDGE_CURVE('',#247,#247,#205,.T.);
#304=EDGE_CURVE('',#225,#248,#133,.T.);
#305=EDGE_CURVE('',#248,#248,#206,.T.);
#306=EDGE_CURVE('',#235,#249,#134,.T.);
#307=EDGE_CURVE('',#228,#249,#135,.T.);
#308=EDGE_CURVE('',#250,#234,#207,.T.);
#309=EDGE_CURVE('',#250,#251,#136,.T.);
#310=EDGE_CURVE('',#235,#251,#208,.T.);
#311=EDGE_CURVE('',#252,#234,#137,.T.);
#312=EDGE_CURVE('',#221,#252,#209,.T.);
#313=EDGE_CURVE('',#250,#221,#138,.T.);
#314=EDGE_CURVE('',#249,#252,#139,.T.);
#315=EDGE_CURVE('',#252,#239,#140,.T.);
#316=EDGE_CURVE('',#250,#241,#141,.T.);
#317=EDGE_CURVE('',#251,#222,#142,.T.);
#318=EDGE_CURVE('',#213,#251,#143,.T.);
#319=EDGE_CURVE('',#249,#222,#210,.T.);
#320=ORIENTED_EDGE('',*,*,#253,.T.);
#321=ORIENTED_EDGE('',*,*,#254,.T.);
#322=ORIENTED_EDGE('',*,*,#255,.T.);
#323=ORIENTED_EDGE('',*,*,#256,.T.);
#324=ORIENTED_EDGE('',*,*,#253,.F.);
#325=ORIENTED_EDGE('',*,*,#257,.T.);
#326=ORIENTED_EDGE('',*,*,#258,.F.);
#327=ORIENTED_EDGE('',*,*,#259,.T.);
#328=ORIENTED_EDGE('',*,*,#260,.F.);
#329=ORIENTED_EDGE('',*,*,#261,.T.);
#330=ORIENTED_EDGE('',*,*,#262,.F.);
#331=ORIENTED_EDGE('',*,*,#263,.T.);
#332=ORIENTED_EDGE('',*,*,#264,.F.);
#333=ORIENTED_EDGE('',*,*,#265,.T.);
#334=ORIENTED_EDGE('',*,*,#266,.T.);
#335=ORIENTED_EDGE('',*,*,#267,.T.);
#336=ORIENTED_EDGE('',*,*,#268,.T.);
#337=ORIENTED_EDGE('',*,*,#256,.F.);
#338=ORIENTED_EDGE('',*,*,#269,.F.);
#339=ORIENTED_EDGE('',*,*,#270,.F.);
#340=ORIENTED_EDGE('',*,*,#257,.F.);
#341=ORIENTED_EDGE('',*,*,#258,.T.);
#342=ORIENTED_EDGE('',*,*,#270,.T.);
#343=ORIENTED_EDGE('',*,*,#271,.T.);
#344=ORIENTED_EDGE('',*,*,#272,.T.);
#345=ORIENTED_EDGE('',*,*,#273,.T.);
#346=ORIENTED_EDGE('',*,*,#274,.T.);
#347=ORIENTED_EDGE('',*,*,#275,.T.);
#348=ORIENTED_EDGE('',*,*,#276,.T.);
#349=ORIENTED_EDGE('',*,*,#275,.F.);
#350=ORIENTED_EDGE('',*,*,#277,.F.);
#351=ORIENTED_EDGE('',*,*,#278,.F.);
#352=ORIENTED_EDGE('',*,*,#279,.F.);
#353=ORIENTED_EDGE('',*,*,#280,.T.);
#354=ORIENTED_EDGE('',*,*,#281,.F.);
#355=ORIENTED_EDGE('',*,*,#282,.T.);
#356=ORIENTED_EDGE('',*,*,#283,.T.);
#357=ORIENTED_EDGE('',*,*,#274,.F.);
#358=ORIENTED_EDGE('',*,*,#284,.F.);
#359=ORIENTED_EDGE('',*,*,#285,.F.);
#360=ORIENTED_EDGE('',*,*,#277,.T.);
#361=ORIENTED_EDGE('',*,*,#286,.T.);
#362=ORIENTED_EDGE('',*,*,#287,.T.);
#363=ORIENTED_EDGE('',*,*,#278,.T.);
#364=ORIENTED_EDGE('',*,*,#285,.T.);
#365=ORIENTED_EDGE('',*,*,#262,.T.);
#366=ORIENTED_EDGE('',*,*,#288,.T.);
#367=ORIENTED_EDGE('',*,*,#289,.T.);
#368=ORIENTED_EDGE('',*,*,#290,.T.);
#369=ORIENTED_EDGE('',*,*,#288,.F.);
#370=ORIENTED_EDGE('',*,*,#261,.F.);
#371=ORIENTED_EDGE('',*,*,#291,.F.);
#372=ORIENTED_EDGE('',*,*,#292,.F.);
#373=ORIENTED_EDGE('',*,*,#260,.T.);
#374=ORIENTED_EDGE('',*,*,#293,.T.);
#375=ORIENTED_EDGE('',*,*,#294,.T.);
#376=ORIENTED_EDGE('',*,*,#291,.T.);
#377=ORIENTED_EDGE('',*,*,#272,.F.);
#378=ORIENTED_EDGE('',*,*,#295,.F.);
#379=ORIENTED_EDGE('',*,*,#293,.F.);
#380=ORIENTED_EDGE('',*,*,#259,.F.);
#381=ORIENTED_EDGE('',*,*,#296,.F.);
#382=ORIENTED_EDGE('',*,*,#297,.T.);
#383=ORIENTED_EDGE('',*,*,#282,.F.);
#384=ORIENTED_EDGE('',*,*,#297,.F.);
#385=ORIENTED_EDGE('',*,*,#298,.F.);
#386=ORIENTED_EDGE('',*,*,#299,.T.);
#387=ORIENTED_EDGE('',*,*,#283,.F.);
#388=ORIENTED_EDGE('',*,*,#299,.F.);
#389=ORIENTED_EDGE('',*,*,#266,.F.);
#390=ORIENTED_EDGE('',*,*,#300,.T.);
#391=ORIENTED_EDGE('',*,*,#301,.F.);
#392=ORIENTED_EDGE('',*,*,#300,.F.);
#393=ORIENTED_EDGE('',*,*,#267,.F.);
#394=ORIENTED_EDGE('',*,*,#302,.T.);
#395=ORIENTED_EDGE('',*,*,#303,.F.);
#396=ORIENTED_EDGE('',*,*,#302,.F.);
#397=ORIENTED_EDGE('',*,*,#268,.F.);
#398=ORIENTED_EDGE('',*,*,#304,.T.);
#399=ORIENTED_EDGE('',*,*,#305,.F.);
#400=ORIENTED_EDGE('',*,*,#304,.F.);
#401=ORIENTED_EDGE('',*,*,#276,.F.);
#402=ORIENTED_EDGE('',*,*,#281,.T.);
#403=ORIENTED_EDGE('',*,*,#306,.T.);
#404=ORIENTED_EDGE('',*,*,#307,.F.);
#405=ORIENTED_EDGE('',*,*,#280,.F.);
#406=ORIENTED_EDGE('',*,*,#308,.F.);
#407=ORIENTED_EDGE('',*,*,#309,.T.);
#408=ORIENTED_EDGE('',*,*,#310,.F.);
#409=ORIENTED_EDGE('',*,*,#311,.F.);
#410=ORIENTED_EDGE('',*,*,#312,.F.);
#411=ORIENTED_EDGE('',*,*,#313,.F.);
#412=ORIENTED_EDGE('',*,*,#308,.T.);
#413=ORIENTED_EDGE('',*,*,#273,.F.);
#414=ORIENTED_EDGE('',*,*,#307,.T.);
#415=ORIENTED_EDGE('',*,*,#314,.T.);
#416=ORIENTED_EDGE('',*,*,#315,.T.);
#417=ORIENTED_EDGE('',*,*,#286,.F.);
#418=ORIENTED_EDGE('',*,*,#284,.T.);
#419=ORIENTED_EDGE('',*,*,#296,.T.);
#420=ORIENTED_EDGE('',*,*,#298,.T.);
#421=ORIENTED_EDGE('',*,*,#290,.F.);
#422=ORIENTED_EDGE('',*,*,#316,.F.);
#423=ORIENTED_EDGE('',*,*,#313,.T.);
#424=ORIENTED_EDGE('',*,*,#263,.F.);
#425=ORIENTED_EDGE('',*,*,#254,.F.);
#426=ORIENTED_EDGE('',*,*,#265,.F.);
#427=ORIENTED_EDGE('',*,*,#317,.F.);
#428=ORIENTED_EDGE('',*,*,#318,.F.);
#429=ORIENTED_EDGE('',*,*,#306,.F.);
#430=ORIENTED_EDGE('',*,*,#310,.T.);
#431=ORIENTED_EDGE('',*,*,#317,.T.);
#432=ORIENTED_EDGE('',*,*,#319,.F.);
#433=ORIENTED_EDGE('',*,*,#287,.F.);
#434=ORIENTED_EDGE('',*,*,#315,.F.);
#435=ORIENTED_EDGE('',*,*,#311,.T.);
#436=ORIENTED_EDGE('',*,*,#279,.T.);
#437=ORIENTED_EDGE('',*,*,#314,.F.);
#438=ORIENTED_EDGE('',*,*,#319,.T.);
#439=ORIENTED_EDGE('',*,*,#264,.T.);
#440=ORIENTED_EDGE('',*,*,#312,.T.);
#441=ORIENTED_EDGE('',*,*,#255,.F.);
#442=ORIENTED_EDGE('',*,*,#318,.T.);
#443=ORIENTED_EDGE('',*,*,#309,.F.);
#444=ORIENTED_EDGE('',*,*,#316,.T.);
#445=ORIENTED_EDGE('',*,*,#289,.F.);
#446=ORIENTED_EDGE('',*,*,#292,.T.);
#447=ORIENTED_EDGE('',*,*,#294,.F.);
#448=ORIENTED_EDGE('',*,*,#295,.T.);
#449=ORIENTED_EDGE('',*,*,#271,.F.);
#450=ORIENTED_EDGE('',*,*,#269,.T.);
#451=ORIENTED_EDGE('',*,*,#301,.T.);
#452=ORIENTED_EDGE('',*,*,#303,.T.);
#453=ORIENTED_EDGE('',*,*,#305,.T.);
#454=CYLINDRICAL_SURFACE('',#508,0.15);
#455=CYLINDRICAL_SURFACE('',#519,0.15);
#456=CYLINDRICAL_SURFACE('',#521,0.15);
#457=CYLINDRICAL_SURFACE('',#529,0.15);
#458=CYLINDRICAL_SURFACE('',#531,0.15);
#459=CYLINDRICAL_SURFACE('',#534,0.15);
#460=CYLINDRICAL_SURFACE('',#537,0.1275);
#461=CYLINDRICAL_SURFACE('',#539,0.1275);
#462=CYLINDRICAL_SURFACE('',#541,0.1275);
#463=CYLINDRICAL_SURFACE('',#543,0.1275);
#464=CYLINDRICAL_SURFACE('',#545,0.1275);
#465=CYLINDRICAL_SURFACE('',#548,0.25);
#466=CYLINDRICAL_SURFACE('',#559,0.125);
#467=ADVANCED_FACE('',(#39),#454,.T.);
#468=ADVANCED_FACE('',(#40,#15,#16,#17),#25,.T.);
#469=ADVANCED_FACE('',(#41),#26,.T.);
#470=ADVANCED_FACE('',(#42),#455,.T.);
#471=ADVANCED_FACE('',(#43),#456,.T.);
#472=ADVANCED_FACE('',(#44,#18,#19),#27,.F.);
#473=ADVANCED_FACE('',(#45),#28,.T.);
#474=ADVANCED_FACE('',(#46),#457,.T.);
#475=ADVANCED_FACE('',(#47),#458,.T.);
#476=ADVANCED_FACE('',(#48),#29,.T.);
#477=ADVANCED_FACE('',(#49),#459,.T.);
#478=ADVANCED_FACE('',(#50),#30,.T.);
#479=ADVANCED_FACE('',(#51),#460,.F.);
#480=ADVANCED_FACE('',(#52),#461,.F.);
#481=ADVANCED_FACE('',(#53),#462,.F.);
#482=ADVANCED_FACE('',(#54),#463,.F.);
#483=ADVANCED_FACE('',(#55),#464,.F.);
#484=ADVANCED_FACE('',(#56),#31,.T.);
#485=ADVANCED_FACE('',(#57),#465,.T.);
#486=ADVANCED_FACE('',(#58),#32,.T.);
#487=ADVANCED_FACE('',(#59,#20,#21),#33,.T.);
#488=ADVANCED_FACE('',(#60),#34,.T.);
#489=ADVANCED_FACE('',(#61),#35,.T.);
#490=ADVANCED_FACE('',(#62),#36,.T.);
#491=ADVANCED_FACE('',(#63),#37,.T.);
#492=ADVANCED_FACE('',(#64),#466,.F.);
#493=ADVANCED_FACE('',(#65,#22,#23,#24),#38,.F.);
#494=CLOSED_SHELL('',(#467,#468,#469,#470,#471,#472,#473,#474,#475,#476,
#477,#478,#479,#480,#481,#482,#483,#484,#485,#486,#487,#488,#489,#490,#491,
#492,#493));
#495=DERIVED_UNIT_ELEMENT(#497,1.);
#496=DERIVED_UNIT_ELEMENT(#854,-3.);
#497=(
MASS_UNIT()
NAMED_UNIT(*)
SI_UNIT(.KILO.,.GRAM.)
);
#498=DERIVED_UNIT((#495,#496));
#499=MEASURE_REPRESENTATION_ITEM('density measure',
POSITIVE_RATIO_MEASURE(7850.),#498);
#500=PROPERTY_DEFINITION_REPRESENTATION(#505,#502);
#501=PROPERTY_DEFINITION_REPRESENTATION(#506,#503);
#502=REPRESENTATION('material name',(#504),#849);
#503=REPRESENTATION('density',(#499),#849);
#504=DESCRIPTIVE_REPRESENTATION_ITEM('Steel','Steel');
#505=PROPERTY_DEFINITION('material property','material name',#862);
#506=PROPERTY_DEFINITION('material property','density of part',#862);
#507=AXIS2_PLACEMENT_3D('',#710,#561,#562);
#508=AXIS2_PLACEMENT_3D('',#711,#563,#564);
#509=AXIS2_PLACEMENT_3D('',#714,#565,#566);
#510=AXIS2_PLACEMENT_3D('',#718,#568,#569);
#511=AXIS2_PLACEMENT_3D('',#720,#571,#572);
#512=AXIS2_PLACEMENT_3D('',#724,#574,#575);
#513=AXIS2_PLACEMENT_3D('',#728,#577,#578);
#514=AXIS2_PLACEMENT_3D('',#732,#580,#581);
#515=AXIS2_PLACEMENT_3D('',#739,#585,#586);
#516=AXIS2_PLACEMENT_3D('',#741,#587,#588);
#517=AXIS2_PLACEMENT_3D('',#743,#589,#590);
#518=AXIS2_PLACEMENT_3D('',#744,#591,#592);
#519=AXIS2_PLACEMENT_3D('',#748,#595,#596);
#520=AXIS2_PLACEMENT_3D('',#750,#597,#598);
#521=AXIS2_PLACEMENT_3D('',#752,#600,#601);
#522=AXIS2_PLACEMENT_3D('',#755,#602,#603);
#523=AXIS2_PLACEMENT_3D('',#759,#605,#606);
#524=AXIS2_PLACEMENT_3D('',#761,#608,#609);
#525=AXIS2_PLACEMENT_3D('',#765,#611,#612);
#526=AXIS2_PLACEMENT_3D('',#772,#616,#617);
#527=AXIS2_PLACEMENT_3D('',#774,#618,#619);
#528=AXIS2_PLACEMENT_3D('',#775,#620,#621);
#529=AXIS2_PLACEMENT_3D('',#779,#624,#625);
#530=AXIS2_PLACEMENT_3D('',#781,#626,#627);
#531=AXIS2_PLACEMENT_3D('',#783,#629,#630);
#532=AXIS2_PLACEMENT_3D('',#787,#632,#633);
#533=AXIS2_PLACEMENT_3D('',#789,#635,#636);
#534=AXIS2_PLACEMENT_3D('',#793,#639,#640);
#535=AXIS2_PLACEMENT_3D('',#796,#642,#643);
#536=AXIS2_PLACEMENT_3D('',#797,#644,#645);
#537=AXIS2_PLACEMENT_3D('',#799,#647,#648);
#538=AXIS2_PLACEMENT_3D('',#801,#649,#650);
#539=AXIS2_PLACEMENT_3D('',#803,#652,#653);
#540=AXIS2_PLACEMENT_3D('',#805,#654,#655);
#541=AXIS2_PLACEMENT_3D('',#807,#657,#658);
#542=AXIS2_PLACEMENT_3D('',#810,#660,#661);
#543=AXIS2_PLACEMENT_3D('',#811,#662,#663);
#544=AXIS2_PLACEMENT_3D('',#814,#665,#666);
#545=AXIS2_PLACEMENT_3D('',#815,#667,#668);
#546=AXIS2_PLACEMENT_3D('',#818,#670,#671);
#547=AXIS2_PLACEMENT_3D('',#819,#672,#673);
#548=AXIS2_PLACEMENT_3D('',#823,#676,#677);
#549=AXIS2_PLACEMENT_3D('',#825,#678,#679);
#550=AXIS2_PLACEMENT_3D('',#828,#681,#682);
#551=AXIS2_PLACEMENT_3D('',#829,#683,#684);
#552=AXIS2_PLACEMENT_3D('',#832,#686,#687);
#553=AXIS2_PLACEMENT_3D('',#834,#689,#690);
#554=AXIS2_PLACEMENT_3D('',#837,#693,#694);
#555=AXIS2_PLACEMENT_3D('',#839,#696,#697);
#556=AXIS2_PLACEMENT_3D('',#842,#700,#701);
#557=AXIS2_PLACEMENT_3D('',#843,#702,#703);
#558=AXIS2_PLACEMENT_3D('',#844,#704,#705);
#559=AXIS2_PLACEMENT_3D('',#845,#706,#707);
#560=AXIS2_PLACEMENT_3D('',#846,#708,#709);
#561=DIRECTION('axis',(0.,0.,1.));
#562=DIRECTION('refdir',(1.,0.,0.));
#563=DIRECTION('center_axis',(0.,0.,1.));
#564=DIRECTION('ref_axis',(-0.707106781186547,0.707106781186547,0.));
#565=DIRECTION('center_axis',(0.,0.,-1.));
#566=DIRECTION('ref_axis',(-0.707106781186547,0.707106781186547,0.));
#567=DIRECTION('',(0.,0.,-1.));
#568=DIRECTION('center_axis',(0.,0.,1.));
#569=DIRECTION('ref_axis',(-0.707106781186547,0.707106781186547,0.));
#570=DIRECTION('',(0.,0.,1.));
#571=DIRECTION('center_axis',(0.,0.,1.));
#572=DIRECTION('ref_axis',(1.,0.,0.));
#573=DIRECTION('',(0.,-1.,0.));
#574=DIRECTION('center_axis',(0.,0.,-1.));
#575=DIRECTION('ref_axis',(-0.707106781186548,-0.707106781186547,0.));
#576=DIRECTION('',(1.,0.,0.));
#577=DIRECTION('center_axis',(0.,0.,-1.));
#578=DIRECTION('ref_axis',(0.707106781186548,-0.707106781186547,0.));
#579=DIRECTION('',(0.,1.,0.));
#580=DIRECTION('center_axis',(0.,0.,-1.));
#581=DIRECTION('ref_axis',(0.707106781186547,0.707106781186547,0.));
#582=DIRECTION('',(-1.,0.,0.));
#583=DIRECTION('',(1.,1.74838271594513E-16,0.));
#584=DIRECTION('',(-1.,0.,0.));
#585=DIRECTION('center_axis',(0.,0.,-1.));
#586=DIRECTION('ref_axis',(-1.,0.,0.));
#587=DIRECTION('center_axis',(0.,0.,-1.));
#588=DIRECTION('ref_axis',(-1.,0.,0.));
#589=DIRECTION('center_axis',(0.,0.,-1.));
#590=DIRECTION('ref_axis',(-1.,0.,0.));
#591=DIRECTION('center_axis',(-1.,0.,0.));
#592=DIRECTION('ref_axis',(0.,-1.,0.));
#593=DIRECTION('',(0.,1.,0.));
#594=DIRECTION('',(0.,0.,-1.));
#595=DIRECTION('center_axis',(0.,0.,1.));
#596=DIRECTION('ref_axis',(-0.707106781186548,-0.707106781186547,0.));
#597=DIRECTION('center_axis',(0.,0.,1.));
#598=DIRECTION('ref_axis',(-0.707106781186548,-0.707106781186547,0.));
#599=DIRECTION('',(0.,0.,1.));
#600=DIRECTION('center_axis',(1.19641280816005E-16,-0.707106781186547,0.707106781186548));
#601=DIRECTION('ref_axis',(-0.707106781186547,0.5,0.5));
#602=DIRECTION('center_axis',(-1.19641280816005E-16,0.707106781186547,-0.707106781186548));
#603=DIRECTION('ref_axis',(-0.707106781186547,0.5,0.5));
#604=DIRECTION('',(-1.19641280816005E-16,0.707106781186547,-0.707106781186548));
#605=DIRECTION('center_axis',(1.19641280816005E-16,-0.707106781186547,0.707106781186548));
#606=DIRECTION('ref_axis',(-0.707106781186547,0.5,0.5));
#607=DIRECTION('',(1.19641280816005E-16,-0.707106781186547,0.707106781186548));
#608=DIRECTION('center_axis',(1.19641280816005E-16,-0.707106781186547,0.707106781186548));
#609=DIRECTION('ref_axis',(1.,4.95570411336774E-17,-1.19641280816005E-16));
#610=DIRECTION('',(-1.,-4.95570411336774E-17,1.19641280816005E-16));
#611=DIRECTION('center_axis',(1.19641280816005E-16,-0.707106781186547,0.707106781186548));
#612=DIRECTION('ref_axis',(0.707106781186548,0.5,0.5));
#613=DIRECTION('',(4.95570411336774E-17,0.707106781186548,0.707106781186547));
#614=DIRECTION('',(-1.,-1.73186368589093E-16,-3.98804663940992E-18));
#615=DIRECTION('',(-4.95570411336774E-17,-0.707106781186548,-0.707106781186547));
#616=DIRECTION('center_axis',(1.19641280816005E-16,-0.707106781186547,0.707106781186548));
#617=DIRECTION('ref_axis',(1.,1.18214104377602E-16,-5.41522307781334E-18));
#618=DIRECTION('center_axis',(1.19641280816005E-16,-0.707106781186547,0.707106781186548));
#619=DIRECTION('ref_axis',(1.,1.18214104377602E-16,-5.41522307781334E-18));
#620=DIRECTION('center_axis',(4.95570411336774E-17,0.707106781186548,0.707106781186547));
#621=DIRECTION('ref_axis',(-1.,-4.95570411336774E-17,1.19641280816005E-16));
#622=DIRECTION('',(-1.,-4.95570411336774E-17,1.19641280816005E-16));
#623=DIRECTION('',(1.19641280816005E-16,-0.707106781186547,0.707106781186548));
#624=DIRECTION('center_axis',(1.19641280816005E-16,-0.707106781186547,0.707106781186548));
#625=DIRECTION('ref_axis',(0.707106781186548,0.5,0.5));
#626=DIRECTION('center_axis',(-1.19641280816005E-16,0.707106781186547,-0.707106781186548));
#627=DIRECTION('ref_axis',(0.707106781186548,0.5,0.5));
#628=DIRECTION('',(-1.19641280816005E-16,0.707106781186547,-0.707106781186548));
#629=DIRECTION('center_axis',(0.,0.,1.));
#630=DIRECTION('ref_axis',(0.707106781186547,0.707106781186547,0.));
#631=DIRECTION('',(0.,0.,-1.));
#632=DIRECTION('center_axis',(0.,0.,1.));
#633=DIRECTION('ref_axis',(0.707106781186547,0.707106781186547,0.));
#634=DIRECTION('',(0.,0.,1.));
#635=DIRECTION('center_axis',(1.,0.,0.));
#636=DIRECTION('ref_axis',(0.,1.,0.));
#637=DIRECTION('',(0.,0.,1.));
#638=DIRECTION('',(0.,-1.,0.));
#639=DIRECTION('center_axis',(0.,0.,1.));
#640=DIRECTION('ref_axis',(0.707106781186548,-0.707106781186547,0.));
#641=DIRECTION('',(0.,0.,-1.));
#642=DIRECTION('center_axis',(0.,0.,1.));
#643=DIRECTION('ref_axis',(0.707106781186548,-0.707106781186547,0.));
#644=DIRECTION('center_axis',(0.,-1.,0.));
#645=DIRECTION('ref_axis',(1.,0.,0.));
#646=DIRECTION('',(-1.,0.,0.));
#647=DIRECTION('center_axis',(-8.74191357972564E-17,0.707106781186548,-0.707106781186547));
#648=DIRECTION('ref_axis',(1.,1.18214104377602E-16,-5.41522307781334E-18));
#649=DIRECTION('center_axis',(-1.19641280816005E-16,0.707106781186547,-0.707106781186548));
#650=DIRECTION('ref_axis',(1.,1.18214104377602E-16,-5.41522307781334E-18));
#651=DIRECTION('',(-8.74191357972564E-17,0.707106781186548,-0.707106781186547));
#652=DIRECTION('center_axis',(-8.74191357972564E-17,0.707106781186548,-0.707106781186547));
#653=DIRECTION('ref_axis',(1.,1.18214104377602E-16,-5.41522307781334E-18));
#654=DIRECTION('center_axis',(-1.19641280816005E-16,0.707106781186547,-0.707106781186548));
#655=DIRECTION('ref_axis',(1.,1.18214104377602E-16,-5.41522307781334E-18));
#656=DIRECTION('',(-8.74191357972564E-17,0.707106781186548,-0.707106781186547));
#657=DIRECTION('center_axis',(0.,0.,-1.));
#658=DIRECTION('ref_axis',(-1.,0.,0.));
#659=DIRECTION('',(0.,0.,-1.));
#660=DIRECTION('center_axis',(0.,0.,1.));
#661=DIRECTION('ref_axis',(-1.,0.,0.));
#662=DIRECTION('center_axis',(0.,0.,-1.));
#663=DIRECTION('ref_axis',(-1.,0.,0.));
#664=DIRECTION('',(0.,0.,-1.));
#665=DIRECTION('center_axis',(0.,0.,1.));
#666=DIRECTION('ref_axis',(-1.,0.,0.));
#667=DIRECTION('center_axis',(0.,0.,-1.));
#668=DIRECTION('ref_axis',(-1.,0.,0.));
#669=DIRECTION('',(0.,0.,-1.));
#670=DIRECTION('center_axis',(0.,0.,1.));
#671=DIRECTION('ref_axis',(-1.,0.,0.));
#672=DIRECTION('center_axis',(-1.,-4.95570411336774E-17,1.19641280816005E-16));
#673=DIRECTION('ref_axis',(-4.95570411336774E-17,-0.707106781186548,-0.707106781186547));
#674=DIRECTION('',(1.19641280816005E-16,-0.707106781186547,0.707106781186548));
#675=DIRECTION('',(-4.95570411336774E-17,-0.707106781186548,-0.707106781186547));
#676=DIRECTION('center_axis',(1.,1.69198321949683E-16,0.));
#677=DIRECTION('ref_axis',(0.,0.,-1.));
#678=DIRECTION('center_axis',(1.,1.69198321949683E-16,0.));
#679=DIRECTION('ref_axis',(0.,2.48222316192295E-7,-0.999999999999969));
#680=DIRECTION('',(-1.,-1.74838271594513E-16,0.));
#681=DIRECTION('center_axis',(-1.,-1.69198321949683E-16,0.));
#682=DIRECTION('ref_axis',(0.,0.707106781186548,-0.707106781186547));
#683=DIRECTION('center_axis',(1.,1.69198321949683E-16,0.));
#684=DIRECTION('ref_axis',(0.,0.,-1.));
#685=DIRECTION('',(-1.19641280816005E-16,0.707106781186547,-0.707106781186548));
#686=DIRECTION('center_axis',(1.,1.69198321949683E-16,0.));
#687=DIRECTION('ref_axis',(0.,2.48222316891648E-7,-0.999999999999969));
#688=DIRECTION('',(0.,0.,1.));
#689=DIRECTION('center_axis',(1.19641280816005E-16,-0.707106781186547,0.707106781186548));
#690=DIRECTION('ref_axis',(1.,4.95570411336774E-17,-1.19641280816005E-16));
#691=DIRECTION('',(1.,1.73186368589093E-16,3.98804663940992E-18));
#692=DIRECTION('',(4.95570411336774E-17,0.707106781186548,0.707106781186547));
#693=DIRECTION('center_axis',(0.,1.,0.));
#694=DIRECTION('ref_axis',(-1.,0.,0.));
#695=DIRECTION('',(1.,0.,0.));
#696=DIRECTION('center_axis',(0.,1.,0.));
#697=DIRECTION('ref_axis',(-1.,0.,0.));
#698=DIRECTION('',(0.,0.,1.));
#699=DIRECTION('',(1.,0.,0.));
#700=DIRECTION('center_axis',(-1.,-1.69198321949683E-16,0.));
#701=DIRECTION('ref_axis',(0.,0.,1.));
#702=DIRECTION('center_axis',(-1.,-1.69198321949683E-16,0.));
#703=DIRECTION('ref_axis',(0.,0.707106781186547,-0.707106781186548));
#704=DIRECTION('center_axis',(1.,4.95570411336774E-17,-1.19641280816005E-16));
#705=DIRECTION('ref_axis',(4.95570411336774E-17,0.707106781186548,0.707106781186547));
#706=DIRECTION('center_axis',(1.,1.69198321949683E-16,0.));
#707=DIRECTION('ref_axis',(0.,0.,-1.));
#708=DIRECTION('center_axis',(0.,0.,1.));
#709=DIRECTION('ref_axis',(1.,0.,0.));
#710=CARTESIAN_POINT('',(0.,0.,0.));
#711=CARTESIAN_POINT('Origin',(-1.85,1.2171,0.));
#712=CARTESIAN_POINT('',(-2.,1.2171,0.125));
#713=CARTESIAN_POINT('',(-1.85,1.3671,0.125));
#714=CARTESIAN_POINT('Origin',(-1.85,1.2171,0.125));
#715=CARTESIAN_POINT('',(-1.85,1.3671,0.));
#716=CARTESIAN_POINT('',(-1.85,1.3671,0.));
#717=CARTESIAN_POINT('',(-2.,1.2171,0.));
#718=CARTESIAN_POINT('Origin',(-1.85,1.2171,0.));
#719=CARTESIAN_POINT('',(-2.,1.2171,0.));
#720=CARTESIAN_POINT('Origin',(0.,1.4171,0.125));
#721=CARTESIAN_POINT('',(-2.,0.15,0.125));
#722=CARTESIAN_POINT('',(-2.,0.,0.125));
#723=CARTESIAN_POINT('',(-1.85,0.,0.125));
#724=CARTESIAN_POINT('Origin',(-1.85,0.15,0.125));
#725=CARTESIAN_POINT('',(1.85,0.,0.125));
#726=CARTESIAN_POINT('',(2.,0.,0.125));
#727=CARTESIAN_POINT('',(2.,0.15,0.125));
#728=CARTESIAN_POINT('Origin',(1.85,0.15,0.125));
#729=CARTESIAN_POINT('',(2.,1.2171,0.125));
#730=CARTESIAN_POINT('',(2.,1.3671,0.125));
#731=CARTESIAN_POINT('',(1.85,1.3671,0.125));
#732=CARTESIAN_POINT('Origin',(1.85,1.2171,0.125));
#733=CARTESIAN_POINT('',(0.7,1.36710004468002,0.125));
#734=CARTESIAN_POINT('',(-2.,1.3671,0.125));
#735=CARTESIAN_POINT('',(-0.7,1.3671,0.125));
#736=CARTESIAN_POINT('',(-1.15139743758566E-16,1.3671,0.125));
#737=CARTESIAN_POINT('',(-2.,1.3671,0.125));
#738=CARTESIAN_POINT('',(-1.1725,0.68355,0.125));
#739=CARTESIAN_POINT('Origin',(-1.3,0.68355,0.125));
#740=CARTESIAN_POINT('',(0.1275,0.68355,0.125));
#741=CARTESIAN_POINT('Origin',(0.,0.68355,0.125));
#742=CARTESIAN_POINT('',(1.4275,0.68355,0.125));
#743=CARTESIAN_POINT('Origin',(1.3,0.68355,0.125));
#744=CARTESIAN_POINT('Origin',(-2.,1.3671,0.));
#745=CARTESIAN_POINT('',(-2.,0.15,0.));
#746=CARTESIAN_POINT('',(-2.,0.,0.));
#747=CARTESIAN_POINT('',(-2.,0.15,0.));
#748=CARTESIAN_POINT('Origin',(-1.85,0.15,0.));
#749=CARTESIAN_POINT('',(-1.85,0.,0.));
#750=CARTESIAN_POINT('Origin',(-1.85,0.15,0.));
#751=CARTESIAN_POINT('',(-1.85,0.,0.));
#752=CARTESIAN_POINT('Origin',(-0.55,2.37524217068888,0.904588780095601));
#753=CARTESIAN_POINT('',(-0.7,2.28685382304056,0.99297712774392));
#754=CARTESIAN_POINT('',(-0.55,2.39291984021854,1.0990431449219));
#755=CARTESIAN_POINT('Origin',(-0.55,2.28685382304056,0.99297712774392));
#756=CARTESIAN_POINT('',(-0.55,2.48130818786686,1.01065479727358));
#757=CARTESIAN_POINT('',(-0.55,2.48130818786686,1.01065479727358));
#758=CARTESIAN_POINT('',(-0.7,2.37524217068888,0.904588780095601));
#759=CARTESIAN_POINT('Origin',(-0.55,2.37524217068888,0.904588780095601));
#760=CARTESIAN_POINT('',(-0.7,2.37524217068888,0.904588780095601));
#761=CARTESIAN_POINT('Origin',(2.65177150919061E-17,1.4792671682474,0.00861377765412702));
#762=CARTESIAN_POINT('',(0.55,2.48130818786686,1.01065479727358));
#763=CARTESIAN_POINT('',(0.7,2.48130818786686,1.01065479727358));
#764=CARTESIAN_POINT('',(0.7,2.37524217068888,0.904588780095601));
#765=CARTESIAN_POINT('Origin',(0.55,2.37524217068888,0.904588780095601));
#766=CARTESIAN_POINT('',(0.7,1.54387669529664,0.0732233047033633));
#767=CARTESIAN_POINT('',(0.7,1.44391186078162,-0.0267415298116571));
#768=CARTESIAN_POINT('',(-0.7,1.54387669529664,0.0732233047033631));
#769=CARTESIAN_POINT('',(-1.08811097419525E-16,1.54387669529664,0.0732233047033631));
#770=CARTESIAN_POINT('',(-0.7,2.48130818786686,1.01065479727358));
#771=CARTESIAN_POINT('',(-0.1275,2.25149848398123,0.780845093387956));
#772=CARTESIAN_POINT('Origin',(-2.65267537169338E-16,2.25149848398123,0.780845093387956));
#773=CARTESIAN_POINT('',(-0.1275,1.8272344152693,0.356581024676027));
#774=CARTESIAN_POINT('Origin',(-2.07130725374584E-16,1.8272344152693,0.356581024676027));
#775=CARTESIAN_POINT('Origin',(0.7,2.48130818786686,1.01065479727358));
#776=CARTESIAN_POINT('',(0.55,2.39291984021854,1.0990431449219));
#777=CARTESIAN_POINT('',(0.7,2.39291984021854,1.0990431449219));
#778=CARTESIAN_POINT('',(0.55,2.48130818786686,1.01065479727358));
#779=CARTESIAN_POINT('Origin',(0.55,2.37524217068888,0.904588780095601));
#780=CARTESIAN_POINT('',(0.7,2.28685382304056,0.99297712774392));
#781=CARTESIAN_POINT('Origin',(0.55,2.28685382304056,0.99297712774392));
#782=CARTESIAN_POINT('',(0.7,2.37524217068888,0.904588780095601));
#783=CARTESIAN_POINT('Origin',(1.85,1.2171,0.));
#784=CARTESIAN_POINT('',(2.,1.2171,0.));
#785=CARTESIAN_POINT('',(2.,1.2171,0.));
#786=CARTESIAN_POINT('',(1.85,1.3671,0.));
#787=CARTESIAN_POINT('Origin',(1.85,1.2171,0.));
#788=CARTESIAN_POINT('',(1.85,1.3671,0.));
#789=CARTESIAN_POINT('Origin',(2.,0.,0.));
#790=CARTESIAN_POINT('',(2.,0.15,0.));
#791=CARTESIAN_POINT('',(2.,0.15,0.));
#792=CARTESIAN_POINT('',(2.,1.3671,0.));
#793=CARTESIAN_POINT('Origin',(1.85,0.15,0.));
#794=CARTESIAN_POINT('',(1.85,0.,0.));
#795=CARTESIAN_POINT('',(1.85,0.,0.));
#796=CARTESIAN_POINT('Origin',(1.85,0.15,0.));
#797=CARTESIAN_POINT('Origin',(-2.,0.,0.));
#798=CARTESIAN_POINT('',(2.,0.,0.));
#799=CARTESIAN_POINT('Origin',(-2.54340145194681E-16,2.16311013633291,0.869233441036275));
#800=CARTESIAN_POINT('',(-0.1275,2.16311013633291,0.869233441036275));
#801=CARTESIAN_POINT('Origin',(-2.54340145194681E-16,2.16311013633291,0.869233441036274));
#802=CARTESIAN_POINT('',(-0.1275,2.16311013633291,0.869233441036275));
#803=CARTESIAN_POINT('Origin',(-1.96203333399926E-16,1.73884606762098,0.444969372324346));
#804=CARTESIAN_POINT('',(-0.1275,1.73884606762098,0.444969372324346));
#805=CARTESIAN_POINT('Origin',(-1.96203333399926E-16,1.73884606762098,0.444969372324345));
#806=CARTESIAN_POINT('',(-0.1275,1.73884606762098,0.444969372324346));
#807=CARTESIAN_POINT('Origin',(-1.3,0.68355,0.125));
#808=CARTESIAN_POINT('',(-1.1725,0.68355,0.));
#809=CARTESIAN_POINT('',(-1.1725,0.68355,0.125));
#810=CARTESIAN_POINT('Origin',(-1.3,0.68355,0.));
#811=CARTESIAN_POINT('Origin',(0.,0.68355,0.125));
#812=CARTESIAN_POINT('',(0.1275,0.68355,0.));
#813=CARTESIAN_POINT('',(0.1275,0.68355,0.125));
#814=CARTESIAN_POINT('Origin',(0.,0.68355,0.));
#815=CARTESIAN_POINT('Origin',(1.3,0.68355,0.125));
#816=CARTESIAN_POINT('',(1.4275,0.68355,0.));
#817=CARTESIAN_POINT('',(1.4275,0.68355,0.125));
#818=CARTESIAN_POINT('Origin',(1.3,0.68355,0.));
#819=CARTESIAN_POINT('Origin',(-0.7,2.48130818786686,1.01065479727358));
#820=CARTESIAN_POINT('',(-0.7,1.45548834764832,0.161611652351681));
#821=CARTESIAN_POINT('',(-0.7,1.54387669529664,0.0732233047033631));
#822=CARTESIAN_POINT('',(-0.7,2.39291984021854,1.0990431449219));
#823=CARTESIAN_POINT('Origin',(0.20000000638286,1.3671,0.25));
#824=CARTESIAN_POINT('',(0.7,1.36710004468002,0.));
#825=CARTESIAN_POINT('Origin',(0.7,1.3671,0.25));
#826=CARTESIAN_POINT('',(-0.7,1.3671,0.));
#827=CARTESIAN_POINT('',(-1.15139743758566E-16,1.3671,0.));
#828=CARTESIAN_POINT('Origin',(-0.7,1.3671,0.25));
#829=CARTESIAN_POINT('Origin',(0.7,1.45548834764832,0.161611652351682));
#830=CARTESIAN_POINT('',(0.7,1.45548834764832,0.161611652351682));
#831=CARTESIAN_POINT('',(0.7,1.54387669529664,0.0732233047033631));
#832=CARTESIAN_POINT('Origin',(0.7,1.3671,0.25));
#833=CARTESIAN_POINT('',(0.7,1.36710004468002,0.));
#834=CARTESIAN_POINT('Origin',(4.14728751939068E-17,1.39087882059908,0.0970021253024454));
#835=CARTESIAN_POINT('',(-9.38559373175239E-17,1.45548834764832,0.161611652351681));
#836=CARTESIAN_POINT('',(0.7,1.3555235131333,0.0616468178366613));
#837=CARTESIAN_POINT('Origin',(2.,1.3671,0.));
#838=CARTESIAN_POINT('',(-2.,1.3671,0.));
#839=CARTESIAN_POINT('Origin',(-0.7,1.3671,0.));
#840=CARTESIAN_POINT('',(-0.7,1.3671,0.));
#841=CARTESIAN_POINT('',(-2.,1.3671,0.));
#842=CARTESIAN_POINT('Origin',(-0.7,1.54387669529664,0.0732233047033631));
#843=CARTESIAN_POINT('Origin',(-0.7,1.3671,0.25));
#844=CARTESIAN_POINT('Origin',(0.7,1.44391186078162,-0.0267415298116571));
#845=CARTESIAN_POINT('Origin',(0.20000000638286,1.3671,0.25));
#846=CARTESIAN_POINT('Origin',(0.,1.4171,0.));
#847=UNCERTAINTY_MEASURE_WITH_UNIT(LENGTH_MEASURE(0.000393700787401575),
#852,'DISTANCE_ACCURACY_VALUE',
'Maximum model space distance between geometric entities at asserted c
onnectivities');
#848=UNCERTAINTY_MEASURE_WITH_UNIT(LENGTH_MEASURE(0.000393700787401575),
#852,'DISTANCE_ACCURACY_VALUE',
'Maximum model space distance between geometric entities at asserted c
onnectivities');
#849=(
GEOMETRIC_REPRESENTATION_CONTEXT(3)
GLOBAL_UNCERTAINTY_ASSIGNED_CONTEXT((#847))
GLOBAL_UNIT_ASSIGNED_CONTEXT((#852,#856,#857))
REPRESENTATION_CONTEXT('','3D')
);
#850=(
GEOMETRIC_REPRESENTATION_CONTEXT(3)
GLOBAL_UNCERTAINTY_ASSIGNED_CONTEXT((#848))
GLOBAL_UNIT_ASSIGNED_CONTEXT((#852,#856,#857))
REPRESENTATION_CONTEXT('','3D')
);
#851=DIMENSIONAL_EXPONENTS(1.,0.,0.,0.,0.,0.,0.);
#852=(
CONVERSION_BASED_UNIT('inch',#855)
LENGTH_UNIT()
NAMED_UNIT(#851)
);
#853=(
LENGTH_UNIT()
NAMED_UNIT(*)
SI_UNIT(.MILLI.,.METRE.)
);
#854=(
LENGTH_UNIT()
NAMED_UNIT(*)
SI_UNIT($,.METRE.)
);
#855=LENGTH_MEASURE_WITH_UNIT(LENGTH_MEASURE(25.4),#853);
#856=(
NAMED_UNIT(*)
PLANE_ANGLE_UNIT()
SI_UNIT($,.RADIAN.)
);
#857=(
NAMED_UNIT(*)
SI_UNIT($,.STERADIAN.)
SOLID_ANGLE_UNIT()
);
#858=SHAPE_DEFINITION_REPRESENTATION(#859,#860);
#859=PRODUCT_DEFINITION_SHAPE('',$,#862);
#860=SHAPE_REPRESENTATION('',(#507),#849);
#861=PRODUCT_DEFINITION_CONTEXT('part definition',#866,'design');
#862=PRODUCT_DEFINITION('Sheet Metal Inner Mounting Bracket',
'Sheet Metal Inner Mounting Bracket v3',#863,#861);
#863=PRODUCT_DEFINITION_FORMATION('',$,#868);
#864=PRODUCT_RELATED_PRODUCT_CATEGORY(
'Sheet Metal Inner Mounting Bracket v3',
'Sheet Metal Inner Mounting Bracket v3',(#868));
#865=APPLICATION_PROTOCOL_DEFINITION('international standard',
'automotive_design',2009,#866);
#866=APPLICATION_CONTEXT(
'Core Data for Automotive Mechanical Design Process');
#867=PRODUCT_CONTEXT('part definition',#866,'mechanical');
#868=PRODUCT('Sheet Metal Inner Mounting Bracket',
'Sheet Metal Inner Mounting Bracket v3',$,(#867));
#869=PRESENTATION_STYLE_ASSIGNMENT((#870));
#870=SURFACE_STYLE_USAGE(.BOTH.,#871);
#871=SURFACE_SIDE_STYLE('',(#872));
#872=SURFACE_STYLE_FILL_AREA(#873);
#873=FILL_AREA_STYLE('Steel - Satin',(#874));
#874=FILL_AREA_STYLE_COLOUR('Steel - Satin',#875);
#875=COLOUR_RGB('Steel - Satin',0.627450980392157,0.627450980392157,0.627450980392157);
ENDSEC;
END-ISO-10303-21;
